<?xml version="1.0" encoding="utf-8"?>
<svg xmlns="http://www.w3.org/2000/svg" xmlns:xlink="http://www.w3.org/1999/xlink" width="600" height="400" viewBox="0 0 2400 1600">
<defs>
  <clipPath id="clip060">
    <rect x="0" y="0" width="2400" height="1600"/>
  </clipPath>
</defs>
<path clip-path="url(#clip060)" d="
M0 1600 L2400 1600 L2400 0 L0 0  Z
  " fill="#ffffff" fill-rule="evenodd" fill-opacity="1"/>
<defs>
  <clipPath id="clip061">
    <rect x="480" y="0" width="1681" height="1600"/>
  </clipPath>
</defs>
<path clip-path="url(#clip060)" d="
M188.104 1486.45 L2352.76 1486.45 L2352.76 47.2441 L188.104 47.2441  Z
  " fill="#ffffff" fill-rule="evenodd" fill-opacity="1"/>
<defs>
  <clipPath id="clip062">
    <rect x="188" y="47" width="2166" height="1440"/>
  </clipPath>
</defs>
<polyline clip-path="url(#clip062)" style="stroke:#000000; stroke-linecap:butt; stroke-linejoin:round; stroke-width:2; stroke-opacity:0.1; fill:none" points="
  239.106,1486.45 239.106,47.2441 
  "/>
<polyline clip-path="url(#clip062)" style="stroke:#000000; stroke-linecap:butt; stroke-linejoin:round; stroke-width:2; stroke-opacity:0.1; fill:none" points="
  752.202,1486.45 752.202,47.2441 
  "/>
<polyline clip-path="url(#clip062)" style="stroke:#000000; stroke-linecap:butt; stroke-linejoin:round; stroke-width:2; stroke-opacity:0.1; fill:none" points="
  1265.3,1486.45 1265.3,47.2441 
  "/>
<polyline clip-path="url(#clip062)" style="stroke:#000000; stroke-linecap:butt; stroke-linejoin:round; stroke-width:2; stroke-opacity:0.1; fill:none" points="
  1778.4,1486.45 1778.4,47.2441 
  "/>
<polyline clip-path="url(#clip062)" style="stroke:#000000; stroke-linecap:butt; stroke-linejoin:round; stroke-width:2; stroke-opacity:0.1; fill:none" points="
  2291.49,1486.45 2291.49,47.2441 
  "/>
<polyline clip-path="url(#clip060)" style="stroke:#000000; stroke-linecap:butt; stroke-linejoin:round; stroke-width:4; stroke-opacity:1; fill:none" points="
  188.104,1486.45 2352.76,1486.45 
  "/>
<polyline clip-path="url(#clip060)" style="stroke:#000000; stroke-linecap:butt; stroke-linejoin:round; stroke-width:4; stroke-opacity:1; fill:none" points="
  239.106,1486.45 239.106,1467.55 
  "/>
<polyline clip-path="url(#clip060)" style="stroke:#000000; stroke-linecap:butt; stroke-linejoin:round; stroke-width:4; stroke-opacity:1; fill:none" points="
  752.202,1486.45 752.202,1467.55 
  "/>
<polyline clip-path="url(#clip060)" style="stroke:#000000; stroke-linecap:butt; stroke-linejoin:round; stroke-width:4; stroke-opacity:1; fill:none" points="
  1265.3,1486.45 1265.3,1467.55 
  "/>
<polyline clip-path="url(#clip060)" style="stroke:#000000; stroke-linecap:butt; stroke-linejoin:round; stroke-width:4; stroke-opacity:1; fill:none" points="
  1778.4,1486.45 1778.4,1467.55 
  "/>
<polyline clip-path="url(#clip060)" style="stroke:#000000; stroke-linecap:butt; stroke-linejoin:round; stroke-width:4; stroke-opacity:1; fill:none" points="
  2291.49,1486.45 2291.49,1467.55 
  "/>
<path clip-path="url(#clip060)" d="M239.106 1517.37 Q235.495 1517.37 233.666 1520.93 Q231.861 1524.47 231.861 1531.6 Q231.861 1538.71 233.666 1542.27 Q235.495 1545.82 239.106 1545.82 Q242.74 1545.82 244.546 1542.27 Q246.374 1538.71 246.374 1531.6 Q246.374 1524.47 244.546 1520.93 Q242.74 1517.37 239.106 1517.37 M239.106 1513.66 Q244.916 1513.66 247.972 1518.27 Q251.05 1522.85 251.05 1531.6 Q251.05 1540.33 247.972 1544.94 Q244.916 1549.52 239.106 1549.52 Q233.296 1549.52 230.217 1544.94 Q227.162 1540.33 227.162 1531.6 Q227.162 1522.85 230.217 1518.27 Q233.296 1513.66 239.106 1513.66 Z" fill="#000000" fill-rule="evenodd" fill-opacity="1" /><path clip-path="url(#clip060)" d="M726.902 1514.29 L745.258 1514.29 L745.258 1518.22 L731.184 1518.22 L731.184 1526.7 Q732.203 1526.35 733.221 1526.19 Q734.24 1526 735.258 1526 Q741.045 1526 744.425 1529.17 Q747.804 1532.34 747.804 1537.76 Q747.804 1543.34 744.332 1546.44 Q740.86 1549.52 734.541 1549.52 Q732.365 1549.52 730.096 1549.15 Q727.851 1548.78 725.443 1548.04 L725.443 1543.34 Q727.527 1544.47 729.749 1545.03 Q731.971 1545.58 734.448 1545.58 Q738.453 1545.58 740.791 1543.48 Q743.128 1541.37 743.128 1537.76 Q743.128 1534.15 740.791 1532.04 Q738.453 1529.94 734.448 1529.94 Q732.573 1529.94 730.698 1530.35 Q728.846 1530.77 726.902 1531.65 L726.902 1514.29 Z" fill="#000000" fill-rule="evenodd" fill-opacity="1" /><path clip-path="url(#clip060)" d="M767.017 1517.37 Q763.406 1517.37 761.577 1520.93 Q759.772 1524.47 759.772 1531.6 Q759.772 1538.71 761.577 1542.27 Q763.406 1545.82 767.017 1545.82 Q770.651 1545.82 772.457 1542.27 Q774.286 1538.71 774.286 1531.6 Q774.286 1524.47 772.457 1520.93 Q770.651 1517.37 767.017 1517.37 M767.017 1513.66 Q772.827 1513.66 775.883 1518.27 Q778.962 1522.85 778.962 1531.6 Q778.962 1540.33 775.883 1544.94 Q772.827 1549.52 767.017 1549.52 Q761.207 1549.52 758.128 1544.94 Q755.073 1540.33 755.073 1531.6 Q755.073 1522.85 758.128 1518.27 Q761.207 1513.66 767.017 1513.66 Z" fill="#000000" fill-rule="evenodd" fill-opacity="1" /><path clip-path="url(#clip060)" d="M1224.91 1544.91 L1232.54 1544.91 L1232.54 1518.55 L1224.23 1520.21 L1224.23 1515.95 L1232.5 1514.29 L1237.17 1514.29 L1237.17 1544.91 L1244.81 1544.91 L1244.81 1548.85 L1224.91 1548.85 L1224.91 1544.91 Z" fill="#000000" fill-rule="evenodd" fill-opacity="1" /><path clip-path="url(#clip060)" d="M1264.26 1517.37 Q1260.65 1517.37 1258.82 1520.93 Q1257.01 1524.47 1257.01 1531.6 Q1257.01 1538.71 1258.82 1542.27 Q1260.65 1545.82 1264.26 1545.82 Q1267.89 1545.82 1269.7 1542.27 Q1271.53 1538.71 1271.53 1531.6 Q1271.53 1524.47 1269.7 1520.93 Q1267.89 1517.37 1264.26 1517.37 M1264.26 1513.66 Q1270.07 1513.66 1273.12 1518.27 Q1276.2 1522.85 1276.2 1531.6 Q1276.2 1540.33 1273.12 1544.94 Q1270.07 1549.52 1264.26 1549.52 Q1258.45 1549.52 1255.37 1544.94 Q1252.31 1540.33 1252.31 1531.6 Q1252.31 1522.85 1255.37 1518.27 Q1258.45 1513.66 1264.26 1513.66 Z" fill="#000000" fill-rule="evenodd" fill-opacity="1" /><path clip-path="url(#clip060)" d="M1294.42 1517.37 Q1290.81 1517.37 1288.98 1520.93 Q1287.17 1524.47 1287.17 1531.6 Q1287.17 1538.71 1288.98 1542.27 Q1290.81 1545.82 1294.42 1545.82 Q1298.05 1545.82 1299.86 1542.27 Q1301.69 1538.71 1301.69 1531.6 Q1301.69 1524.47 1299.86 1520.93 Q1298.05 1517.37 1294.42 1517.37 M1294.42 1513.66 Q1300.23 1513.66 1303.28 1518.27 Q1306.36 1522.85 1306.36 1531.6 Q1306.36 1540.33 1303.28 1544.94 Q1300.23 1549.52 1294.42 1549.52 Q1288.61 1549.52 1285.53 1544.94 Q1282.47 1540.33 1282.47 1531.6 Q1282.47 1522.85 1285.53 1518.27 Q1288.61 1513.66 1294.42 1513.66 Z" fill="#000000" fill-rule="evenodd" fill-opacity="1" /><path clip-path="url(#clip060)" d="M1738 1544.91 L1745.64 1544.91 L1745.64 1518.55 L1737.33 1520.21 L1737.33 1515.95 L1745.59 1514.29 L1750.27 1514.29 L1750.27 1544.91 L1757.91 1544.91 L1757.91 1548.85 L1738 1548.85 L1738 1544.91 Z" fill="#000000" fill-rule="evenodd" fill-opacity="1" /><path clip-path="url(#clip060)" d="M1767.4 1514.29 L1785.76 1514.29 L1785.76 1518.22 L1771.68 1518.22 L1771.68 1526.7 Q1772.7 1526.35 1773.72 1526.19 Q1774.74 1526 1775.76 1526 Q1781.54 1526 1784.92 1529.17 Q1788.3 1532.34 1788.3 1537.76 Q1788.3 1543.34 1784.83 1546.44 Q1781.36 1549.52 1775.04 1549.52 Q1772.86 1549.52 1770.59 1549.15 Q1768.35 1548.78 1765.94 1548.04 L1765.94 1543.34 Q1768.03 1544.47 1770.25 1545.03 Q1772.47 1545.58 1774.95 1545.58 Q1778.95 1545.58 1781.29 1543.48 Q1783.63 1541.37 1783.63 1537.76 Q1783.63 1534.15 1781.29 1532.04 Q1778.95 1529.94 1774.95 1529.94 Q1773.07 1529.94 1771.2 1530.35 Q1769.34 1530.77 1767.4 1531.65 L1767.4 1514.29 Z" fill="#000000" fill-rule="evenodd" fill-opacity="1" /><path clip-path="url(#clip060)" d="M1807.52 1517.37 Q1803.9 1517.37 1802.08 1520.93 Q1800.27 1524.47 1800.27 1531.6 Q1800.27 1538.71 1802.08 1542.27 Q1803.9 1545.82 1807.52 1545.82 Q1811.15 1545.82 1812.96 1542.27 Q1814.78 1538.71 1814.78 1531.6 Q1814.78 1524.47 1812.96 1520.93 Q1811.15 1517.37 1807.52 1517.37 M1807.52 1513.66 Q1813.33 1513.66 1816.38 1518.27 Q1819.46 1522.85 1819.46 1531.6 Q1819.46 1540.33 1816.38 1544.94 Q1813.33 1549.52 1807.52 1549.52 Q1801.71 1549.52 1798.63 1544.94 Q1795.57 1540.33 1795.57 1531.6 Q1795.57 1522.85 1798.63 1518.27 Q1801.71 1513.66 1807.52 1513.66 Z" fill="#000000" fill-rule="evenodd" fill-opacity="1" /><path clip-path="url(#clip060)" d="M2255.18 1544.91 L2271.5 1544.91 L2271.5 1548.85 L2249.56 1548.85 L2249.56 1544.91 Q2252.22 1542.16 2256.8 1537.53 Q2261.41 1532.88 2262.59 1531.53 Q2264.84 1529.01 2265.72 1527.27 Q2266.62 1525.51 2266.62 1523.82 Q2266.62 1521.07 2264.68 1519.33 Q2262.75 1517.6 2259.65 1517.6 Q2257.45 1517.6 2255 1518.36 Q2252.57 1519.13 2249.79 1520.68 L2249.79 1515.95 Q2252.62 1514.82 2255.07 1514.24 Q2257.52 1513.66 2259.56 1513.66 Q2264.93 1513.66 2268.12 1516.35 Q2271.32 1519.03 2271.32 1523.52 Q2271.32 1525.65 2270.51 1527.57 Q2269.72 1529.47 2267.61 1532.07 Q2267.04 1532.74 2263.93 1535.95 Q2260.83 1539.15 2255.18 1544.91 Z" fill="#000000" fill-rule="evenodd" fill-opacity="1" /><path clip-path="url(#clip060)" d="M2291.32 1517.37 Q2287.71 1517.37 2285.88 1520.93 Q2284.07 1524.47 2284.07 1531.6 Q2284.07 1538.71 2285.88 1542.27 Q2287.71 1545.82 2291.32 1545.82 Q2294.95 1545.82 2296.76 1542.27 Q2298.59 1538.71 2298.59 1531.6 Q2298.59 1524.47 2296.76 1520.93 Q2294.95 1517.37 2291.32 1517.37 M2291.32 1513.66 Q2297.13 1513.66 2300.18 1518.27 Q2303.26 1522.85 2303.26 1531.6 Q2303.26 1540.33 2300.18 1544.94 Q2297.13 1549.52 2291.32 1549.52 Q2285.51 1549.52 2282.43 1544.94 Q2279.37 1540.33 2279.37 1531.6 Q2279.37 1522.85 2282.43 1518.27 Q2285.51 1513.66 2291.32 1513.66 Z" fill="#000000" fill-rule="evenodd" fill-opacity="1" /><path clip-path="url(#clip060)" d="M2321.48 1517.37 Q2317.87 1517.37 2316.04 1520.93 Q2314.24 1524.47 2314.24 1531.6 Q2314.24 1538.71 2316.04 1542.27 Q2317.87 1545.82 2321.48 1545.82 Q2325.11 1545.82 2326.92 1542.27 Q2328.75 1538.71 2328.75 1531.6 Q2328.75 1524.47 2326.92 1520.93 Q2325.11 1517.37 2321.48 1517.37 M2321.48 1513.66 Q2327.29 1513.66 2330.35 1518.27 Q2333.42 1522.85 2333.42 1531.6 Q2333.42 1540.33 2330.35 1544.94 Q2327.29 1549.52 2321.48 1549.52 Q2315.67 1549.52 2312.59 1544.94 Q2309.54 1540.33 2309.54 1531.6 Q2309.54 1522.85 2312.59 1518.27 Q2315.67 1513.66 2321.48 1513.66 Z" fill="#000000" fill-rule="evenodd" fill-opacity="1" /><polyline clip-path="url(#clip062)" style="stroke:#000000; stroke-linecap:butt; stroke-linejoin:round; stroke-width:2; stroke-opacity:0.1; fill:none" points="
  188.104,1211.43 2352.76,1211.43 
  "/>
<polyline clip-path="url(#clip062)" style="stroke:#000000; stroke-linecap:butt; stroke-linejoin:round; stroke-width:2; stroke-opacity:0.1; fill:none" points="
  188.104,550.173 2352.76,550.173 
  "/>
<polyline clip-path="url(#clip060)" style="stroke:#000000; stroke-linecap:butt; stroke-linejoin:round; stroke-width:4; stroke-opacity:1; fill:none" points="
  188.104,1486.45 188.104,47.2441 
  "/>
<polyline clip-path="url(#clip060)" style="stroke:#000000; stroke-linecap:butt; stroke-linejoin:round; stroke-width:4; stroke-opacity:1; fill:none" points="
  188.104,1211.43 207.002,1211.43 
  "/>
<polyline clip-path="url(#clip060)" style="stroke:#000000; stroke-linecap:butt; stroke-linejoin:round; stroke-width:4; stroke-opacity:1; fill:none" points="
  188.104,550.173 207.002,550.173 
  "/>
<path clip-path="url(#clip060)" d="M51.9643 1231.22 L59.6032 1231.22 L59.6032 1204.85 L51.2931 1206.52 L51.2931 1202.26 L59.5569 1200.6 L64.2328 1200.6 L64.2328 1231.22 L71.8716 1231.22 L71.8716 1235.16 L51.9643 1235.16 L51.9643 1231.22 Z" fill="#000000" fill-rule="evenodd" fill-opacity="1" /><path clip-path="url(#clip060)" d="M91.316 1203.67 Q87.7049 1203.67 85.8762 1207.24 Q84.0707 1210.78 84.0707 1217.91 Q84.0707 1225.02 85.8762 1228.58 Q87.7049 1232.12 91.316 1232.12 Q94.9502 1232.12 96.7558 1228.58 Q98.5845 1225.02 98.5845 1217.91 Q98.5845 1210.78 96.7558 1207.24 Q94.9502 1203.67 91.316 1203.67 M91.316 1199.97 Q97.1261 1199.97 100.182 1204.58 Q103.26 1209.16 103.26 1217.91 Q103.26 1226.64 100.182 1231.24 Q97.1261 1235.83 91.316 1235.83 Q85.5058 1235.83 82.4271 1231.24 Q79.3716 1226.64 79.3716 1217.91 Q79.3716 1209.16 82.4271 1204.58 Q85.5058 1199.97 91.316 1199.97 Z" fill="#000000" fill-rule="evenodd" fill-opacity="1" /><path clip-path="url(#clip060)" d="M103.26 1194.07 L127.372 1194.07 L127.372 1197.27 L103.26 1197.27 L103.26 1194.07 Z" fill="#000000" fill-rule="evenodd" fill-opacity="1" /><path clip-path="url(#clip060)" d="M138.845 1204.55 L152.104 1204.55 L152.104 1207.75 L134.274 1207.75 L134.274 1204.55 Q136.437 1202.31 140.161 1198.55 Q143.904 1194.77 144.863 1193.68 Q146.688 1191.63 147.402 1190.22 Q148.136 1188.79 148.136 1187.41 Q148.136 1185.18 146.556 1183.77 Q144.995 1182.35 142.475 1182.35 Q140.688 1182.35 138.694 1182.98 Q136.719 1183.6 134.462 1184.86 L134.462 1181.02 Q136.757 1180.1 138.751 1179.63 Q140.744 1179.16 142.399 1179.16 Q146.763 1179.16 149.358 1181.34 Q151.954 1183.52 151.954 1187.17 Q151.954 1188.9 151.295 1190.46 Q150.656 1192 148.944 1194.11 Q148.474 1194.65 145.954 1197.27 Q143.434 1199.86 138.845 1204.55 Z" fill="#000000" fill-rule="evenodd" fill-opacity="1" /><path clip-path="url(#clip060)" d="M51.6634 569.966 L59.3023 569.966 L59.3023 543.6 L50.9921 545.267 L50.9921 541.008 L59.256 539.341 L63.9319 539.341 L63.9319 569.966 L71.5707 569.966 L71.5707 573.901 L51.6634 573.901 L51.6634 569.966 Z" fill="#000000" fill-rule="evenodd" fill-opacity="1" /><path clip-path="url(#clip060)" d="M91.0151 542.42 Q87.404 542.42 85.5753 545.984 Q83.7697 549.526 83.7697 556.656 Q83.7697 563.762 85.5753 567.327 Q87.404 570.869 91.0151 570.869 Q94.6493 570.869 96.4548 567.327 Q98.2835 563.762 98.2835 556.656 Q98.2835 549.526 96.4548 545.984 Q94.6493 542.42 91.0151 542.42 M91.0151 538.716 Q96.8252 538.716 99.8808 543.322 Q102.959 547.906 102.959 556.656 Q102.959 565.382 99.8808 569.989 Q96.8252 574.572 91.0151 574.572 Q85.2049 574.572 82.1262 569.989 Q79.0707 565.382 79.0707 556.656 Q79.0707 547.906 82.1262 543.322 Q85.2049 538.716 91.0151 538.716 Z" fill="#000000" fill-rule="evenodd" fill-opacity="1" /><path clip-path="url(#clip060)" d="M102.959 532.817 L127.071 532.817 L127.071 536.015 L102.959 536.015 L102.959 532.817 Z" fill="#000000" fill-rule="evenodd" fill-opacity="1" /><path clip-path="url(#clip060)" d="M135.929 543.293 L142.136 543.293 L142.136 521.871 L135.384 523.225 L135.384 519.765 L142.098 518.411 L145.898 518.411 L145.898 543.293 L152.104 543.293 L152.104 546.491 L135.929 546.491 L135.929 543.293 Z" fill="#000000" fill-rule="evenodd" fill-opacity="1" /><polyline clip-path="url(#clip062)" style="stroke:#009af9; stroke-linecap:butt; stroke-linejoin:round; stroke-width:4; stroke-opacity:1; fill:none" points="
  249.368,87.9763 259.63,93.34 269.892,98.7993 280.154,104.356 290.416,110.011 300.678,115.767 310.939,121.625 321.201,127.587 331.463,133.654 341.725,139.83 
  351.987,146.115 362.249,152.512 372.511,159.023 382.773,165.65 393.035,172.395 403.297,179.261 413.559,186.25 423.821,193.364 434.083,200.607 444.345,207.98 
  454.606,215.485 464.868,223.126 475.13,230.905 485.392,238.825 495.654,246.887 505.916,255.094 516.178,263.447 526.44,271.95 536.702,280.602 546.964,289.407 
  557.226,298.364 567.488,307.475 577.75,316.738 588.012,326.155 598.274,335.724 608.535,345.444 618.797,355.312 629.059,365.326 639.321,375.483 649.583,385.781 
  659.845,396.215 670.107,406.785 680.369,417.488 690.631,428.324 700.893,439.296 711.155,450.406 721.417,461.659 731.679,473.063 741.941,484.623 752.202,496.344 
  762.464,508.231 772.726,520.284 782.988,532.503 793.25,544.883 803.512,557.419 813.774,570.104 824.036,582.928 834.298,595.882 844.56,608.96 854.822,622.155 
  865.084,635.465 875.346,648.89 885.608,662.434 895.87,676.103 906.131,689.901 916.393,703.833 926.655,717.898 936.917,732.092 947.179,746.404 957.441,760.822 
  967.703,775.333 977.965,789.922 988.227,804.579 998.489,819.298 1008.75,834.076 1019.01,848.914 1029.27,863.813 1039.54,878.772 1049.8,893.785 1060.06,908.843 
  1070.32,923.929 1080.58,939.024 1090.85,954.109 1101.11,969.167 1111.37,984.186 1121.63,999.157 1131.89,1014.08 1142.16,1028.93 1152.42,1043.72 1162.68,1058.43 
  1172.94,1073.03 1183.2,1087.51 1193.47,1101.83 1203.73,1115.98 1213.99,1129.95 1224.25,1143.71 1234.51,1157.26 1244.78,1170.59 1255.04,1183.69 1265.3,1196.52 
  1275.56,1209.08 1285.82,1221.34 1296.08,1233.28 1306.35,1244.89 1316.61,1256.16 1326.87,1267.08 1337.13,1277.64 1347.39,1287.84 1357.66,1297.67 1367.92,1307.12 
  1378.18,1316.17 1388.44,1324.83 1398.7,1333.09 1408.97,1340.96 1419.23,1348.44 1429.49,1355.54 1439.75,1362.26 1450.01,1368.61 1460.28,1374.59 1470.54,1380.21 
  1480.8,1385.48 1491.06,1390.42 1501.32,1395.03 1511.59,1399.33 1521.85,1403.34 1532.11,1407.06 1542.37,1410.51 1552.63,1413.69 1562.9,1416.64 1573.16,1419.35 
  1583.42,1421.85 1593.68,1424.14 1603.94,1426.25 1614.2,1428.17 1624.47,1429.93 1634.73,1431.54 1644.99,1433 1655.25,1434.33 1665.51,1435.54 1675.78,1436.63 
  1686.04,1437.62 1696.3,1438.51 1706.56,1439.32 1716.82,1440.05 1727.09,1440.7 1737.35,1441.28 1747.61,1441.81 1757.87,1442.28 1768.13,1442.7 1778.4,1443.07 
  1788.66,1443.4 1798.92,1443.7 1809.18,1443.96 1819.44,1444.19 1829.71,1444.4 1839.97,1444.58 1850.23,1444.73 1860.49,1444.87 1870.75,1444.99 1881.01,1445.1 
  1891.28,1445.19 1901.54,1445.27 1911.8,1445.34 1922.06,1445.4 1932.32,1445.45 1942.59,1445.5 1952.85,1445.54 1963.11,1445.57 1973.37,1445.59 1983.63,1445.62 
  1993.9,1445.64 2004.16,1445.65 2014.42,1445.67 2024.68,1445.68 2034.94,1445.69 2045.21,1445.69 2055.47,1445.7 2065.73,1445.7 2075.99,1445.71 2086.25,1445.71 
  2096.52,1445.71 2106.78,1445.71 2117.04,1445.71 2127.3,1445.72 2137.56,1445.72 2147.83,1445.72 2158.09,1445.72 2168.35,1445.72 2178.61,1445.72 2188.87,1445.71 
  2199.13,1445.71 2209.4,1445.71 2219.66,1445.71 2229.92,1445.71 2240.18,1445.71 2250.44,1445.71 2260.71,1445.71 2270.97,1445.71 2281.23,1445.71 2291.49,1445.71 
  
  "/>
<path clip-path="url(#clip060)" d="
M1987.65 198.898 L2280.6 198.898 L2280.6 95.2176 L1987.65 95.2176  Z
  " fill="#ffffff" fill-rule="evenodd" fill-opacity="1"/>
<polyline clip-path="url(#clip060)" style="stroke:#000000; stroke-linecap:butt; stroke-linejoin:round; stroke-width:4; stroke-opacity:1; fill:none" points="
  1987.65,198.898 2280.6,198.898 2280.6,95.2176 1987.65,95.2176 1987.65,198.898 
  "/>
<polyline clip-path="url(#clip060)" style="stroke:#009af9; stroke-linecap:butt; stroke-linejoin:round; stroke-width:4; stroke-opacity:1; fill:none" points="
  2011.71,147.058 2156.02,147.058 
  "/>
<path clip-path="url(#clip060)" d="M2193.91 166.745 Q2192.1 171.375 2190.39 172.787 Q2188.68 174.199 2185.81 174.199 L2182.41 174.199 L2182.41 170.634 L2184.91 170.634 Q2186.66 170.634 2187.64 169.8 Q2188.61 168.967 2189.79 165.865 L2190.55 163.921 L2180.07 138.412 L2184.58 138.412 L2192.68 158.689 L2200.78 138.412 L2205.3 138.412 L2193.91 166.745 Z" fill="#000000" fill-rule="evenodd" fill-opacity="1" /><path clip-path="url(#clip060)" d="M2212.59 160.402 L2220.23 160.402 L2220.23 134.037 L2211.92 135.703 L2211.92 131.444 L2220.18 129.778 L2224.86 129.778 L2224.86 160.402 L2232.5 160.402 L2232.5 164.338 L2212.59 164.338 L2212.59 160.402 Z" fill="#000000" fill-rule="evenodd" fill-opacity="1" /></svg>
