<?xml version="1.0" encoding="utf-8"?>
<svg xmlns="http://www.w3.org/2000/svg" xmlns:xlink="http://www.w3.org/1999/xlink" width="600" height="400" viewBox="0 0 2400 1600">
<defs>
  <clipPath id="clip100">
    <rect x="0" y="0" width="2400" height="1600"/>
  </clipPath>
</defs>
<path clip-path="url(#clip100)" d="
M0 1600 L2400 1600 L2400 0 L0 0  Z
  " fill="#ffffff" fill-rule="evenodd" fill-opacity="1"/>
<defs>
  <clipPath id="clip101">
    <rect x="480" y="0" width="1681" height="1600"/>
  </clipPath>
</defs>
<path clip-path="url(#clip100)" d="
M192.339 1486.45 L2352.76 1486.45 L2352.76 47.2441 L192.339 47.2441  Z
  " fill="#ffffff" fill-rule="evenodd" fill-opacity="1"/>
<defs>
  <clipPath id="clip102">
    <rect x="192" y="47" width="2161" height="1440"/>
  </clipPath>
</defs>
<polyline clip-path="url(#clip102)" style="stroke:#000000; stroke-linecap:butt; stroke-linejoin:round; stroke-width:2; stroke-opacity:0.1; fill:none" points="
  253.483,1486.45 253.483,47.2441 
  "/>
<polyline clip-path="url(#clip102)" style="stroke:#000000; stroke-linecap:butt; stroke-linejoin:round; stroke-width:2; stroke-opacity:0.1; fill:none" points="
  763.015,1486.45 763.015,47.2441 
  "/>
<polyline clip-path="url(#clip102)" style="stroke:#000000; stroke-linecap:butt; stroke-linejoin:round; stroke-width:2; stroke-opacity:0.1; fill:none" points="
  1272.55,1486.45 1272.55,47.2441 
  "/>
<polyline clip-path="url(#clip102)" style="stroke:#000000; stroke-linecap:butt; stroke-linejoin:round; stroke-width:2; stroke-opacity:0.1; fill:none" points="
  1782.08,1486.45 1782.08,47.2441 
  "/>
<polyline clip-path="url(#clip102)" style="stroke:#000000; stroke-linecap:butt; stroke-linejoin:round; stroke-width:2; stroke-opacity:0.1; fill:none" points="
  2291.61,1486.45 2291.61,47.2441 
  "/>
<polyline clip-path="url(#clip100)" style="stroke:#000000; stroke-linecap:butt; stroke-linejoin:round; stroke-width:4; stroke-opacity:1; fill:none" points="
  192.339,1486.45 2352.76,1486.45 
  "/>
<polyline clip-path="url(#clip100)" style="stroke:#000000; stroke-linecap:butt; stroke-linejoin:round; stroke-width:4; stroke-opacity:1; fill:none" points="
  253.483,1486.45 253.483,1467.55 
  "/>
<polyline clip-path="url(#clip100)" style="stroke:#000000; stroke-linecap:butt; stroke-linejoin:round; stroke-width:4; stroke-opacity:1; fill:none" points="
  763.015,1486.45 763.015,1467.55 
  "/>
<polyline clip-path="url(#clip100)" style="stroke:#000000; stroke-linecap:butt; stroke-linejoin:round; stroke-width:4; stroke-opacity:1; fill:none" points="
  1272.55,1486.45 1272.55,1467.55 
  "/>
<polyline clip-path="url(#clip100)" style="stroke:#000000; stroke-linecap:butt; stroke-linejoin:round; stroke-width:4; stroke-opacity:1; fill:none" points="
  1782.08,1486.45 1782.08,1467.55 
  "/>
<polyline clip-path="url(#clip100)" style="stroke:#000000; stroke-linecap:butt; stroke-linejoin:round; stroke-width:4; stroke-opacity:1; fill:none" points="
  2291.61,1486.45 2291.61,1467.55 
  "/>
<path clip-path="url(#clip100)" d="M253.483 1517.37 Q249.872 1517.37 248.043 1520.93 Q246.237 1524.47 246.237 1531.6 Q246.237 1538.71 248.043 1542.27 Q249.872 1545.82 253.483 1545.82 Q257.117 1545.82 258.922 1542.27 Q260.751 1538.71 260.751 1531.6 Q260.751 1524.47 258.922 1520.93 Q257.117 1517.37 253.483 1517.37 M253.483 1513.66 Q259.293 1513.66 262.348 1518.27 Q265.427 1522.85 265.427 1531.6 Q265.427 1540.33 262.348 1544.94 Q259.293 1549.52 253.483 1549.52 Q247.673 1549.52 244.594 1544.94 Q241.538 1540.33 241.538 1531.6 Q241.538 1522.85 244.594 1518.27 Q247.673 1513.66 253.483 1513.66 Z" fill="#000000" fill-rule="evenodd" fill-opacity="1" /><path clip-path="url(#clip100)" d="M753.397 1544.91 L761.036 1544.91 L761.036 1518.55 L752.726 1520.21 L752.726 1515.95 L760.99 1514.29 L765.665 1514.29 L765.665 1544.91 L773.304 1544.91 L773.304 1548.85 L753.397 1548.85 L753.397 1544.91 Z" fill="#000000" fill-rule="evenodd" fill-opacity="1" /><path clip-path="url(#clip100)" d="M1267.2 1544.91 L1283.52 1544.91 L1283.52 1548.85 L1261.58 1548.85 L1261.58 1544.91 Q1264.24 1542.16 1268.82 1537.53 Q1273.43 1532.88 1274.61 1531.53 Q1276.85 1529.01 1277.73 1527.27 Q1278.64 1525.51 1278.64 1523.82 Q1278.64 1521.07 1276.69 1519.33 Q1274.77 1517.6 1271.67 1517.6 Q1269.47 1517.6 1267.01 1518.36 Q1264.58 1519.13 1261.81 1520.68 L1261.81 1515.95 Q1264.63 1514.82 1267.08 1514.24 Q1269.54 1513.66 1271.58 1513.66 Q1276.95 1513.66 1280.14 1516.35 Q1283.33 1519.03 1283.33 1523.52 Q1283.33 1525.65 1282.52 1527.57 Q1281.74 1529.47 1279.63 1532.07 Q1279.05 1532.74 1275.95 1535.95 Q1272.85 1539.15 1267.2 1544.91 Z" fill="#000000" fill-rule="evenodd" fill-opacity="1" /><path clip-path="url(#clip100)" d="M1786.33 1530.21 Q1789.68 1530.93 1791.56 1533.2 Q1793.46 1535.47 1793.46 1538.8 Q1793.46 1543.92 1789.94 1546.72 Q1786.42 1549.52 1779.94 1549.52 Q1777.76 1549.52 1775.45 1549.08 Q1773.16 1548.66 1770.7 1547.81 L1770.7 1543.29 Q1772.65 1544.43 1774.96 1545.01 Q1777.28 1545.58 1779.8 1545.58 Q1784.2 1545.58 1786.49 1543.85 Q1788.8 1542.11 1788.8 1538.8 Q1788.8 1535.75 1786.65 1534.03 Q1784.52 1532.3 1780.7 1532.3 L1776.67 1532.3 L1776.67 1528.45 L1780.89 1528.45 Q1784.34 1528.45 1786.17 1527.09 Q1787.99 1525.7 1787.99 1523.11 Q1787.99 1520.45 1786.1 1519.03 Q1784.22 1517.6 1780.7 1517.6 Q1778.78 1517.6 1776.58 1518.01 Q1774.38 1518.43 1771.74 1519.31 L1771.74 1515.14 Q1774.41 1514.4 1776.72 1514.03 Q1779.06 1513.66 1781.12 1513.66 Q1786.44 1513.66 1789.54 1516.09 Q1792.65 1518.5 1792.65 1522.62 Q1792.65 1525.49 1791 1527.48 Q1789.36 1529.45 1786.33 1530.21 Z" fill="#000000" fill-rule="evenodd" fill-opacity="1" /><path clip-path="url(#clip100)" d="M2294.62 1518.36 L2282.82 1536.81 L2294.62 1536.81 L2294.62 1518.36 M2293.39 1514.29 L2299.27 1514.29 L2299.27 1536.81 L2304.2 1536.81 L2304.2 1540.7 L2299.27 1540.7 L2299.27 1548.85 L2294.62 1548.85 L2294.62 1540.7 L2279.02 1540.7 L2279.02 1536.19 L2293.39 1514.29 Z" fill="#000000" fill-rule="evenodd" fill-opacity="1" /><polyline clip-path="url(#clip102)" style="stroke:#000000; stroke-linecap:butt; stroke-linejoin:round; stroke-width:2; stroke-opacity:0.1; fill:none" points="
  192.339,1413.07 2352.76,1413.07 
  "/>
<polyline clip-path="url(#clip102)" style="stroke:#000000; stroke-linecap:butt; stroke-linejoin:round; stroke-width:2; stroke-opacity:0.1; fill:none" points="
  192.339,1130.24 2352.76,1130.24 
  "/>
<polyline clip-path="url(#clip102)" style="stroke:#000000; stroke-linecap:butt; stroke-linejoin:round; stroke-width:2; stroke-opacity:0.1; fill:none" points="
  192.339,847.407 2352.76,847.407 
  "/>
<polyline clip-path="url(#clip102)" style="stroke:#000000; stroke-linecap:butt; stroke-linejoin:round; stroke-width:2; stroke-opacity:0.1; fill:none" points="
  192.339,564.575 2352.76,564.575 
  "/>
<polyline clip-path="url(#clip102)" style="stroke:#000000; stroke-linecap:butt; stroke-linejoin:round; stroke-width:2; stroke-opacity:0.1; fill:none" points="
  192.339,281.742 2352.76,281.742 
  "/>
<polyline clip-path="url(#clip100)" style="stroke:#000000; stroke-linecap:butt; stroke-linejoin:round; stroke-width:4; stroke-opacity:1; fill:none" points="
  192.339,1486.45 192.339,47.2441 
  "/>
<polyline clip-path="url(#clip100)" style="stroke:#000000; stroke-linecap:butt; stroke-linejoin:round; stroke-width:4; stroke-opacity:1; fill:none" points="
  192.339,1413.07 211.236,1413.07 
  "/>
<polyline clip-path="url(#clip100)" style="stroke:#000000; stroke-linecap:butt; stroke-linejoin:round; stroke-width:4; stroke-opacity:1; fill:none" points="
  192.339,1130.24 211.236,1130.24 
  "/>
<polyline clip-path="url(#clip100)" style="stroke:#000000; stroke-linecap:butt; stroke-linejoin:round; stroke-width:4; stroke-opacity:1; fill:none" points="
  192.339,847.407 211.236,847.407 
  "/>
<polyline clip-path="url(#clip100)" style="stroke:#000000; stroke-linecap:butt; stroke-linejoin:round; stroke-width:4; stroke-opacity:1; fill:none" points="
  192.339,564.575 211.236,564.575 
  "/>
<polyline clip-path="url(#clip100)" style="stroke:#000000; stroke-linecap:butt; stroke-linejoin:round; stroke-width:4; stroke-opacity:1; fill:none" points="
  192.339,281.742 211.236,281.742 
  "/>
<path clip-path="url(#clip100)" d="M50.9921 1413.52 L80.6679 1413.52 L80.6679 1417.46 L50.9921 1417.46 L50.9921 1413.52 Z" fill="#000000" fill-rule="evenodd" fill-opacity="1" /><path clip-path="url(#clip100)" d="M100.76 1398.87 Q97.1493 1398.87 95.3206 1402.44 Q93.515 1405.98 93.515 1413.11 Q93.515 1420.21 95.3206 1423.78 Q97.1493 1427.32 100.76 1427.32 Q104.395 1427.32 106.2 1423.78 Q108.029 1420.21 108.029 1413.11 Q108.029 1405.98 106.2 1402.44 Q104.395 1398.87 100.76 1398.87 M100.76 1395.17 Q106.571 1395.17 109.626 1399.77 Q112.705 1404.36 112.705 1413.11 Q112.705 1421.83 109.626 1426.44 Q106.571 1431.02 100.76 1431.02 Q94.9502 1431.02 91.8715 1426.44 Q88.816 1421.83 88.816 1413.11 Q88.816 1404.36 91.8715 1399.77 Q94.9502 1395.17 100.76 1395.17 Z" fill="#000000" fill-rule="evenodd" fill-opacity="1" /><path clip-path="url(#clip100)" d="M120.922 1424.47 L125.807 1424.47 L125.807 1430.35 L120.922 1430.35 L120.922 1424.47 Z" fill="#000000" fill-rule="evenodd" fill-opacity="1" /><path clip-path="url(#clip100)" d="M140.019 1426.42 L156.339 1426.42 L156.339 1430.35 L134.394 1430.35 L134.394 1426.42 Q137.056 1423.66 141.64 1419.03 Q146.246 1414.38 147.427 1413.04 Q149.672 1410.51 150.552 1408.78 Q151.455 1407.02 151.455 1405.33 Q151.455 1402.57 149.51 1400.84 Q147.589 1399.1 144.487 1399.1 Q142.288 1399.1 139.834 1399.87 Q137.404 1400.63 134.626 1402.18 L134.626 1397.46 Q137.45 1396.32 139.904 1395.75 Q142.357 1395.17 144.394 1395.17 Q149.765 1395.17 152.959 1397.85 Q156.154 1400.54 156.154 1405.03 Q156.154 1407.16 155.343 1409.08 Q154.556 1410.98 152.45 1413.57 Q151.871 1414.24 148.769 1417.46 Q145.668 1420.65 140.019 1426.42 Z" fill="#000000" fill-rule="evenodd" fill-opacity="1" /><path clip-path="url(#clip100)" d="M99.1632 1116.04 Q95.5521 1116.04 93.7234 1119.6 Q91.9178 1123.14 91.9178 1130.27 Q91.9178 1137.38 93.7234 1140.95 Q95.5521 1144.49 99.1632 1144.49 Q102.797 1144.49 104.603 1140.95 Q106.432 1137.38 106.432 1130.27 Q106.432 1123.14 104.603 1119.6 Q102.797 1116.04 99.1632 1116.04 M99.1632 1112.33 Q104.973 1112.33 108.029 1116.94 Q111.108 1121.52 111.108 1130.27 Q111.108 1139 108.029 1143.61 Q104.973 1148.19 99.1632 1148.19 Q93.353 1148.19 90.2743 1143.61 Q87.2188 1139 87.2188 1130.27 Q87.2188 1121.52 90.2743 1116.94 Q93.353 1112.33 99.1632 1112.33 Z" fill="#000000" fill-rule="evenodd" fill-opacity="1" /><path clip-path="url(#clip100)" d="M119.325 1141.64 L124.209 1141.64 L124.209 1147.52 L119.325 1147.52 L119.325 1141.64 Z" fill="#000000" fill-rule="evenodd" fill-opacity="1" /><path clip-path="url(#clip100)" d="M144.394 1116.04 Q140.783 1116.04 138.955 1119.6 Q137.149 1123.14 137.149 1130.27 Q137.149 1137.38 138.955 1140.95 Q140.783 1144.49 144.394 1144.49 Q148.029 1144.49 149.834 1140.95 Q151.663 1137.38 151.663 1130.27 Q151.663 1123.14 149.834 1119.6 Q148.029 1116.04 144.394 1116.04 M144.394 1112.33 Q150.205 1112.33 153.26 1116.94 Q156.339 1121.52 156.339 1130.27 Q156.339 1139 153.26 1143.61 Q150.205 1148.19 144.394 1148.19 Q138.584 1148.19 135.506 1143.61 Q132.45 1139 132.45 1130.27 Q132.45 1121.52 135.506 1116.94 Q138.584 1112.33 144.394 1112.33 Z" fill="#000000" fill-rule="evenodd" fill-opacity="1" /><path clip-path="url(#clip100)" d="M100.76 833.206 Q97.1493 833.206 95.3206 836.771 Q93.515 840.312 93.515 847.442 Q93.515 854.548 95.3206 858.113 Q97.1493 861.655 100.76 861.655 Q104.395 861.655 106.2 858.113 Q108.029 854.548 108.029 847.442 Q108.029 840.312 106.2 836.771 Q104.395 833.206 100.76 833.206 M100.76 829.502 Q106.571 829.502 109.626 834.109 Q112.705 838.692 112.705 847.442 Q112.705 856.169 109.626 860.775 Q106.571 865.358 100.76 865.358 Q94.9502 865.358 91.8715 860.775 Q88.816 856.169 88.816 847.442 Q88.816 838.692 91.8715 834.109 Q94.9502 829.502 100.76 829.502 Z" fill="#000000" fill-rule="evenodd" fill-opacity="1" /><path clip-path="url(#clip100)" d="M120.922 858.808 L125.807 858.808 L125.807 864.687 L120.922 864.687 L120.922 858.808 Z" fill="#000000" fill-rule="evenodd" fill-opacity="1" /><path clip-path="url(#clip100)" d="M140.019 860.752 L156.339 860.752 L156.339 864.687 L134.394 864.687 L134.394 860.752 Q137.056 857.997 141.64 853.368 Q146.246 848.715 147.427 847.372 Q149.672 844.849 150.552 843.113 Q151.455 841.354 151.455 839.664 Q151.455 836.91 149.51 835.173 Q147.589 833.437 144.487 833.437 Q142.288 833.437 139.834 834.201 Q137.404 834.965 134.626 836.516 L134.626 831.794 Q137.45 830.66 139.904 830.081 Q142.357 829.502 144.394 829.502 Q149.765 829.502 152.959 832.187 Q156.154 834.873 156.154 839.363 Q156.154 841.493 155.343 843.414 Q154.556 845.312 152.45 847.905 Q151.871 848.576 148.769 851.794 Q145.668 854.988 140.019 860.752 Z" fill="#000000" fill-rule="evenodd" fill-opacity="1" /><path clip-path="url(#clip100)" d="M98.6771 550.373 Q95.066 550.373 93.2373 553.938 Q91.4317 557.48 91.4317 564.609 Q91.4317 571.716 93.2373 575.28 Q95.066 578.822 98.6771 578.822 Q102.311 578.822 104.117 575.28 Q105.946 571.716 105.946 564.609 Q105.946 557.48 104.117 553.938 Q102.311 550.373 98.6771 550.373 M98.6771 546.67 Q104.487 546.67 107.543 551.276 Q110.621 555.859 110.621 564.609 Q110.621 573.336 107.543 577.943 Q104.487 582.526 98.6771 582.526 Q92.8669 582.526 89.7882 577.943 Q86.7327 573.336 86.7327 564.609 Q86.7327 555.859 89.7882 551.276 Q92.8669 546.67 98.6771 546.67 Z" fill="#000000" fill-rule="evenodd" fill-opacity="1" /><path clip-path="url(#clip100)" d="M118.839 575.975 L123.723 575.975 L123.723 581.855 L118.839 581.855 L118.839 575.975 Z" fill="#000000" fill-rule="evenodd" fill-opacity="1" /><path clip-path="url(#clip100)" d="M146.756 551.369 L134.95 569.818 L146.756 569.818 L146.756 551.369 M145.529 547.295 L151.408 547.295 L151.408 569.818 L156.339 569.818 L156.339 573.706 L151.408 573.706 L151.408 581.855 L146.756 581.855 L146.756 573.706 L131.154 573.706 L131.154 569.193 L145.529 547.295 Z" fill="#000000" fill-rule="evenodd" fill-opacity="1" /><path clip-path="url(#clip100)" d="M99.0011 267.541 Q95.39 267.541 93.5613 271.105 Q91.7558 274.647 91.7558 281.777 Q91.7558 288.883 93.5613 292.448 Q95.39 295.989 99.0011 295.989 Q102.635 295.989 104.441 292.448 Q106.27 288.883 106.27 281.777 Q106.27 274.647 104.441 271.105 Q102.635 267.541 99.0011 267.541 M99.0011 263.837 Q104.811 263.837 107.867 268.443 Q110.946 273.027 110.946 281.777 Q110.946 290.503 107.867 295.11 Q104.811 299.693 99.0011 299.693 Q93.191 299.693 90.1123 295.11 Q87.0567 290.503 87.0567 281.777 Q87.0567 273.027 90.1123 268.443 Q93.191 263.837 99.0011 263.837 Z" fill="#000000" fill-rule="evenodd" fill-opacity="1" /><path clip-path="url(#clip100)" d="M119.163 293.142 L124.047 293.142 L124.047 299.022 L119.163 299.022 L119.163 293.142 Z" fill="#000000" fill-rule="evenodd" fill-opacity="1" /><path clip-path="url(#clip100)" d="M144.811 279.878 Q141.663 279.878 139.811 282.031 Q137.982 284.184 137.982 287.934 Q137.982 291.661 139.811 293.837 Q141.663 295.989 144.811 295.989 Q147.959 295.989 149.788 293.837 Q151.64 291.661 151.64 287.934 Q151.64 284.184 149.788 282.031 Q147.959 279.878 144.811 279.878 M154.093 265.226 L154.093 269.485 Q152.334 268.652 150.529 268.212 Q148.746 267.772 146.987 267.772 Q142.357 267.772 139.904 270.897 Q137.473 274.022 137.126 280.341 Q138.492 278.328 140.552 277.263 Q142.612 276.175 145.089 276.175 Q150.297 276.175 153.306 279.346 Q156.339 282.494 156.339 287.934 Q156.339 293.258 153.191 296.476 Q150.043 299.693 144.811 299.693 Q138.816 299.693 135.644 295.11 Q132.473 290.503 132.473 281.777 Q132.473 273.582 136.362 268.721 Q140.251 263.837 146.802 263.837 Q148.561 263.837 150.343 264.184 Q152.149 264.531 154.093 265.226 Z" fill="#000000" fill-rule="evenodd" fill-opacity="1" /><polyline clip-path="url(#clip102)" style="stroke:#009af9; stroke-linecap:butt; stroke-linejoin:round; stroke-width:4; stroke-opacity:1; fill:none" points="
  253.483,1130.24 273.864,1116.79 294.245,1102.55 314.627,1087.48 335.008,1071.58 355.389,1054.83 375.77,1037.22 396.152,1018.76 416.533,999.436 436.914,979.256 
  457.296,958.227 477.677,936.363 498.058,913.679 518.439,890.2 538.821,865.954 559.202,840.974 579.583,815.299 599.965,788.976 620.346,762.053 640.727,734.588 
  661.109,706.643 681.49,678.286 701.871,649.588 722.252,620.629 742.634,591.492 763.015,562.263 783.396,533.034 803.778,503.901 824.159,474.962 844.54,446.319 
  864.921,418.075 885.303,390.335 905.684,363.206 926.065,336.793 946.447,311.203 966.828,286.541 987.209,262.909 1007.59,240.409 1027.97,219.138 1048.35,199.189 
  1068.73,180.652 1089.12,163.609 1109.5,148.139 1129.88,134.314 1150.26,122.197 1170.64,111.845 1191.02,103.307 1211.4,96.624 1231.78,91.8274 1252.17,88.9402 
  1272.55,87.9763 1292.93,88.9402 1313.31,91.8274 1333.69,96.624 1354.07,103.307 1374.45,111.845 1394.84,122.197 1415.22,134.314 1435.6,148.139 1455.98,163.609 
  1476.36,180.652 1496.74,199.189 1517.12,219.138 1537.5,240.409 1557.89,262.909 1578.27,286.541 1598.65,311.203 1619.03,336.793 1639.41,363.206 1659.79,390.335 
  1680.17,418.075 1700.55,446.319 1720.94,474.962 1741.32,503.901 1761.7,533.034 1782.08,562.263 1802.46,591.492 1822.84,620.629 1843.22,649.588 1863.6,678.286 
  1883.99,706.643 1904.37,734.588 1924.75,762.053 1945.13,788.976 1965.51,815.299 1985.89,840.974 2006.27,865.954 2026.66,890.2 2047.04,913.679 2067.42,936.363 
  2087.8,958.227 2108.18,979.256 2128.56,999.436 2148.94,1018.76 2169.32,1037.22 2189.71,1054.83 2210.09,1071.58 2230.47,1087.48 2250.85,1102.55 2271.23,1116.79 
  2291.61,1130.24 
  "/>
<polyline clip-path="url(#clip102)" style="stroke:#e26f46; stroke-linecap:butt; stroke-linejoin:round; stroke-width:4; stroke-opacity:1; fill:none" points="
  253.483,989.455 273.864,980.9 294.245,972.143 314.627,963.213 335.008,954.141 355.389,944.96 375.77,935.708 396.152,926.426 416.533,917.158 436.914,907.951 
  457.296,898.854 477.677,889.921 498.058,881.205 518.439,872.764 538.821,864.657 559.202,856.944 579.583,849.686 599.965,842.944 620.346,836.78 640.727,831.255 
  661.109,826.429 681.49,822.362 701.871,819.11 722.252,816.726 742.634,815.262 763.015,814.764 783.396,815.275 803.778,816.834 824.159,819.471 844.54,823.215 
  864.921,828.085 885.303,834.096 905.684,841.254 926.065,849.559 946.447,859.002 966.828,869.57 987.209,881.237 1007.59,893.974 1027.97,907.743 1048.35,922.497 
  1068.73,938.183 1089.12,954.741 1109.5,972.105 1129.88,990.201 1150.26,1008.95 1170.64,1028.27 1191.02,1048.08 1211.4,1068.27 1231.78,1088.76 1252.17,1109.45 
  1272.55,1130.24 1292.93,1151.03 1313.31,1171.72 1333.69,1192.21 1354.07,1212.4 1374.45,1232.21 1394.84,1251.53 1415.22,1270.28 1435.6,1288.37 1455.98,1305.74 
  1476.36,1322.3 1496.74,1337.98 1517.12,1352.74 1537.5,1366.51 1557.89,1379.24 1578.27,1390.91 1598.65,1401.48 1619.03,1410.92 1639.41,1419.23 1659.79,1426.38 
  1680.17,1432.39 1700.55,1437.26 1720.94,1441.01 1741.32,1443.65 1761.7,1445.2 1782.08,1445.72 1802.46,1445.22 1822.84,1443.75 1843.22,1441.37 1863.6,1438.12 
  1883.99,1434.05 1904.37,1429.22 1924.75,1423.7 1945.13,1417.54 1965.51,1410.79 1985.89,1403.54 2006.27,1395.82 2026.66,1387.72 2047.04,1379.27 2067.42,1370.56 
  2087.8,1361.63 2108.18,1352.53 2128.56,1343.32 2148.94,1334.05 2169.32,1324.77 2189.71,1315.52 2210.09,1306.34 2230.47,1297.27 2250.85,1288.34 2271.23,1279.58 
  2291.61,1271.02 
  "/>
<path clip-path="url(#clip100)" d="
M1979.63 250.738 L2280.74 250.738 L2280.74 95.2176 L1979.63 95.2176  Z
  " fill="#ffffff" fill-rule="evenodd" fill-opacity="1"/>
<polyline clip-path="url(#clip100)" style="stroke:#000000; stroke-linecap:butt; stroke-linejoin:round; stroke-width:4; stroke-opacity:1; fill:none" points="
  1979.63,250.738 2280.74,250.738 2280.74,95.2176 1979.63,95.2176 1979.63,250.738 
  "/>
<polyline clip-path="url(#clip100)" style="stroke:#009af9; stroke-linecap:butt; stroke-linejoin:round; stroke-width:4; stroke-opacity:1; fill:none" points="
  2003.64,147.058 2147.66,147.058 
  "/>
<path clip-path="url(#clip100)" d="M2204.28 160.217 L2204.28 164.338 L2190.39 164.338 L2190.39 160.217 Q2194.49 157.972 2196.78 154.129 Q2199.08 150.287 2199.08 145.611 Q2199.08 140.055 2196.02 136.699 Q2192.96 133.342 2187.96 133.342 Q2182.96 133.342 2179.89 136.722 Q2176.83 140.078 2176.83 145.611 Q2176.83 150.287 2179.12 154.129 Q2181.44 157.972 2185.56 160.217 L2185.56 164.338 L2171.67 164.338 L2171.67 160.217 L2179.05 160.217 Q2175.4 157 2173.71 153.551 Q2172.04 150.102 2172.04 145.842 Q2172.04 138.481 2176.48 133.921 Q2180.9 129.361 2187.96 129.361 Q2194.98 129.361 2199.45 133.921 Q2203.89 138.458 2203.89 145.611 Q2203.89 150.102 2202.25 153.527 Q2200.6 156.953 2196.88 160.217 L2204.28 160.217 Z" fill="#000000" fill-rule="evenodd" fill-opacity="1" /><path clip-path="url(#clip100)" d="M2232.11 138.412 L2222.73 151.027 L2232.59 164.338 L2227.57 164.338 L2220.02 154.152 L2212.48 164.338 L2207.46 164.338 L2217.52 150.773 L2208.31 138.412 L2213.33 138.412 L2220.21 147.648 L2227.08 138.412 L2232.11 138.412 Z" fill="#000000" fill-rule="evenodd" fill-opacity="1" /><polyline clip-path="url(#clip100)" style="stroke:#e26f46; stroke-linecap:butt; stroke-linejoin:round; stroke-width:4; stroke-opacity:1; fill:none" points="
  2003.64,198.898 2147.66,198.898 
  "/>
<path clip-path="url(#clip100)" d="M2204.28 212.057 L2204.28 216.178 L2190.39 216.178 L2190.39 212.057 Q2194.49 209.812 2196.78 205.969 Q2199.08 202.127 2199.08 197.451 Q2199.08 191.895 2196.02 188.539 Q2192.96 185.182 2187.96 185.182 Q2182.96 185.182 2179.89 188.562 Q2176.83 191.918 2176.83 197.451 Q2176.83 202.127 2179.12 205.969 Q2181.44 209.812 2185.56 212.057 L2185.56 216.178 L2171.67 216.178 L2171.67 212.057 L2179.05 212.057 Q2175.4 208.84 2173.71 205.391 Q2172.04 201.942 2172.04 197.682 Q2172.04 190.321 2176.48 185.761 Q2180.9 181.201 2187.96 181.201 Q2194.98 181.201 2199.45 185.761 Q2203.89 190.298 2203.89 197.451 Q2203.89 201.942 2202.25 205.367 Q2200.6 208.793 2196.88 212.057 L2204.28 212.057 Z" fill="#000000" fill-rule="evenodd" fill-opacity="1" /><path clip-path="url(#clip100)" d="M2221.34 218.585 Q2219.54 223.215 2217.83 224.627 Q2216.11 226.039 2213.24 226.039 L2209.84 226.039 L2209.84 222.474 L2212.34 222.474 Q2214.1 222.474 2215.07 221.64 Q2216.04 220.807 2217.22 217.705 L2217.99 215.761 L2207.5 190.252 L2212.02 190.252 L2220.12 210.529 L2228.22 190.252 L2232.73 190.252 L2221.34 218.585 Z" fill="#000000" fill-rule="evenodd" fill-opacity="1" /></svg>
