<?xml version="1.0" encoding="utf-8"?>
<svg xmlns="http://www.w3.org/2000/svg" xmlns:xlink="http://www.w3.org/1999/xlink" width="600" height="400" viewBox="0 0 2400 1600">
<defs>
  <clipPath id="clip290">
    <rect x="0" y="0" width="2400" height="1600"/>
  </clipPath>
</defs>
<path clip-path="url(#clip290)" d="
M0 1600 L2400 1600 L2400 0 L0 0  Z
  " fill="#ffffff" fill-rule="evenodd" fill-opacity="1"/>
<defs>
  <clipPath id="clip291">
    <rect x="480" y="0" width="1681" height="1600"/>
  </clipPath>
</defs>
<path clip-path="url(#clip290)" d="
M255.607 1423.18 L2352.76 1423.18 L2352.76 47.2441 L255.607 47.2441  Z
  " fill="#ffffff" fill-rule="evenodd" fill-opacity="1"/>
<defs>
  <clipPath id="clip292">
    <rect x="255" y="47" width="2098" height="1377"/>
  </clipPath>
</defs>
<polyline clip-path="url(#clip290)" style="stroke:#000000; stroke-linecap:butt; stroke-linejoin:round; stroke-width:4; stroke-opacity:1; fill:none" points="
  255.607,1423.18 2352.76,1423.18 
  "/>
<polyline clip-path="url(#clip290)" style="stroke:#000000; stroke-linecap:butt; stroke-linejoin:round; stroke-width:4; stroke-opacity:1; fill:none" points="
  314.96,1423.18 314.96,1404.28 
  "/>
<polyline clip-path="url(#clip290)" style="stroke:#000000; stroke-linecap:butt; stroke-linejoin:round; stroke-width:4; stroke-opacity:1; fill:none" points="
  809.571,1423.18 809.571,1404.28 
  "/>
<polyline clip-path="url(#clip290)" style="stroke:#000000; stroke-linecap:butt; stroke-linejoin:round; stroke-width:4; stroke-opacity:1; fill:none" points="
  1304.18,1423.18 1304.18,1404.28 
  "/>
<polyline clip-path="url(#clip290)" style="stroke:#000000; stroke-linecap:butt; stroke-linejoin:round; stroke-width:4; stroke-opacity:1; fill:none" points="
  1798.79,1423.18 1798.79,1404.28 
  "/>
<polyline clip-path="url(#clip290)" style="stroke:#000000; stroke-linecap:butt; stroke-linejoin:round; stroke-width:4; stroke-opacity:1; fill:none" points="
  2293.4,1423.18 2293.4,1404.28 
  "/>
<path clip-path="url(#clip290)" d="M314.96 1454.1 Q311.349 1454.1 309.52 1457.66 Q307.715 1461.2 307.715 1468.33 Q307.715 1475.44 309.52 1479.01 Q311.349 1482.55 314.96 1482.55 Q318.594 1482.55 320.4 1479.01 Q322.229 1475.44 322.229 1468.33 Q322.229 1461.2 320.4 1457.66 Q318.594 1454.1 314.96 1454.1 M314.96 1450.39 Q320.77 1450.39 323.826 1455 Q326.904 1459.58 326.904 1468.33 Q326.904 1477.06 323.826 1481.67 Q320.77 1486.25 314.96 1486.25 Q309.15 1486.25 306.071 1481.67 Q303.016 1477.06 303.016 1468.33 Q303.016 1459.58 306.071 1455 Q309.15 1450.39 314.96 1450.39 Z" fill="#000000" fill-rule="evenodd" fill-opacity="1" /><path clip-path="url(#clip290)" d="M799.953 1481.64 L807.592 1481.64 L807.592 1455.28 L799.281 1456.95 L799.281 1452.69 L807.545 1451.02 L812.221 1451.02 L812.221 1481.64 L819.86 1481.64 L819.86 1485.58 L799.953 1485.58 L799.953 1481.64 Z" fill="#000000" fill-rule="evenodd" fill-opacity="1" /><path clip-path="url(#clip290)" d="M1298.83 1481.64 L1315.15 1481.64 L1315.15 1485.58 L1293.21 1485.58 L1293.21 1481.64 Q1295.87 1478.89 1300.45 1474.26 Q1305.06 1469.61 1306.24 1468.27 Q1308.49 1465.74 1309.37 1464.01 Q1310.27 1462.25 1310.27 1460.56 Q1310.27 1457.8 1308.32 1456.07 Q1306.4 1454.33 1303.3 1454.33 Q1301.1 1454.33 1298.65 1455.09 Q1296.22 1455.86 1293.44 1457.41 L1293.44 1452.69 Q1296.26 1451.55 1298.72 1450.97 Q1301.17 1450.39 1303.21 1450.39 Q1308.58 1450.39 1311.77 1453.08 Q1314.97 1455.77 1314.97 1460.26 Q1314.97 1462.39 1314.16 1464.31 Q1313.37 1466.2 1311.26 1468.8 Q1310.69 1469.47 1307.58 1472.69 Q1304.48 1475.88 1298.83 1481.64 Z" fill="#000000" fill-rule="evenodd" fill-opacity="1" /><path clip-path="url(#clip290)" d="M1803.04 1466.95 Q1806.4 1467.66 1808.27 1469.93 Q1810.17 1472.2 1810.17 1475.53 Q1810.17 1480.65 1806.65 1483.45 Q1803.13 1486.25 1796.65 1486.25 Q1794.47 1486.25 1792.16 1485.81 Q1789.87 1485.39 1787.41 1484.54 L1787.41 1480.02 Q1789.36 1481.16 1791.67 1481.74 Q1793.99 1482.32 1796.51 1482.32 Q1800.91 1482.32 1803.2 1480.58 Q1805.52 1478.84 1805.52 1475.53 Q1805.52 1472.48 1803.36 1470.77 Q1801.23 1469.03 1797.41 1469.03 L1793.39 1469.03 L1793.39 1465.19 L1797.6 1465.19 Q1801.05 1465.19 1802.88 1463.82 Q1804.71 1462.43 1804.71 1459.84 Q1804.71 1457.18 1802.81 1455.77 Q1800.93 1454.33 1797.41 1454.33 Q1795.49 1454.33 1793.29 1454.75 Q1791.1 1455.16 1788.46 1456.04 L1788.46 1451.88 Q1791.12 1451.14 1793.43 1450.77 Q1795.77 1450.39 1797.83 1450.39 Q1803.16 1450.39 1806.26 1452.83 Q1809.36 1455.23 1809.36 1459.35 Q1809.36 1462.22 1807.72 1464.21 Q1806.07 1466.18 1803.04 1466.95 Z" fill="#000000" fill-rule="evenodd" fill-opacity="1" /><path clip-path="url(#clip290)" d="M2296.41 1455.09 L2284.61 1473.54 L2296.41 1473.54 L2296.41 1455.09 M2295.19 1451.02 L2301.06 1451.02 L2301.06 1473.54 L2306 1473.54 L2306 1477.43 L2301.06 1477.43 L2301.06 1485.58 L2296.41 1485.58 L2296.41 1477.43 L2280.81 1477.43 L2280.81 1472.92 L2295.19 1451.02 Z" fill="#000000" fill-rule="evenodd" fill-opacity="1" /><path clip-path="url(#clip290)" d="M1170.98 1522.27 L1170.98 1532.4 L1183.04 1532.4 L1183.04 1536.95 L1170.98 1536.95 L1170.98 1556.3 Q1170.98 1560.66 1172.16 1561.9 Q1173.37 1563.14 1177.03 1563.14 L1183.04 1563.14 L1183.04 1568.04 L1177.03 1568.04 Q1170.25 1568.04 1167.67 1565.53 Q1165.09 1562.98 1165.09 1556.3 L1165.09 1536.95 L1160.79 1536.95 L1160.79 1532.4 L1165.09 1532.4 L1165.09 1522.27 L1170.98 1522.27 Z" fill="#000000" fill-rule="evenodd" fill-opacity="1" /><path clip-path="url(#clip290)" d="M1190.74 1532.4 L1196.6 1532.4 L1196.6 1568.04 L1190.74 1568.04 L1190.74 1532.4 M1190.74 1518.52 L1196.6 1518.52 L1196.6 1525.93 L1190.74 1525.93 L1190.74 1518.52 Z" fill="#000000" fill-rule="evenodd" fill-opacity="1" /><path clip-path="url(#clip290)" d="M1236.61 1539.24 Q1238.81 1535.29 1241.86 1533.41 Q1244.92 1531.54 1249.05 1531.54 Q1254.62 1531.54 1257.65 1535.45 Q1260.67 1539.33 1260.67 1546.53 L1260.67 1568.04 L1254.78 1568.04 L1254.78 1546.72 Q1254.78 1541.59 1252.97 1539.11 Q1251.16 1536.63 1247.43 1536.63 Q1242.88 1536.63 1240.24 1539.65 Q1237.6 1542.68 1237.6 1547.9 L1237.6 1568.04 L1231.71 1568.04 L1231.71 1546.72 Q1231.71 1541.56 1229.89 1539.11 Q1228.08 1536.63 1224.29 1536.63 Q1219.8 1536.63 1217.16 1539.68 Q1214.52 1542.71 1214.52 1547.9 L1214.52 1568.04 L1208.63 1568.04 L1208.63 1532.4 L1214.52 1532.4 L1214.52 1537.93 Q1216.53 1534.66 1219.33 1533.1 Q1222.13 1531.54 1225.98 1531.54 Q1229.86 1531.54 1232.57 1533.51 Q1235.3 1535.48 1236.61 1539.24 Z" fill="#000000" fill-rule="evenodd" fill-opacity="1" /><path clip-path="url(#clip290)" d="M1302.84 1548.76 L1302.84 1551.62 L1275.92 1551.62 Q1276.3 1557.67 1279.55 1560.85 Q1282.82 1564 1288.65 1564 Q1292.02 1564 1295.17 1563.17 Q1298.36 1562.35 1301.48 1560.69 L1301.48 1566.23 Q1298.32 1567.57 1295.01 1568.27 Q1291.7 1568.97 1288.3 1568.97 Q1279.77 1568.97 1274.77 1564 Q1269.81 1559.04 1269.81 1550.57 Q1269.81 1541.82 1274.52 1536.69 Q1279.26 1531.54 1287.28 1531.54 Q1294.47 1531.54 1298.64 1536.18 Q1302.84 1540.8 1302.84 1548.76 M1296.99 1547.04 Q1296.92 1542.23 1294.28 1539.37 Q1291.67 1536.5 1287.34 1536.5 Q1282.44 1536.5 1279.48 1539.27 Q1276.55 1542.04 1276.11 1547.07 L1296.99 1547.04 Z" fill="#000000" fill-rule="evenodd" fill-opacity="1" /><path clip-path="url(#clip290)" d="M1347.25 1518.58 Q1342.98 1525.9 1340.91 1533.06 Q1338.84 1540.23 1338.84 1547.58 Q1338.84 1554.93 1340.91 1562.16 Q1343.01 1569.35 1347.25 1576.64 L1342.15 1576.64 Q1337.38 1569.16 1334.99 1561.93 Q1332.64 1554.71 1332.64 1547.58 Q1332.64 1540.48 1334.99 1533.29 Q1337.35 1526.09 1342.15 1518.58 L1347.25 1518.58 Z" fill="#000000" fill-rule="evenodd" fill-opacity="1" /><path clip-path="url(#clip290)" d="M1388.24 1546.53 L1388.24 1568.04 L1382.38 1568.04 L1382.38 1546.72 Q1382.38 1541.66 1380.41 1539.14 Q1378.44 1536.63 1374.49 1536.63 Q1369.75 1536.63 1367.01 1539.65 Q1364.27 1542.68 1364.27 1547.9 L1364.27 1568.04 L1358.39 1568.04 L1358.39 1532.4 L1364.27 1532.4 L1364.27 1537.93 Q1366.37 1534.72 1369.21 1533.13 Q1372.07 1531.54 1375.8 1531.54 Q1381.94 1531.54 1385.09 1535.36 Q1388.24 1539.14 1388.24 1546.53 Z" fill="#000000" fill-rule="evenodd" fill-opacity="1" /><path clip-path="url(#clip290)" d="M1422.65 1533.45 L1422.65 1538.98 Q1420.16 1537.71 1417.49 1537.07 Q1414.82 1536.44 1411.95 1536.44 Q1407.59 1536.44 1405.4 1537.77 Q1403.23 1539.11 1403.23 1541.79 Q1403.23 1543.82 1404.79 1545 Q1406.35 1546.15 1411.06 1547.2 L1413.07 1547.64 Q1419.31 1548.98 1421.92 1551.43 Q1424.56 1553.85 1424.56 1558.21 Q1424.56 1563.17 1420.61 1566.07 Q1416.7 1568.97 1409.82 1568.97 Q1406.96 1568.97 1403.84 1568.39 Q1400.75 1567.85 1397.31 1566.74 L1397.31 1560.69 Q1400.56 1562.38 1403.71 1563.24 Q1406.86 1564.07 1409.95 1564.07 Q1414.09 1564.07 1416.31 1562.66 Q1418.54 1561.23 1418.54 1558.65 Q1418.54 1556.27 1416.92 1554.99 Q1415.33 1553.72 1409.88 1552.54 L1407.85 1552.07 Q1402.4 1550.92 1399.99 1548.56 Q1397.57 1546.18 1397.57 1542.04 Q1397.57 1537.01 1401.13 1534.27 Q1404.7 1531.54 1411.25 1531.54 Q1414.5 1531.54 1417.36 1532.01 Q1420.23 1532.49 1422.65 1533.45 Z" fill="#000000" fill-rule="evenodd" fill-opacity="1" /><path clip-path="url(#clip290)" d="M1432.96 1518.58 L1438.05 1518.58 Q1442.83 1526.09 1445.18 1533.29 Q1447.57 1540.48 1447.57 1547.58 Q1447.57 1554.71 1445.18 1561.93 Q1442.83 1569.16 1438.05 1576.64 L1432.96 1576.64 Q1437.19 1569.35 1439.26 1562.16 Q1441.36 1554.93 1441.36 1547.58 Q1441.36 1540.23 1439.26 1533.06 Q1437.19 1525.9 1432.96 1518.58 Z" fill="#000000" fill-rule="evenodd" fill-opacity="1" /><polyline clip-path="url(#clip290)" style="stroke:#000000; stroke-linecap:butt; stroke-linejoin:round; stroke-width:4; stroke-opacity:1; fill:none" points="
  255.607,1423.18 255.607,47.2441 
  "/>
<polyline clip-path="url(#clip290)" style="stroke:#000000; stroke-linecap:butt; stroke-linejoin:round; stroke-width:4; stroke-opacity:1; fill:none" points="
  255.607,1353.03 274.504,1353.03 
  "/>
<polyline clip-path="url(#clip290)" style="stroke:#000000; stroke-linecap:butt; stroke-linejoin:round; stroke-width:4; stroke-opacity:1; fill:none" points="
  255.607,1082.63 274.504,1082.63 
  "/>
<polyline clip-path="url(#clip290)" style="stroke:#000000; stroke-linecap:butt; stroke-linejoin:round; stroke-width:4; stroke-opacity:1; fill:none" points="
  255.607,812.232 274.504,812.232 
  "/>
<polyline clip-path="url(#clip290)" style="stroke:#000000; stroke-linecap:butt; stroke-linejoin:round; stroke-width:4; stroke-opacity:1; fill:none" points="
  255.607,541.832 274.504,541.832 
  "/>
<polyline clip-path="url(#clip290)" style="stroke:#000000; stroke-linecap:butt; stroke-linejoin:round; stroke-width:4; stroke-opacity:1; fill:none" points="
  255.607,271.433 274.504,271.433 
  "/>
<path clip-path="url(#clip290)" d="M114.26 1353.48 L143.936 1353.48 L143.936 1357.42 L114.26 1357.42 L114.26 1353.48 Z" fill="#000000" fill-rule="evenodd" fill-opacity="1" /><path clip-path="url(#clip290)" d="M164.028 1338.83 Q160.417 1338.83 158.589 1342.39 Q156.783 1345.94 156.783 1353.06 Q156.783 1360.17 158.589 1363.74 Q160.417 1367.28 164.028 1367.28 Q167.663 1367.28 169.468 1363.74 Q171.297 1360.17 171.297 1353.06 Q171.297 1345.94 169.468 1342.39 Q167.663 1338.83 164.028 1338.83 M164.028 1335.13 Q169.839 1335.13 172.894 1339.73 Q175.973 1344.31 175.973 1353.06 Q175.973 1361.79 172.894 1366.4 Q169.839 1370.98 164.028 1370.98 Q158.218 1370.98 155.14 1366.4 Q152.084 1361.79 152.084 1353.06 Q152.084 1344.31 155.14 1339.73 Q158.218 1335.13 164.028 1335.13 Z" fill="#000000" fill-rule="evenodd" fill-opacity="1" /><path clip-path="url(#clip290)" d="M184.19 1364.43 L189.075 1364.43 L189.075 1370.31 L184.19 1370.31 L184.19 1364.43 Z" fill="#000000" fill-rule="evenodd" fill-opacity="1" /><path clip-path="url(#clip290)" d="M203.287 1366.37 L219.607 1366.37 L219.607 1370.31 L197.662 1370.31 L197.662 1366.37 Q200.325 1363.62 204.908 1358.99 Q209.514 1354.34 210.695 1353 Q212.94 1350.47 213.82 1348.74 Q214.723 1346.98 214.723 1345.29 Q214.723 1342.53 212.778 1340.8 Q210.857 1339.06 207.755 1339.06 Q205.556 1339.06 203.102 1339.82 Q200.672 1340.59 197.894 1342.14 L197.894 1337.42 Q200.718 1336.28 203.172 1335.7 Q205.625 1335.13 207.662 1335.13 Q213.033 1335.13 216.227 1337.81 Q219.422 1340.5 219.422 1344.99 Q219.422 1347.12 218.611 1349.04 Q217.824 1350.94 215.718 1353.53 Q215.139 1354.2 212.037 1357.42 Q208.936 1360.61 203.287 1366.37 Z" fill="#000000" fill-rule="evenodd" fill-opacity="1" /><path clip-path="url(#clip290)" d="M162.431 1068.43 Q158.82 1068.43 156.991 1071.99 Q155.186 1075.54 155.186 1082.67 Q155.186 1089.77 156.991 1093.34 Q158.82 1096.88 162.431 1096.88 Q166.065 1096.88 167.871 1093.34 Q169.7 1089.77 169.7 1082.67 Q169.7 1075.54 167.871 1071.99 Q166.065 1068.43 162.431 1068.43 M162.431 1064.73 Q168.241 1064.73 171.297 1069.33 Q174.376 1073.92 174.376 1082.67 Q174.376 1091.39 171.297 1096 Q168.241 1100.58 162.431 1100.58 Q156.621 1100.58 153.542 1096 Q150.487 1091.39 150.487 1082.67 Q150.487 1073.92 153.542 1069.33 Q156.621 1064.73 162.431 1064.73 Z" fill="#000000" fill-rule="evenodd" fill-opacity="1" /><path clip-path="url(#clip290)" d="M182.593 1094.03 L187.477 1094.03 L187.477 1099.91 L182.593 1099.91 L182.593 1094.03 Z" fill="#000000" fill-rule="evenodd" fill-opacity="1" /><path clip-path="url(#clip290)" d="M207.662 1068.43 Q204.051 1068.43 202.223 1071.99 Q200.417 1075.54 200.417 1082.67 Q200.417 1089.77 202.223 1093.34 Q204.051 1096.88 207.662 1096.88 Q211.297 1096.88 213.102 1093.34 Q214.931 1089.77 214.931 1082.67 Q214.931 1075.54 213.102 1071.99 Q211.297 1068.43 207.662 1068.43 M207.662 1064.73 Q213.473 1064.73 216.528 1069.33 Q219.607 1073.92 219.607 1082.67 Q219.607 1091.39 216.528 1096 Q213.473 1100.58 207.662 1100.58 Q201.852 1100.58 198.774 1096 Q195.718 1091.39 195.718 1082.67 Q195.718 1073.92 198.774 1069.33 Q201.852 1064.73 207.662 1064.73 Z" fill="#000000" fill-rule="evenodd" fill-opacity="1" /><path clip-path="url(#clip290)" d="M164.028 798.03 Q160.417 798.03 158.589 801.595 Q156.783 805.137 156.783 812.266 Q156.783 819.373 158.589 822.938 Q160.417 826.479 164.028 826.479 Q167.663 826.479 169.468 822.938 Q171.297 819.373 171.297 812.266 Q171.297 805.137 169.468 801.595 Q167.663 798.03 164.028 798.03 M164.028 794.327 Q169.839 794.327 172.894 798.933 Q175.973 803.516 175.973 812.266 Q175.973 820.993 172.894 825.6 Q169.839 830.183 164.028 830.183 Q158.218 830.183 155.14 825.6 Q152.084 820.993 152.084 812.266 Q152.084 803.516 155.14 798.933 Q158.218 794.327 164.028 794.327 Z" fill="#000000" fill-rule="evenodd" fill-opacity="1" /><path clip-path="url(#clip290)" d="M184.19 823.632 L189.075 823.632 L189.075 829.512 L184.19 829.512 L184.19 823.632 Z" fill="#000000" fill-rule="evenodd" fill-opacity="1" /><path clip-path="url(#clip290)" d="M203.287 825.576 L219.607 825.576 L219.607 829.512 L197.662 829.512 L197.662 825.576 Q200.325 822.822 204.908 818.192 Q209.514 813.54 210.695 812.197 Q212.94 809.674 213.82 807.938 Q214.723 806.178 214.723 804.489 Q214.723 801.734 212.778 799.998 Q210.857 798.262 207.755 798.262 Q205.556 798.262 203.102 799.026 Q200.672 799.79 197.894 801.341 L197.894 796.618 Q200.718 795.484 203.172 794.905 Q205.625 794.327 207.662 794.327 Q213.033 794.327 216.227 797.012 Q219.422 799.697 219.422 804.188 Q219.422 806.317 218.611 808.239 Q217.824 810.137 215.718 812.729 Q215.139 813.401 212.037 816.618 Q208.936 819.813 203.287 825.576 Z" fill="#000000" fill-rule="evenodd" fill-opacity="1" /><path clip-path="url(#clip290)" d="M161.945 527.631 Q158.334 527.631 156.505 531.196 Q154.7 534.738 154.7 541.867 Q154.7 548.974 156.505 552.538 Q158.334 556.08 161.945 556.08 Q165.579 556.08 167.385 552.538 Q169.214 548.974 169.214 541.867 Q169.214 534.738 167.385 531.196 Q165.579 527.631 161.945 527.631 M161.945 523.927 Q167.755 523.927 170.811 528.534 Q173.889 533.117 173.889 541.867 Q173.889 550.594 170.811 555.2 Q167.755 559.784 161.945 559.784 Q156.135 559.784 153.056 555.2 Q150.001 550.594 150.001 541.867 Q150.001 533.117 153.056 528.534 Q156.135 523.927 161.945 523.927 Z" fill="#000000" fill-rule="evenodd" fill-opacity="1" /><path clip-path="url(#clip290)" d="M182.107 553.233 L186.991 553.233 L186.991 559.112 L182.107 559.112 L182.107 553.233 Z" fill="#000000" fill-rule="evenodd" fill-opacity="1" /><path clip-path="url(#clip290)" d="M210.024 528.626 L198.218 547.075 L210.024 547.075 L210.024 528.626 M208.797 524.552 L214.676 524.552 L214.676 547.075 L219.607 547.075 L219.607 550.964 L214.676 550.964 L214.676 559.112 L210.024 559.112 L210.024 550.964 L194.422 550.964 L194.422 546.45 L208.797 524.552 Z" fill="#000000" fill-rule="evenodd" fill-opacity="1" /><path clip-path="url(#clip290)" d="M162.269 257.232 Q158.658 257.232 156.829 260.797 Q155.024 264.338 155.024 271.468 Q155.024 278.574 156.829 282.139 Q158.658 285.681 162.269 285.681 Q165.903 285.681 167.709 282.139 Q169.538 278.574 169.538 271.468 Q169.538 264.338 167.709 260.797 Q165.903 257.232 162.269 257.232 M162.269 253.528 Q168.079 253.528 171.135 258.135 Q174.214 262.718 174.214 271.468 Q174.214 280.195 171.135 284.801 Q168.079 289.385 162.269 289.385 Q156.459 289.385 153.38 284.801 Q150.325 280.195 150.325 271.468 Q150.325 262.718 153.38 258.135 Q156.459 253.528 162.269 253.528 Z" fill="#000000" fill-rule="evenodd" fill-opacity="1" /><path clip-path="url(#clip290)" d="M182.431 282.834 L187.315 282.834 L187.315 288.713 L182.431 288.713 L182.431 282.834 Z" fill="#000000" fill-rule="evenodd" fill-opacity="1" /><path clip-path="url(#clip290)" d="M208.079 269.57 Q204.931 269.57 203.079 271.723 Q201.25 273.875 201.25 277.625 Q201.25 281.352 203.079 283.528 Q204.931 285.681 208.079 285.681 Q211.227 285.681 213.056 283.528 Q214.908 281.352 214.908 277.625 Q214.908 273.875 213.056 271.723 Q211.227 269.57 208.079 269.57 M217.361 254.917 L217.361 259.176 Q215.602 258.343 213.797 257.903 Q212.014 257.463 210.255 257.463 Q205.625 257.463 203.172 260.588 Q200.741 263.713 200.394 270.033 Q201.76 268.019 203.82 266.954 Q205.88 265.866 208.357 265.866 Q213.565 265.866 216.574 269.037 Q219.607 272.186 219.607 277.625 Q219.607 282.949 216.459 286.167 Q213.311 289.385 208.079 289.385 Q202.084 289.385 198.912 284.801 Q195.741 280.195 195.741 271.468 Q195.741 263.274 199.63 258.412 Q203.519 253.528 210.07 253.528 Q211.829 253.528 213.611 253.875 Q215.417 254.223 217.361 254.917 Z" fill="#000000" fill-rule="evenodd" fill-opacity="1" /><path clip-path="url(#clip290)" d="M14.479 975.104 L19.3487 975.104 L19.3487 980.705 Q19.3487 983.856 20.6219 985.098 Q21.895 986.307 25.2052 986.307 L28.3562 986.307 L28.3562 976.663 L32.9077 976.663 L32.9077 986.307 L64.0042 986.307 L64.0042 992.196 L32.9077 992.196 L32.9077 997.797 L28.3562 997.797 L28.3562 992.196 L25.8736 992.196 Q19.9216 992.196 17.2162 989.426 Q14.479 986.657 14.479 980.642 L14.479 975.104 Z" fill="#000000" fill-rule="evenodd" fill-opacity="1" /><path clip-path="url(#clip290)" d="M33.8307 949.545 Q33.2578 950.532 33.0032 951.71 Q32.7167 952.855 32.7167 954.256 Q32.7167 959.221 35.9632 961.895 Q39.1779 964.537 45.2253 964.537 L64.0042 964.537 L64.0042 970.425 L28.3562 970.425 L28.3562 964.537 L33.8944 964.537 Q30.6479 962.69 29.0883 959.73 Q27.4968 956.77 27.4968 952.537 Q27.4968 951.932 27.5923 951.2 Q27.656 950.468 27.8151 949.577 L33.8307 949.545 Z" fill="#000000" fill-rule="evenodd" fill-opacity="1" /><path clip-path="url(#clip290)" d="M44.7161 914.343 L47.5806 914.343 L47.5806 941.27 Q53.6281 940.888 56.8109 937.641 Q59.9619 934.363 59.9619 928.538 Q59.9619 925.165 59.1344 922.014 Q58.3069 918.831 56.6518 915.712 L62.1899 915.712 Q63.5267 918.863 64.227 922.173 Q64.9272 925.483 64.9272 928.889 Q64.9272 937.419 59.9619 942.416 Q54.9967 947.381 46.5303 947.381 Q37.7774 947.381 32.6531 942.67 Q27.4968 937.928 27.4968 929.907 Q27.4968 922.714 32.1438 918.544 Q36.7589 914.343 44.7161 914.343 M42.9973 920.199 Q38.1912 920.263 35.3266 922.905 Q32.4621 925.515 32.4621 929.843 Q32.4621 934.745 35.2312 937.705 Q38.0002 940.633 43.0292 941.079 L42.9973 920.199 Z" fill="#000000" fill-rule="evenodd" fill-opacity="1" /><path clip-path="url(#clip290)" d="M46.212 901.23 Q52.6732 901.23 56.3653 898.588 Q60.0256 895.914 60.0256 891.267 Q60.0256 886.62 56.3653 883.947 Q52.6732 881.273 46.212 881.273 Q39.7508 881.273 36.0905 883.947 Q32.3984 886.62 32.3984 891.267 Q32.3984 895.914 36.0905 898.588 Q39.7508 901.23 46.212 901.23 M58.657 881.273 Q61.8398 883.119 63.3994 885.952 Q64.9272 888.753 64.9272 892.7 Q64.9272 899.161 59.771 903.235 Q54.6147 907.277 46.212 907.277 Q37.8093 907.277 32.6531 903.235 Q27.4968 899.161 27.4968 892.7 Q27.4968 888.753 29.0564 885.952 Q30.5842 883.119 33.7671 881.273 L28.3562 881.273 L28.3562 875.417 L77.5631 875.417 L77.5631 881.273 L58.657 881.273 Z" fill="#000000" fill-rule="evenodd" fill-opacity="1" /><path clip-path="url(#clip290)" d="M49.9359 863.958 L28.3562 863.958 L28.3562 858.102 L49.7131 858.102 Q54.7739 858.102 57.3202 856.129 Q59.8346 854.155 59.8346 850.208 Q59.8346 845.466 56.8109 842.729 Q53.7872 839.96 48.5673 839.96 L28.3562 839.96 L28.3562 834.103 L64.0042 834.103 L64.0042 839.96 L58.5296 839.96 Q61.7762 842.092 63.3676 844.925 Q64.9272 847.726 64.9272 851.45 Q64.9272 857.593 61.1078 860.776 Q57.2883 863.958 49.9359 863.958 M27.4968 849.222 L27.4968 849.222 Z" fill="#000000" fill-rule="evenodd" fill-opacity="1" /><path clip-path="url(#clip290)" d="M44.7161 791.548 L47.5806 791.548 L47.5806 818.475 Q53.6281 818.093 56.8109 814.847 Q59.9619 811.569 59.9619 805.744 Q59.9619 802.37 59.1344 799.219 Q58.3069 796.036 56.6518 792.917 L62.1899 792.917 Q63.5267 796.068 64.227 799.378 Q64.9272 802.688 64.9272 806.094 Q64.9272 814.624 59.9619 819.621 Q54.9967 824.586 46.5303 824.586 Q37.7774 824.586 32.6531 819.876 Q27.4968 815.133 27.4968 807.113 Q27.4968 799.919 32.1438 795.75 Q36.7589 791.548 44.7161 791.548 M42.9973 797.405 Q38.1912 797.469 35.3266 800.11 Q32.4621 802.72 32.4621 807.049 Q32.4621 811.951 35.2312 814.911 Q38.0002 817.839 43.0292 818.284 L42.9973 797.405 Z" fill="#000000" fill-rule="evenodd" fill-opacity="1" /><path clip-path="url(#clip290)" d="M42.4881 752.304 L64.0042 752.304 L64.0042 758.16 L42.679 758.16 Q37.6183 758.16 35.1038 760.134 Q32.5894 762.107 32.5894 766.054 Q32.5894 770.796 35.6131 773.534 Q38.6368 776.271 43.8567 776.271 L64.0042 776.271 L64.0042 782.159 L28.3562 782.159 L28.3562 776.271 L33.8944 776.271 Q30.6797 774.17 29.0883 771.337 Q27.4968 768.473 27.4968 764.749 Q27.4968 758.606 31.3163 755.455 Q35.1038 752.304 42.4881 752.304 Z" fill="#000000" fill-rule="evenodd" fill-opacity="1" /><path clip-path="url(#clip290)" d="M29.7248 714.969 L35.1993 714.969 Q33.8307 717.452 33.1623 719.966 Q32.4621 722.449 32.4621 724.995 Q32.4621 730.692 36.0905 733.843 Q39.6872 736.994 46.212 736.994 Q52.7369 736.994 56.3653 733.843 Q59.9619 730.692 59.9619 724.995 Q59.9619 722.449 59.2935 719.966 Q58.5933 717.452 57.2247 714.969 L62.6355 714.969 Q63.7814 717.42 64.3543 720.062 Q64.9272 722.672 64.9272 725.632 Q64.9272 733.684 59.8664 738.427 Q54.8057 743.169 46.212 743.169 Q37.491 743.169 32.4939 738.395 Q27.4968 733.589 27.4968 725.25 Q27.4968 722.544 28.0697 719.966 Q28.6108 717.388 29.7248 714.969 Z" fill="#000000" fill-rule="evenodd" fill-opacity="1" /><path clip-path="url(#clip290)" d="M67.3143 689.952 Q73.68 692.434 75.6216 694.79 Q77.5631 697.145 77.5631 701.092 L77.5631 705.771 L72.6615 705.771 L72.6615 702.333 Q72.6615 699.914 71.5157 698.577 Q70.3699 697.241 66.1048 695.617 L63.4312 694.567 L28.3562 708.985 L28.3562 702.779 L56.238 691.639 L28.3562 680.499 L28.3562 674.292 L67.3143 689.952 Z" fill="#000000" fill-rule="evenodd" fill-opacity="1" /><path clip-path="url(#clip290)" d="M14.5426 631.419 Q21.8632 635.684 29.0246 637.753 Q36.186 639.822 43.5384 639.822 Q50.8908 639.822 58.1159 637.753 Q65.3091 635.652 72.5979 631.419 L72.5979 636.512 Q65.1182 641.286 57.8931 643.673 Q50.668 646.028 43.5384 646.028 Q36.4406 646.028 29.2474 643.673 Q22.0542 641.318 14.5426 636.512 L14.5426 631.419 Z" fill="#000000" fill-rule="evenodd" fill-opacity="1" /><path clip-path="url(#clip290)" d="M57.2247 587.4 L44.4614 587.4 L44.4614 597.904 L39.1779 597.904 L39.1779 581.035 L59.58 581.035 Q62.2218 584.758 63.5904 589.246 Q64.9272 593.734 64.9272 598.827 Q64.9272 609.967 58.4342 616.269 Q51.9093 622.539 40.2919 622.539 Q28.6427 622.539 22.1496 616.269 Q15.6248 609.967 15.6248 598.827 Q15.6248 594.18 16.7706 590.01 Q17.9164 585.809 20.1444 582.276 L26.9876 582.276 Q23.9639 585.841 22.4361 589.851 Q20.9083 593.861 20.9083 598.286 Q20.9083 607.007 25.7781 611.399 Q30.6479 615.759 40.2919 615.759 Q49.9041 615.759 54.7739 611.399 Q59.6436 607.007 59.6436 598.286 Q59.6436 594.88 59.0707 592.206 Q58.466 589.533 57.2247 587.4 Z" fill="#000000" fill-rule="evenodd" fill-opacity="1" /><path clip-path="url(#clip290)" d="M16.4842 569.29 L16.4842 562.86 L35.9632 562.86 L35.9632 539.498 L16.4842 539.498 L16.4842 533.069 L64.0042 533.069 L64.0042 539.498 L41.3741 539.498 L41.3741 562.86 L64.0042 562.86 L64.0042 569.29 L16.4842 569.29 Z" fill="#000000" fill-rule="evenodd" fill-opacity="1" /><path clip-path="url(#clip290)" d="M28.3562 523.075 L28.3562 495.257 L33.7034 495.257 L59.3254 517.282 L59.3254 495.257 L64.0042 495.257 L64.0042 523.871 L58.657 523.871 L33.035 501.845 L33.035 523.075 L28.3562 523.075 Z" fill="#000000" fill-rule="evenodd" fill-opacity="1" /><path clip-path="url(#clip290)" d="M14.5426 487.236 L14.5426 482.143 Q22.0542 477.369 29.2474 475.014 Q36.4406 472.627 43.5384 472.627 Q50.668 472.627 57.8931 475.014 Q65.1182 477.369 72.5979 482.143 L72.5979 487.236 Q65.3091 483.003 58.1159 480.934 Q50.8908 478.833 43.5384 478.833 Q36.186 478.833 29.0246 480.934 Q21.8632 483.003 14.5426 487.236 Z" fill="#000000" fill-rule="evenodd" fill-opacity="1" /><polyline clip-path="url(#clip292)" style="stroke:#009af9; stroke-linecap:butt; stroke-linejoin:round; stroke-width:4; stroke-opacity:1; fill:none" points="
  314.96,1082.63 334.745,1069.78 354.529,1056.15 374.313,1041.75 394.098,1026.55 413.882,1010.53 433.667,993.702 453.451,976.051 473.235,957.577 493.02,938.284 
  512.804,918.18 532.589,897.277 552.373,875.59 572.158,853.144 591.942,829.963 611.726,806.081 631.511,781.535 651.295,756.369 671.08,730.63 690.864,704.372 
  710.649,677.656 730.433,650.545 750.217,623.109 770.002,595.423 789.786,567.566 809.571,539.622 829.355,511.679 849.14,483.826 868.924,456.16 888.708,428.776 
  908.493,401.773 928.277,375.253 948.062,349.316 967.846,324.065 987.631,299.6 1007.41,276.021 1027.2,253.429 1046.98,231.918 1066.77,211.581 1086.55,192.51 
  1106.34,174.787 1126.12,158.494 1145.91,143.704 1165.69,130.486 1185.47,118.902 1205.26,109.005 1225.04,100.842 1244.83,94.4532 1264.61,89.8675 1284.4,87.1072 
  1304.18,86.1857 1323.97,87.1072 1343.75,89.8675 1363.53,94.4532 1383.32,100.842 1403.1,109.005 1422.89,118.902 1442.67,130.486 1462.46,143.704 1482.24,158.494 
  1502.03,174.787 1521.81,192.51 1541.59,211.581 1561.38,231.918 1581.16,253.429 1600.95,276.021 1620.73,299.6 1640.52,324.065 1660.3,349.316 1680.09,375.253 
  1699.87,401.773 1719.65,428.776 1739.44,456.16 1759.22,483.826 1779.01,511.679 1798.79,539.622 1818.58,567.566 1838.36,595.423 1858.15,623.109 1877.93,650.545 
  1897.71,677.656 1917.5,704.372 1937.28,730.63 1957.07,756.369 1976.85,781.535 1996.64,806.081 2016.42,829.963 2036.21,853.144 2055.99,875.59 2075.77,897.277 
  2095.56,918.18 2115.34,938.284 2135.13,957.577 2154.91,976.051 2174.7,993.702 2194.48,1010.53 2214.26,1026.55 2234.05,1041.75 2253.83,1056.15 2273.62,1069.78 
  2293.4,1082.63 
  "/>
<polyline clip-path="url(#clip292)" style="stroke:#e26f46; stroke-linecap:butt; stroke-linejoin:round; stroke-width:4; stroke-opacity:1; fill:none" points="
  314.96,948.035 334.745,939.856 354.529,931.484 374.313,922.947 394.098,914.273 413.882,905.496 433.667,896.651 453.451,887.777 473.235,878.916 493.02,870.114 
  512.804,861.417 532.589,852.876 552.373,844.544 572.158,836.474 591.942,828.724 611.726,821.349 631.511,814.41 651.295,807.964 671.08,802.071 690.864,796.789 
  710.649,792.176 730.433,788.288 750.217,785.178 770.002,782.899 789.786,781.499 809.571,781.023 829.355,781.512 849.14,783.002 868.924,785.524 888.708,789.103 
  908.493,793.759 928.277,799.506 948.062,806.349 967.846,814.289 987.631,823.317 1007.41,833.42 1027.2,844.574 1046.98,856.752 1066.77,869.915 1086.55,884.02 
  1106.34,899.017 1126.12,914.847 1145.91,931.448 1165.69,948.749 1185.47,966.675 1205.26,985.147 1225.04,1004.08 1244.83,1023.39 1264.61,1042.98 1284.4,1062.76 
  1304.18,1082.63 1323.97,1102.51 1343.75,1122.29 1363.53,1141.87 1383.32,1161.18 1403.1,1180.11 1422.89,1198.59 1442.67,1216.51 1462.46,1233.81 1482.24,1250.41 
  1502.03,1266.24 1521.81,1281.24 1541.59,1295.35 1561.38,1308.51 1581.16,1320.69 1600.95,1331.84 1620.73,1341.94 1640.52,1350.97 1660.3,1358.91 1680.09,1365.76 
  1699.87,1371.5 1719.65,1376.16 1739.44,1379.74 1759.22,1382.26 1779.01,1383.75 1798.79,1384.24 1818.58,1383.76 1838.36,1382.36 1858.15,1380.08 1877.93,1376.97 
  1897.71,1373.09 1917.5,1368.47 1937.28,1363.19 1957.07,1357.3 1976.85,1350.85 1996.64,1343.91 2016.42,1336.54 2036.21,1328.79 2055.99,1320.72 2075.77,1312.39 
  2095.56,1303.84 2115.34,1295.15 2135.13,1286.35 2154.91,1277.48 2174.7,1268.61 2194.48,1259.77 2214.26,1250.99 2234.05,1242.32 2253.83,1233.78 2273.62,1225.41 
  2293.4,1217.23 
  "/>
<path clip-path="url(#clip290)" d="
M1988.77 248.629 L2282.85 248.629 L2282.85 93.1086 L1988.77 93.1086  Z
  " fill="#ffffff" fill-rule="evenodd" fill-opacity="1"/>
<polyline clip-path="url(#clip290)" style="stroke:#000000; stroke-linecap:butt; stroke-linejoin:round; stroke-width:4; stroke-opacity:1; fill:none" points="
  1988.77,248.629 2282.85,248.629 2282.85,93.1086 1988.77,93.1086 1988.77,248.629 
  "/>
<polyline clip-path="url(#clip290)" style="stroke:#009af9; stroke-linecap:butt; stroke-linejoin:round; stroke-width:4; stroke-opacity:1; fill:none" points="
  2012.07,144.949 2151.88,144.949 
  "/>
<path clip-path="url(#clip290)" d="M2207.8 158.108 L2207.8 162.229 L2193.91 162.229 L2193.91 158.108 Q2198.01 155.863 2200.3 152.02 Q2202.59 148.178 2202.59 143.502 Q2202.59 137.946 2199.53 134.59 Q2196.48 131.233 2191.48 131.233 Q2186.48 131.233 2183.4 134.613 Q2180.35 137.969 2180.35 143.502 Q2180.35 148.178 2182.64 152.02 Q2184.95 155.863 2189.07 158.108 L2189.07 162.229 L2175.18 162.229 L2175.18 158.108 L2182.57 158.108 Q2178.91 154.891 2177.22 151.442 Q2175.55 147.993 2175.55 143.733 Q2175.55 136.372 2180 131.812 Q2184.42 127.252 2191.48 127.252 Q2198.49 127.252 2202.96 131.812 Q2207.41 136.349 2207.41 143.502 Q2207.41 147.993 2205.76 151.418 Q2204.12 154.844 2200.39 158.108 L2207.8 158.108 Z" fill="#000000" fill-rule="evenodd" fill-opacity="1" /><path clip-path="url(#clip290)" d="M2235.62 136.303 L2226.25 148.919 L2236.11 162.229 L2231.09 162.229 L2223.54 152.043 L2215.99 162.229 L2210.97 162.229 L2221.04 148.664 L2211.83 136.303 L2216.85 136.303 L2223.72 145.539 L2230.6 136.303 L2235.62 136.303 Z" fill="#000000" fill-rule="evenodd" fill-opacity="1" /><polyline clip-path="url(#clip290)" style="stroke:#e26f46; stroke-linecap:butt; stroke-linejoin:round; stroke-width:4; stroke-opacity:1; fill:none" points="
  2012.07,196.789 2151.88,196.789 
  "/>
<path clip-path="url(#clip290)" d="M2207.8 209.948 L2207.8 214.069 L2193.91 214.069 L2193.91 209.948 Q2198.01 207.703 2200.3 203.86 Q2202.59 200.018 2202.59 195.342 Q2202.59 189.786 2199.53 186.43 Q2196.48 183.073 2191.48 183.073 Q2186.48 183.073 2183.4 186.453 Q2180.35 189.809 2180.35 195.342 Q2180.35 200.018 2182.64 203.86 Q2184.95 207.703 2189.07 209.948 L2189.07 214.069 L2175.18 214.069 L2175.18 209.948 L2182.57 209.948 Q2178.91 206.731 2177.22 203.282 Q2175.55 199.833 2175.55 195.573 Q2175.55 188.212 2180 183.652 Q2184.42 179.092 2191.48 179.092 Q2198.49 179.092 2202.96 183.652 Q2207.41 188.189 2207.41 195.342 Q2207.41 199.833 2205.76 203.258 Q2204.12 206.684 2200.39 209.948 L2207.8 209.948 Z" fill="#000000" fill-rule="evenodd" fill-opacity="1" /><path clip-path="url(#clip290)" d="M2224.86 216.476 Q2223.05 221.106 2221.34 222.518 Q2219.63 223.93 2216.76 223.93 L2213.35 223.93 L2213.35 220.365 L2215.85 220.365 Q2217.61 220.365 2218.59 219.532 Q2219.56 218.698 2220.74 215.596 L2221.5 213.652 L2211.02 188.143 L2215.53 188.143 L2223.63 208.421 L2231.73 188.143 L2236.25 188.143 L2224.86 216.476 Z" fill="#000000" fill-rule="evenodd" fill-opacity="1" /></svg>
