<?xml version="1.0" encoding="utf-8"?>
<svg xmlns="http://www.w3.org/2000/svg" xmlns:xlink="http://www.w3.org/1999/xlink" width="600" height="400" viewBox="0 0 2400 1600">
<defs>
  <clipPath id="clip210">
    <rect x="0" y="0" width="2400" height="1600"/>
  </clipPath>
</defs>
<path clip-path="url(#clip210)" d="
M0 1600 L2400 1600 L2400 0 L0 0  Z
  " fill="#ffffff" fill-rule="evenodd" fill-opacity="1"/>
<defs>
  <clipPath id="clip211">
    <rect x="480" y="0" width="1681" height="1600"/>
  </clipPath>
</defs>
<path clip-path="url(#clip210)" d="
M251.372 1423.18 L2352.76 1423.18 L2352.76 47.2441 L251.372 47.2441  Z
  " fill="#ffffff" fill-rule="evenodd" fill-opacity="1"/>
<defs>
  <clipPath id="clip212">
    <rect x="251" y="47" width="2102" height="1377"/>
  </clipPath>
</defs>
<polyline clip-path="url(#clip210)" style="stroke:#000000; stroke-linecap:butt; stroke-linejoin:round; stroke-width:4; stroke-opacity:1; fill:none" points="
  251.372,1423.18 2352.76,1423.18 
  "/>
<polyline clip-path="url(#clip210)" style="stroke:#000000; stroke-linecap:butt; stroke-linejoin:round; stroke-width:4; stroke-opacity:1; fill:none" points="
  300.883,1423.18 300.883,1404.28 
  "/>
<polyline clip-path="url(#clip210)" style="stroke:#000000; stroke-linecap:butt; stroke-linejoin:round; stroke-width:4; stroke-opacity:1; fill:none" points="
  798.983,1423.18 798.983,1404.28 
  "/>
<polyline clip-path="url(#clip210)" style="stroke:#000000; stroke-linecap:butt; stroke-linejoin:round; stroke-width:4; stroke-opacity:1; fill:none" points="
  1297.08,1423.18 1297.08,1404.28 
  "/>
<polyline clip-path="url(#clip210)" style="stroke:#000000; stroke-linecap:butt; stroke-linejoin:round; stroke-width:4; stroke-opacity:1; fill:none" points="
  1795.18,1423.18 1795.18,1404.28 
  "/>
<polyline clip-path="url(#clip210)" style="stroke:#000000; stroke-linecap:butt; stroke-linejoin:round; stroke-width:4; stroke-opacity:1; fill:none" points="
  2293.28,1423.18 2293.28,1404.28 
  "/>
<path clip-path="url(#clip210)" d="M300.883 1454.1 Q297.272 1454.1 295.444 1457.66 Q293.638 1461.2 293.638 1468.33 Q293.638 1475.44 295.444 1479.01 Q297.272 1482.55 300.883 1482.55 Q304.518 1482.55 306.323 1479.01 Q308.152 1475.44 308.152 1468.33 Q308.152 1461.2 306.323 1457.66 Q304.518 1454.1 300.883 1454.1 M300.883 1450.39 Q306.693 1450.39 309.749 1455 Q312.828 1459.58 312.828 1468.33 Q312.828 1477.06 309.749 1481.67 Q306.693 1486.25 300.883 1486.25 Q295.073 1486.25 291.994 1481.67 Q288.939 1477.06 288.939 1468.33 Q288.939 1459.58 291.994 1455 Q295.073 1450.39 300.883 1450.39 Z" fill="#000000" fill-rule="evenodd" fill-opacity="1" /><path clip-path="url(#clip210)" d="M773.682 1451.02 L792.039 1451.02 L792.039 1454.96 L777.965 1454.96 L777.965 1463.43 Q778.983 1463.08 780.002 1462.92 Q781.02 1462.73 782.039 1462.73 Q787.826 1462.73 791.205 1465.9 Q794.585 1469.08 794.585 1474.49 Q794.585 1480.07 791.113 1483.17 Q787.641 1486.25 781.321 1486.25 Q779.145 1486.25 776.877 1485.88 Q774.631 1485.51 772.224 1484.77 L772.224 1480.07 Q774.307 1481.2 776.53 1481.76 Q778.752 1482.32 781.229 1482.32 Q785.233 1482.32 787.571 1480.21 Q789.909 1478.1 789.909 1474.49 Q789.909 1470.88 787.571 1468.77 Q785.233 1466.67 781.229 1466.67 Q779.354 1466.67 777.479 1467.08 Q775.627 1467.5 773.682 1468.38 L773.682 1451.02 Z" fill="#000000" fill-rule="evenodd" fill-opacity="1" /><path clip-path="url(#clip210)" d="M813.798 1454.1 Q810.187 1454.1 808.358 1457.66 Q806.553 1461.2 806.553 1468.33 Q806.553 1475.44 808.358 1479.01 Q810.187 1482.55 813.798 1482.55 Q817.432 1482.55 819.238 1479.01 Q821.066 1475.44 821.066 1468.33 Q821.066 1461.2 819.238 1457.66 Q817.432 1454.1 813.798 1454.1 M813.798 1450.39 Q819.608 1450.39 822.664 1455 Q825.742 1459.58 825.742 1468.33 Q825.742 1477.06 822.664 1481.67 Q819.608 1486.25 813.798 1486.25 Q807.988 1486.25 804.909 1481.67 Q801.854 1477.06 801.854 1468.33 Q801.854 1459.58 804.909 1455 Q807.988 1450.39 813.798 1450.39 Z" fill="#000000" fill-rule="evenodd" fill-opacity="1" /><path clip-path="url(#clip210)" d="M1256.69 1481.64 L1264.33 1481.64 L1264.33 1455.28 L1256.02 1456.95 L1256.02 1452.69 L1264.28 1451.02 L1268.96 1451.02 L1268.96 1481.64 L1276.6 1481.64 L1276.6 1485.58 L1256.69 1485.58 L1256.69 1481.64 Z" fill="#000000" fill-rule="evenodd" fill-opacity="1" /><path clip-path="url(#clip210)" d="M1296.04 1454.1 Q1292.43 1454.1 1290.6 1457.66 Q1288.8 1461.2 1288.8 1468.33 Q1288.8 1475.44 1290.6 1479.01 Q1292.43 1482.55 1296.04 1482.55 Q1299.68 1482.55 1301.48 1479.01 Q1303.31 1475.44 1303.31 1468.33 Q1303.31 1461.2 1301.48 1457.66 Q1299.68 1454.1 1296.04 1454.1 M1296.04 1450.39 Q1301.85 1450.39 1304.91 1455 Q1307.99 1459.58 1307.99 1468.33 Q1307.99 1477.06 1304.91 1481.67 Q1301.85 1486.25 1296.04 1486.25 Q1290.23 1486.25 1287.15 1481.67 Q1284.1 1477.06 1284.1 1468.33 Q1284.1 1459.58 1287.15 1455 Q1290.23 1450.39 1296.04 1450.39 Z" fill="#000000" fill-rule="evenodd" fill-opacity="1" /><path clip-path="url(#clip210)" d="M1326.2 1454.1 Q1322.59 1454.1 1320.76 1457.66 Q1318.96 1461.2 1318.96 1468.33 Q1318.96 1475.44 1320.76 1479.01 Q1322.59 1482.55 1326.2 1482.55 Q1329.84 1482.55 1331.64 1479.01 Q1333.47 1475.44 1333.47 1468.33 Q1333.47 1461.2 1331.64 1457.66 Q1329.84 1454.1 1326.2 1454.1 M1326.2 1450.39 Q1332.01 1450.39 1335.07 1455 Q1338.15 1459.58 1338.15 1468.33 Q1338.15 1477.06 1335.07 1481.67 Q1332.01 1486.25 1326.2 1486.25 Q1320.39 1486.25 1317.31 1481.67 Q1314.26 1477.06 1314.26 1468.33 Q1314.26 1459.58 1317.31 1455 Q1320.39 1450.39 1326.2 1450.39 Z" fill="#000000" fill-rule="evenodd" fill-opacity="1" /><path clip-path="url(#clip210)" d="M1754.79 1481.64 L1762.43 1481.64 L1762.43 1455.28 L1754.12 1456.95 L1754.12 1452.69 L1762.38 1451.02 L1767.06 1451.02 L1767.06 1481.64 L1774.7 1481.64 L1774.7 1485.58 L1754.79 1485.58 L1754.79 1481.64 Z" fill="#000000" fill-rule="evenodd" fill-opacity="1" /><path clip-path="url(#clip210)" d="M1784.19 1451.02 L1802.54 1451.02 L1802.54 1454.96 L1788.47 1454.96 L1788.47 1463.43 Q1789.49 1463.08 1790.51 1462.92 Q1791.53 1462.73 1792.54 1462.73 Q1798.33 1462.73 1801.71 1465.9 Q1805.09 1469.08 1805.09 1474.49 Q1805.09 1480.07 1801.62 1483.17 Q1798.15 1486.25 1791.83 1486.25 Q1789.65 1486.25 1787.38 1485.88 Q1785.14 1485.51 1782.73 1484.77 L1782.73 1480.07 Q1784.81 1481.2 1787.03 1481.76 Q1789.26 1482.32 1791.73 1482.32 Q1795.74 1482.32 1798.08 1480.21 Q1800.41 1478.1 1800.41 1474.49 Q1800.41 1470.88 1798.08 1468.77 Q1795.74 1466.67 1791.73 1466.67 Q1789.86 1466.67 1787.98 1467.08 Q1786.13 1467.5 1784.19 1468.38 L1784.19 1451.02 Z" fill="#000000" fill-rule="evenodd" fill-opacity="1" /><path clip-path="url(#clip210)" d="M1824.3 1454.1 Q1820.69 1454.1 1818.86 1457.66 Q1817.06 1461.2 1817.06 1468.33 Q1817.06 1475.44 1818.86 1479.01 Q1820.69 1482.55 1824.3 1482.55 Q1827.94 1482.55 1829.74 1479.01 Q1831.57 1475.44 1831.57 1468.33 Q1831.57 1461.2 1829.74 1457.66 Q1827.94 1454.1 1824.3 1454.1 M1824.3 1450.39 Q1830.11 1450.39 1833.17 1455 Q1836.25 1459.58 1836.25 1468.33 Q1836.25 1477.06 1833.17 1481.67 Q1830.11 1486.25 1824.3 1486.25 Q1818.49 1486.25 1815.41 1481.67 Q1812.36 1477.06 1812.36 1468.33 Q1812.36 1459.58 1815.41 1455 Q1818.49 1450.39 1824.3 1450.39 Z" fill="#000000" fill-rule="evenodd" fill-opacity="1" /><path clip-path="url(#clip210)" d="M2256.98 1481.64 L2273.29 1481.64 L2273.29 1485.58 L2251.35 1485.58 L2251.35 1481.64 Q2254.01 1478.89 2258.6 1474.26 Q2263.2 1469.61 2264.38 1468.27 Q2266.63 1465.74 2267.51 1464.01 Q2268.41 1462.25 2268.41 1460.56 Q2268.41 1457.8 2266.47 1456.07 Q2264.54 1454.33 2261.44 1454.33 Q2259.24 1454.33 2256.79 1455.09 Q2254.36 1455.86 2251.58 1457.41 L2251.58 1452.69 Q2254.41 1451.55 2256.86 1450.97 Q2259.31 1450.39 2261.35 1450.39 Q2266.72 1450.39 2269.91 1453.08 Q2273.11 1455.77 2273.11 1460.26 Q2273.11 1462.39 2272.3 1464.31 Q2271.51 1466.2 2269.41 1468.8 Q2268.83 1469.47 2265.73 1472.69 Q2262.62 1475.88 2256.98 1481.64 Z" fill="#000000" fill-rule="evenodd" fill-opacity="1" /><path clip-path="url(#clip210)" d="M2293.11 1454.1 Q2289.5 1454.1 2287.67 1457.66 Q2285.86 1461.2 2285.86 1468.33 Q2285.86 1475.44 2287.67 1479.01 Q2289.5 1482.55 2293.11 1482.55 Q2296.74 1482.55 2298.55 1479.01 Q2300.38 1475.44 2300.38 1468.33 Q2300.38 1461.2 2298.55 1457.66 Q2296.74 1454.1 2293.11 1454.1 M2293.11 1450.39 Q2298.92 1450.39 2301.97 1455 Q2305.05 1459.58 2305.05 1468.33 Q2305.05 1477.06 2301.97 1481.67 Q2298.92 1486.25 2293.11 1486.25 Q2287.3 1486.25 2284.22 1481.67 Q2281.16 1477.06 2281.16 1468.33 Q2281.16 1459.58 2284.22 1455 Q2287.3 1450.39 2293.11 1450.39 Z" fill="#000000" fill-rule="evenodd" fill-opacity="1" /><path clip-path="url(#clip210)" d="M2323.27 1454.1 Q2319.66 1454.1 2317.83 1457.66 Q2316.03 1461.2 2316.03 1468.33 Q2316.03 1475.44 2317.83 1479.01 Q2319.66 1482.55 2323.27 1482.55 Q2326.91 1482.55 2328.71 1479.01 Q2330.54 1475.44 2330.54 1468.33 Q2330.54 1461.2 2328.71 1457.66 Q2326.91 1454.1 2323.27 1454.1 M2323.27 1450.39 Q2329.08 1450.39 2332.14 1455 Q2335.22 1459.58 2335.22 1468.33 Q2335.22 1477.06 2332.14 1481.67 Q2329.08 1486.25 2323.27 1486.25 Q2317.46 1486.25 2314.38 1481.67 Q2311.33 1477.06 2311.33 1468.33 Q2311.33 1459.58 2314.38 1455 Q2317.46 1450.39 2323.27 1450.39 Z" fill="#000000" fill-rule="evenodd" fill-opacity="1" /><path clip-path="url(#clip210)" d="M1152.06 1532.4 L1157.91 1532.4 L1157.91 1568.04 L1152.06 1568.04 L1152.06 1532.4 M1152.06 1518.52 L1157.91 1518.52 L1157.91 1525.93 L1152.06 1525.93 L1152.06 1518.52 Z" fill="#000000" fill-rule="evenodd" fill-opacity="1" /><path clip-path="url(#clip210)" d="M1175.96 1522.27 L1175.96 1532.4 L1188.02 1532.4 L1188.02 1536.95 L1175.96 1536.95 L1175.96 1556.3 Q1175.96 1560.66 1177.14 1561.9 Q1178.35 1563.14 1182.01 1563.14 L1188.02 1563.14 L1188.02 1568.04 L1182.01 1568.04 Q1175.23 1568.04 1172.65 1565.53 Q1170.07 1562.98 1170.07 1556.3 L1170.07 1536.95 L1165.77 1536.95 L1165.77 1532.4 L1170.07 1532.4 L1170.07 1522.27 L1175.96 1522.27 Z" fill="#000000" fill-rule="evenodd" fill-opacity="1" /><path clip-path="url(#clip210)" d="M1226.22 1548.76 L1226.22 1551.62 L1199.29 1551.62 Q1199.67 1557.67 1202.92 1560.85 Q1206.2 1564 1212.02 1564 Q1215.39 1564 1218.55 1563.17 Q1221.73 1562.35 1224.85 1560.69 L1224.85 1566.23 Q1221.7 1567.57 1218.39 1568.27 Q1215.08 1568.97 1211.67 1568.97 Q1203.14 1568.97 1198.14 1564 Q1193.18 1559.04 1193.18 1550.57 Q1193.18 1541.82 1197.89 1536.69 Q1202.63 1531.54 1210.65 1531.54 Q1217.85 1531.54 1222.02 1536.18 Q1226.22 1540.8 1226.22 1548.76 M1220.36 1547.04 Q1220.3 1542.23 1217.65 1539.37 Q1215.04 1536.5 1210.72 1536.5 Q1205.81 1536.5 1202.85 1539.27 Q1199.93 1542.04 1199.48 1547.07 L1220.36 1547.04 Z" fill="#000000" fill-rule="evenodd" fill-opacity="1" /><path clip-path="url(#clip210)" d="M1256.49 1537.87 Q1255.5 1537.3 1254.32 1537.04 Q1253.18 1536.76 1251.77 1536.76 Q1246.81 1536.76 1244.14 1540 Q1241.49 1543.22 1241.49 1549.27 L1241.49 1568.04 L1235.61 1568.04 L1235.61 1532.4 L1241.49 1532.4 L1241.49 1537.93 Q1243.34 1534.69 1246.3 1533.13 Q1249.26 1531.54 1253.49 1531.54 Q1254.1 1531.54 1254.83 1531.63 Q1255.56 1531.7 1256.45 1531.85 L1256.49 1537.87 Z" fill="#000000" fill-rule="evenodd" fill-opacity="1" /><path clip-path="url(#clip210)" d="M1278.83 1550.12 Q1271.73 1550.12 1268.99 1551.75 Q1266.26 1553.37 1266.26 1557.29 Q1266.26 1560.4 1268.29 1562.25 Q1270.36 1564.07 1273.9 1564.07 Q1278.77 1564.07 1281.69 1560.63 Q1284.65 1557.16 1284.65 1551.43 L1284.65 1550.12 L1278.83 1550.12 M1290.51 1547.71 L1290.51 1568.04 L1284.65 1568.04 L1284.65 1562.63 Q1282.65 1565.88 1279.66 1567.44 Q1276.66 1568.97 1272.34 1568.97 Q1266.86 1568.97 1263.62 1565.91 Q1260.4 1562.82 1260.4 1557.67 Q1260.4 1551.65 1264.41 1548.6 Q1268.45 1545.54 1276.44 1545.54 L1284.65 1545.54 L1284.65 1544.97 Q1284.65 1540.93 1281.98 1538.73 Q1279.34 1536.5 1274.53 1536.5 Q1271.48 1536.5 1268.58 1537.23 Q1265.68 1537.97 1263.01 1539.43 L1263.01 1534.02 Q1266.23 1532.78 1269.25 1532.17 Q1272.27 1531.54 1275.14 1531.54 Q1282.87 1531.54 1286.69 1535.55 Q1290.51 1539.56 1290.51 1547.71 Z" fill="#000000" fill-rule="evenodd" fill-opacity="1" /><path clip-path="url(#clip210)" d="M1308.37 1522.27 L1308.37 1532.4 L1320.43 1532.4 L1320.43 1536.95 L1308.37 1536.95 L1308.37 1556.3 Q1308.37 1560.66 1309.54 1561.9 Q1310.75 1563.14 1314.41 1563.14 L1320.43 1563.14 L1320.43 1568.04 L1314.41 1568.04 Q1307.63 1568.04 1305.06 1565.53 Q1302.48 1562.98 1302.48 1556.3 L1302.48 1536.95 L1298.18 1536.95 L1298.18 1532.4 L1302.48 1532.4 L1302.48 1522.27 L1308.37 1522.27 Z" fill="#000000" fill-rule="evenodd" fill-opacity="1" /><path clip-path="url(#clip210)" d="M1328.13 1532.4 L1333.99 1532.4 L1333.99 1568.04 L1328.13 1568.04 L1328.13 1532.4 M1328.13 1518.52 L1333.99 1518.52 L1333.99 1525.93 L1328.13 1525.93 L1328.13 1518.52 Z" fill="#000000" fill-rule="evenodd" fill-opacity="1" /><path clip-path="url(#clip210)" d="M1360.06 1536.5 Q1355.35 1536.5 1352.61 1540.19 Q1349.87 1543.85 1349.87 1550.25 Q1349.87 1556.65 1352.58 1560.34 Q1355.31 1564 1360.06 1564 Q1364.73 1564 1367.47 1560.31 Q1370.21 1556.62 1370.21 1550.25 Q1370.21 1543.92 1367.47 1540.23 Q1364.73 1536.5 1360.06 1536.5 M1360.06 1531.54 Q1367.69 1531.54 1372.05 1536.5 Q1376.42 1541.47 1376.42 1550.25 Q1376.42 1559 1372.05 1564 Q1367.69 1568.97 1360.06 1568.97 Q1352.38 1568.97 1348.02 1564 Q1343.7 1559 1343.7 1550.25 Q1343.7 1541.47 1348.02 1536.5 Q1352.38 1531.54 1360.06 1531.54 Z" fill="#000000" fill-rule="evenodd" fill-opacity="1" /><path clip-path="url(#clip210)" d="M1415.76 1546.53 L1415.76 1568.04 L1409.9 1568.04 L1409.9 1546.72 Q1409.9 1541.66 1407.93 1539.14 Q1405.95 1536.63 1402.01 1536.63 Q1397.26 1536.63 1394.53 1539.65 Q1391.79 1542.68 1391.79 1547.9 L1391.79 1568.04 L1385.9 1568.04 L1385.9 1532.4 L1391.79 1532.4 L1391.79 1537.93 Q1393.89 1534.72 1396.72 1533.13 Q1399.59 1531.54 1403.31 1531.54 Q1409.45 1531.54 1412.6 1535.36 Q1415.76 1539.14 1415.76 1546.53 Z" fill="#000000" fill-rule="evenodd" fill-opacity="1" /><path clip-path="url(#clip210)" d="M1450.16 1533.45 L1450.16 1538.98 Q1447.68 1537.71 1445.01 1537.07 Q1442.33 1536.44 1439.47 1536.44 Q1435.11 1536.44 1432.91 1537.77 Q1430.75 1539.11 1430.75 1541.79 Q1430.75 1543.82 1432.31 1545 Q1433.87 1546.15 1438.58 1547.2 L1440.58 1547.64 Q1446.82 1548.98 1449.43 1551.43 Q1452.07 1553.85 1452.07 1558.21 Q1452.07 1563.17 1448.13 1566.07 Q1444.21 1568.97 1437.34 1568.97 Q1434.47 1568.97 1431.35 1568.39 Q1428.26 1567.85 1424.83 1566.74 L1424.83 1560.69 Q1428.07 1562.38 1431.22 1563.24 Q1434.38 1564.07 1437.46 1564.07 Q1441.6 1564.07 1443.83 1562.66 Q1446.06 1561.23 1446.06 1558.65 Q1446.06 1556.27 1444.43 1554.99 Q1442.84 1553.72 1437.4 1552.54 L1435.36 1552.07 Q1429.92 1550.92 1427.5 1548.56 Q1425.08 1546.18 1425.08 1542.04 Q1425.08 1537.01 1428.65 1534.27 Q1432.21 1531.54 1438.77 1531.54 Q1442.01 1531.54 1444.88 1532.01 Q1447.74 1532.49 1450.16 1533.45 Z" fill="#000000" fill-rule="evenodd" fill-opacity="1" /><polyline clip-path="url(#clip210)" style="stroke:#000000; stroke-linecap:butt; stroke-linejoin:round; stroke-width:4; stroke-opacity:1; fill:none" points="
  251.372,1423.18 251.372,47.2441 
  "/>
<polyline clip-path="url(#clip210)" style="stroke:#000000; stroke-linecap:butt; stroke-linejoin:round; stroke-width:4; stroke-opacity:1; fill:none" points="
  251.372,1160.25 270.27,1160.25 
  "/>
<polyline clip-path="url(#clip210)" style="stroke:#000000; stroke-linecap:butt; stroke-linejoin:round; stroke-width:4; stroke-opacity:1; fill:none" points="
  251.372,528.064 270.27,528.064 
  "/>
<path clip-path="url(#clip210)" d="M115.232 1180.04 L122.871 1180.04 L122.871 1153.68 L114.561 1155.34 L114.561 1151.08 L122.825 1149.42 L127.501 1149.42 L127.501 1180.04 L135.14 1180.04 L135.14 1183.98 L115.232 1183.98 L115.232 1180.04 Z" fill="#000000" fill-rule="evenodd" fill-opacity="1" /><path clip-path="url(#clip210)" d="M154.584 1152.5 Q150.973 1152.5 149.144 1156.06 Q147.339 1159.6 147.339 1166.73 Q147.339 1173.84 149.144 1177.4 Q150.973 1180.95 154.584 1180.95 Q158.218 1180.95 160.024 1177.4 Q161.852 1173.84 161.852 1166.73 Q161.852 1159.6 160.024 1156.06 Q158.218 1152.5 154.584 1152.5 M154.584 1148.79 Q160.394 1148.79 163.45 1153.4 Q166.528 1157.98 166.528 1166.73 Q166.528 1175.46 163.45 1180.07 Q160.394 1184.65 154.584 1184.65 Q148.774 1184.65 145.695 1180.07 Q142.64 1175.46 142.64 1166.73 Q142.64 1157.98 145.695 1153.4 Q148.774 1148.79 154.584 1148.79 Z" fill="#000000" fill-rule="evenodd" fill-opacity="1" /><path clip-path="url(#clip210)" d="M166.528 1142.89 L190.64 1142.89 L190.64 1146.09 L166.528 1146.09 L166.528 1142.89 Z" fill="#000000" fill-rule="evenodd" fill-opacity="1" /><path clip-path="url(#clip210)" d="M202.113 1153.37 L215.372 1153.37 L215.372 1156.57 L197.542 1156.57 L197.542 1153.37 Q199.705 1151.13 203.429 1147.37 Q207.172 1143.59 208.131 1142.5 Q209.956 1140.45 210.67 1139.04 Q211.404 1137.61 211.404 1136.24 Q211.404 1134 209.824 1132.59 Q208.263 1131.18 205.743 1131.18 Q203.956 1131.18 201.962 1131.8 Q199.987 1132.42 197.73 1133.68 L197.73 1129.84 Q200.025 1128.92 202.019 1128.45 Q204.012 1127.98 205.667 1127.98 Q210.031 1127.98 212.626 1130.16 Q215.222 1132.34 215.222 1135.99 Q215.222 1137.72 214.563 1139.28 Q213.924 1140.82 212.212 1142.93 Q211.742 1143.48 209.222 1146.09 Q206.702 1148.69 202.113 1153.37 Z" fill="#000000" fill-rule="evenodd" fill-opacity="1" /><path clip-path="url(#clip210)" d="M114.931 547.857 L122.57 547.857 L122.57 521.491 L114.26 523.158 L114.26 518.899 L122.524 517.232 L127.2 517.232 L127.2 547.857 L134.839 547.857 L134.839 551.792 L114.931 551.792 L114.931 547.857 Z" fill="#000000" fill-rule="evenodd" fill-opacity="1" /><path clip-path="url(#clip210)" d="M154.283 520.311 Q150.672 520.311 148.843 523.875 Q147.038 527.417 147.038 534.547 Q147.038 541.653 148.843 545.218 Q150.672 548.76 154.283 548.76 Q157.917 548.76 159.723 545.218 Q161.552 541.653 161.552 534.547 Q161.552 527.417 159.723 523.875 Q157.917 520.311 154.283 520.311 M154.283 516.607 Q160.093 516.607 163.149 521.213 Q166.227 525.797 166.227 534.547 Q166.227 543.273 163.149 547.88 Q160.093 552.463 154.283 552.463 Q148.473 552.463 145.394 547.88 Q142.339 543.273 142.339 534.547 Q142.339 525.797 145.394 521.213 Q148.473 516.607 154.283 516.607 Z" fill="#000000" fill-rule="evenodd" fill-opacity="1" /><path clip-path="url(#clip210)" d="M166.227 510.708 L190.339 510.708 L190.339 513.906 L166.227 513.906 L166.227 510.708 Z" fill="#000000" fill-rule="evenodd" fill-opacity="1" /><path clip-path="url(#clip210)" d="M199.197 521.184 L205.404 521.184 L205.404 499.762 L198.652 501.116 L198.652 497.656 L205.366 496.302 L209.166 496.302 L209.166 521.184 L215.372 521.184 L215.372 524.382 L199.197 524.382 L199.197 521.184 Z" fill="#000000" fill-rule="evenodd" fill-opacity="1" /><path clip-path="url(#clip210)" d="M28.3562 872.329 L28.3562 866.473 L64.0042 866.473 L64.0042 872.329 L28.3562 872.329 M14.479 872.329 L14.479 866.473 L21.895 866.473 L21.895 872.329 L14.479 872.329 Z" fill="#000000" fill-rule="evenodd" fill-opacity="1" /><path clip-path="url(#clip210)" d="M42.4881 824.586 L64.0042 824.586 L64.0042 830.443 L42.679 830.443 Q37.6183 830.443 35.1038 832.416 Q32.5894 834.39 32.5894 838.336 Q32.5894 843.079 35.6131 845.816 Q38.6368 848.553 43.8567 848.553 L64.0042 848.553 L64.0042 854.442 L28.3562 854.442 L28.3562 848.553 L33.8944 848.553 Q30.6797 846.453 29.0883 843.62 Q27.4968 840.755 27.4968 837.031 Q27.4968 830.889 31.3163 827.738 Q35.1038 824.586 42.4881 824.586 Z" fill="#000000" fill-rule="evenodd" fill-opacity="1" /><path clip-path="url(#clip210)" d="M14.479 794.859 L19.3487 794.859 L19.3487 800.46 Q19.3487 803.611 20.6219 804.853 Q21.895 806.062 25.2052 806.062 L28.3562 806.062 L28.3562 796.418 L32.9077 796.418 L32.9077 806.062 L64.0042 806.062 L64.0042 811.951 L32.9077 811.951 L32.9077 817.552 L28.3562 817.552 L28.3562 811.951 L25.8736 811.951 Q19.9216 811.951 17.2162 809.181 Q14.479 806.412 14.479 800.397 L14.479 794.859 Z" fill="#000000" fill-rule="evenodd" fill-opacity="1" /><path clip-path="url(#clip210)" d="M28.3562 789.957 L28.3562 784.101 L64.0042 784.101 L64.0042 789.957 L28.3562 789.957 M14.479 789.957 L14.479 784.101 L21.895 784.101 L21.895 789.957 L14.479 789.957 Z" fill="#000000" fill-rule="evenodd" fill-opacity="1" /><path clip-path="url(#clip210)" d="M33.7671 748.389 L14.479 748.389 L14.479 742.533 L64.0042 742.533 L64.0042 748.389 L58.657 748.389 Q61.8398 750.235 63.3994 753.068 Q64.9272 755.869 64.9272 759.815 Q64.9272 766.277 59.771 770.351 Q54.6147 774.393 46.212 774.393 Q37.8093 774.393 32.6531 770.351 Q27.4968 766.277 27.4968 759.815 Q27.4968 755.869 29.0564 753.068 Q30.5842 750.235 33.7671 748.389 M46.212 768.345 Q52.6732 768.345 56.3653 765.704 Q60.0256 763.03 60.0256 758.383 Q60.0256 753.736 56.3653 751.063 Q52.6732 748.389 46.212 748.389 Q39.7508 748.389 36.0905 751.063 Q32.3984 753.736 32.3984 758.383 Q32.3984 763.03 36.0905 765.704 Q39.7508 768.345 46.212 768.345 Z" fill="#000000" fill-rule="evenodd" fill-opacity="1" /><path clip-path="url(#clip210)" d="M44.7161 699.978 L47.5806 699.978 L47.5806 726.905 Q53.6281 726.523 56.8109 723.276 Q59.9619 719.998 59.9619 714.173 Q59.9619 710.799 59.1344 707.648 Q58.3069 704.466 56.6518 701.346 L62.1899 701.346 Q63.5267 704.497 64.227 707.808 Q64.9272 711.118 64.9272 714.523 Q64.9272 723.053 59.9619 728.051 Q54.9967 733.016 46.5303 733.016 Q37.7774 733.016 32.6531 728.305 Q27.4968 723.563 27.4968 715.542 Q27.4968 708.349 32.1438 704.179 Q36.7589 699.978 44.7161 699.978 M42.9973 705.834 Q38.1912 705.898 35.3266 708.54 Q32.4621 711.15 32.4621 715.478 Q32.4621 720.38 35.2312 723.34 Q38.0002 726.268 43.0292 726.714 L42.9973 705.834 Z" fill="#000000" fill-rule="evenodd" fill-opacity="1" /><path clip-path="url(#clip210)" d="M14.479 690.366 L14.479 684.509 L64.0042 684.509 L64.0042 690.366 L14.479 690.366 Z" fill="#000000" fill-rule="evenodd" fill-opacity="1" /><path clip-path="url(#clip210)" d="M28.3562 672.255 L28.3562 666.399 L64.0042 666.399 L64.0042 672.255 L28.3562 672.255 M14.479 672.255 L14.479 666.399 L21.895 666.399 L21.895 672.255 L14.479 672.255 Z" fill="#000000" fill-rule="evenodd" fill-opacity="1" /><path clip-path="url(#clip210)" d="M18.2347 648.352 L28.3562 648.352 L28.3562 636.289 L32.9077 636.289 L32.9077 648.352 L52.2594 648.352 Q56.6199 648.352 57.8613 647.174 Q59.1026 645.965 59.1026 642.304 L59.1026 636.289 L64.0042 636.289 L64.0042 642.304 Q64.0042 649.084 61.4897 651.662 Q58.9434 654.24 52.2594 654.24 L32.9077 654.24 L32.9077 658.537 L28.3562 658.537 L28.3562 654.24 L18.2347 654.24 L18.2347 648.352 Z" fill="#000000" fill-rule="evenodd" fill-opacity="1" /><path clip-path="url(#clip210)" d="M67.3143 613.754 Q73.68 616.237 75.6216 618.592 Q77.5631 620.948 77.5631 624.894 L77.5631 629.573 L72.6615 629.573 L72.6615 626.136 Q72.6615 623.717 71.5157 622.38 Q70.3699 621.043 66.1048 619.42 L63.4312 618.369 L28.3562 632.788 L28.3562 626.581 L56.238 615.441 L28.3562 604.301 L28.3562 598.095 L67.3143 613.754 Z" fill="#000000" fill-rule="evenodd" fill-opacity="1" /><polyline clip-path="url(#clip212)" style="stroke:#009af9; stroke-linecap:butt; stroke-linejoin:round; stroke-width:4; stroke-opacity:1; fill:none" points="
  310.845,86.1857 320.807,91.3136 330.769,96.5329 340.731,101.845 350.693,107.252 360.655,112.755 370.617,118.355 380.579,124.055 390.541,129.856 400.503,135.76 
  410.465,141.769 420.427,147.884 430.389,154.109 440.351,160.445 450.313,166.893 460.275,173.457 470.237,180.139 480.199,186.941 490.161,193.865 500.123,200.914 
  510.085,208.089 520.047,215.395 530.009,222.832 539.971,230.403 549.933,238.11 559.895,245.956 569.857,253.943 579.819,262.071 589.781,270.344 599.743,278.761 
  609.705,287.325 619.667,296.035 629.629,304.891 639.591,313.894 649.553,323.042 659.515,332.335 669.477,341.769 679.439,351.343 689.401,361.054 699.363,370.898 
  709.325,380.874 719.287,390.979 729.249,401.212 739.211,411.572 749.173,422.061 759.135,432.682 769.097,443.441 779.059,454.344 789.021,465.396 798.983,476.602 
  808.945,487.966 818.907,499.489 828.869,511.171 838.831,523.007 848.793,534.992 858.755,547.119 868.717,559.379 878.679,571.764 888.641,584.266 898.603,596.881 
  908.565,609.606 918.527,622.441 928.489,635.39 938.451,648.458 948.413,661.65 958.375,674.969 968.337,688.416 978.299,701.985 988.261,715.668 998.223,729.453 
  1008.19,743.326 1018.15,757.274 1028.11,771.287 1038.07,785.358 1048.03,799.487 1058,813.672 1067.96,827.916 1077.92,842.217 1087.88,856.571 1097.84,870.967 
  1107.81,885.39 1117.77,899.821 1127.73,914.243 1137.69,928.639 1147.65,942.998 1157.62,957.311 1167.58,971.573 1177.54,985.779 1187.5,999.918 1197.46,1013.98 
  1207.43,1027.94 1217.39,1041.78 1227.35,1055.47 1237.31,1069 1247.27,1082.35 1257.24,1095.51 1267.2,1108.47 1277.16,1121.21 1287.12,1133.73 1297.08,1146 
  1307.05,1158.01 1317.01,1169.73 1326.97,1181.14 1336.93,1192.24 1346.89,1203.01 1356.86,1213.45 1366.82,1223.55 1376.78,1233.31 1386.74,1242.7 1396.7,1251.73 
  1406.67,1260.39 1416.63,1268.67 1426.59,1276.56 1436.55,1284.09 1446.51,1291.24 1456.47,1298.03 1466.44,1304.46 1476.4,1310.53 1486.36,1316.24 1496.32,1321.62 
  1506.28,1326.65 1516.25,1331.37 1526.21,1335.78 1536.17,1339.89 1546.13,1343.72 1556.09,1347.28 1566.06,1350.58 1576.02,1353.62 1585.98,1356.44 1595.94,1359.03 
  1605.9,1361.42 1615.87,1363.61 1625.83,1365.63 1635.79,1367.47 1645.75,1369.15 1655.71,1370.68 1665.68,1372.08 1675.64,1373.35 1685.6,1374.51 1695.56,1375.55 
  1705.52,1376.5 1715.49,1377.35 1725.45,1378.12 1735.41,1378.82 1745.37,1379.44 1755.33,1380 1765.3,1380.5 1775.26,1380.95 1785.22,1381.35 1795.18,1381.71 
  1805.14,1382.03 1815.11,1382.31 1825.07,1382.56 1835.03,1382.78 1844.99,1382.98 1854.95,1383.15 1864.92,1383.3 1874.88,1383.43 1884.84,1383.55 1894.8,1383.65 
  1904.76,1383.74 1914.73,1383.81 1924.69,1383.88 1934.65,1383.94 1944.61,1383.99 1954.57,1384.03 1964.54,1384.07 1974.5,1384.1 1984.46,1384.12 1994.42,1384.14 
  2004.38,1384.16 2014.35,1384.18 2024.31,1384.19 2034.27,1384.2 2044.23,1384.21 2054.19,1384.22 2064.16,1384.22 2074.12,1384.23 2084.08,1384.23 2094.04,1384.23 
  2104,1384.23 2113.97,1384.24 2123.93,1384.24 2133.89,1384.24 2143.85,1384.24 2153.81,1384.24 2163.78,1384.24 2173.74,1384.24 2183.7,1384.24 2193.66,1384.24 
  2203.62,1384.24 2213.59,1384.24 2223.55,1384.24 2233.51,1384.24 2243.47,1384.24 2253.43,1384.24 2263.4,1384.24 2273.36,1384.24 2283.32,1384.24 2293.28,1384.24 
  
  "/>
</svg>
