<?xml version="1.0" encoding="utf-8"?>
<svg xmlns="http://www.w3.org/2000/svg" xmlns:xlink="http://www.w3.org/1999/xlink" width="600" height="400" viewBox="0 0 2400 1600">
<defs>
  <clipPath id="clip220">
    <rect x="0" y="0" width="2400" height="1600"/>
  </clipPath>
</defs>
<path clip-path="url(#clip220)" d="
M0 1600 L2400 1600 L2400 0 L0 0  Z
  " fill="#ffffff" fill-rule="evenodd" fill-opacity="1"/>
<defs>
  <clipPath id="clip221">
    <rect x="480" y="0" width="1681" height="1600"/>
  </clipPath>
</defs>
<path clip-path="url(#clip220)" d="
M257.204 1423.18 L2352.76 1423.18 L2352.76 47.2441 L257.204 47.2441  Z
  " fill="#ffffff" fill-rule="evenodd" fill-opacity="1"/>
<defs>
  <clipPath id="clip222">
    <rect x="257" y="47" width="2097" height="1377"/>
  </clipPath>
</defs>
<polyline clip-path="url(#clip220)" style="stroke:#000000; stroke-linecap:butt; stroke-linejoin:round; stroke-width:4; stroke-opacity:1; fill:none" points="
  257.204,1423.18 2352.76,1423.18 
  "/>
<polyline clip-path="url(#clip220)" style="stroke:#000000; stroke-linecap:butt; stroke-linejoin:round; stroke-width:4; stroke-opacity:1; fill:none" points="
  316.512,1423.18 316.512,1404.28 
  "/>
<polyline clip-path="url(#clip220)" style="stroke:#000000; stroke-linecap:butt; stroke-linejoin:round; stroke-width:4; stroke-opacity:1; fill:none" points="
  810.746,1423.18 810.746,1404.28 
  "/>
<polyline clip-path="url(#clip220)" style="stroke:#000000; stroke-linecap:butt; stroke-linejoin:round; stroke-width:4; stroke-opacity:1; fill:none" points="
  1304.98,1423.18 1304.98,1404.28 
  "/>
<polyline clip-path="url(#clip220)" style="stroke:#000000; stroke-linecap:butt; stroke-linejoin:round; stroke-width:4; stroke-opacity:1; fill:none" points="
  1799.21,1423.18 1799.21,1404.28 
  "/>
<polyline clip-path="url(#clip220)" style="stroke:#000000; stroke-linecap:butt; stroke-linejoin:round; stroke-width:4; stroke-opacity:1; fill:none" points="
  2293.45,1423.18 2293.45,1404.28 
  "/>
<path clip-path="url(#clip220)" d="M278.816 1454.1 Q275.204 1454.1 273.376 1457.66 Q271.57 1461.2 271.57 1468.33 Q271.57 1475.44 273.376 1479.01 Q275.204 1482.55 278.816 1482.55 Q282.45 1482.55 284.255 1479.01 Q286.084 1475.44 286.084 1468.33 Q286.084 1461.2 284.255 1457.66 Q282.45 1454.1 278.816 1454.1 M278.816 1450.39 Q284.626 1450.39 287.681 1455 Q290.76 1459.58 290.76 1468.33 Q290.76 1477.06 287.681 1481.67 Q284.626 1486.25 278.816 1486.25 Q273.005 1486.25 269.927 1481.67 Q266.871 1477.06 266.871 1468.33 Q266.871 1459.58 269.927 1455 Q273.005 1450.39 278.816 1450.39 Z" fill="#000000" fill-rule="evenodd" fill-opacity="1" /><path clip-path="url(#clip220)" d="M298.977 1479.7 L303.862 1479.7 L303.862 1485.58 L298.977 1485.58 L298.977 1479.7 Z" fill="#000000" fill-rule="evenodd" fill-opacity="1" /><path clip-path="url(#clip220)" d="M324.047 1454.1 Q320.436 1454.1 318.607 1457.66 Q316.801 1461.2 316.801 1468.33 Q316.801 1475.44 318.607 1479.01 Q320.436 1482.55 324.047 1482.55 Q327.681 1482.55 329.487 1479.01 Q331.315 1475.44 331.315 1468.33 Q331.315 1461.2 329.487 1457.66 Q327.681 1454.1 324.047 1454.1 M324.047 1450.39 Q329.857 1450.39 332.912 1455 Q335.991 1459.58 335.991 1468.33 Q335.991 1477.06 332.912 1481.67 Q329.857 1486.25 324.047 1486.25 Q318.237 1486.25 315.158 1481.67 Q312.102 1477.06 312.102 1468.33 Q312.102 1459.58 315.158 1455 Q318.237 1450.39 324.047 1450.39 Z" fill="#000000" fill-rule="evenodd" fill-opacity="1" /><path clip-path="url(#clip220)" d="M354.209 1454.1 Q350.598 1454.1 348.769 1457.66 Q346.963 1461.2 346.963 1468.33 Q346.963 1475.44 348.769 1479.01 Q350.598 1482.55 354.209 1482.55 Q357.843 1482.55 359.648 1479.01 Q361.477 1475.44 361.477 1468.33 Q361.477 1461.2 359.648 1457.66 Q357.843 1454.1 354.209 1454.1 M354.209 1450.39 Q360.019 1450.39 363.074 1455 Q366.153 1459.58 366.153 1468.33 Q366.153 1477.06 363.074 1481.67 Q360.019 1486.25 354.209 1486.25 Q348.399 1486.25 345.32 1481.67 Q342.264 1477.06 342.264 1468.33 Q342.264 1459.58 345.32 1455 Q348.399 1450.39 354.209 1450.39 Z" fill="#000000" fill-rule="evenodd" fill-opacity="1" /><path clip-path="url(#clip220)" d="M773.547 1454.1 Q769.936 1454.1 768.107 1457.66 Q766.302 1461.2 766.302 1468.33 Q766.302 1475.44 768.107 1479.01 Q769.936 1482.55 773.547 1482.55 Q777.181 1482.55 778.987 1479.01 Q780.816 1475.44 780.816 1468.33 Q780.816 1461.2 778.987 1457.66 Q777.181 1454.1 773.547 1454.1 M773.547 1450.39 Q779.357 1450.39 782.413 1455 Q785.492 1459.58 785.492 1468.33 Q785.492 1477.06 782.413 1481.67 Q779.357 1486.25 773.547 1486.25 Q767.737 1486.25 764.658 1481.67 Q761.603 1477.06 761.603 1468.33 Q761.603 1459.58 764.658 1455 Q767.737 1450.39 773.547 1450.39 Z" fill="#000000" fill-rule="evenodd" fill-opacity="1" /><path clip-path="url(#clip220)" d="M793.709 1479.7 L798.593 1479.7 L798.593 1485.58 L793.709 1485.58 L793.709 1479.7 Z" fill="#000000" fill-rule="evenodd" fill-opacity="1" /><path clip-path="url(#clip220)" d="M812.806 1481.64 L829.126 1481.64 L829.126 1485.58 L807.181 1485.58 L807.181 1481.64 Q809.843 1478.89 814.427 1474.26 Q819.033 1469.61 820.214 1468.27 Q822.459 1465.74 823.339 1464.01 Q824.241 1462.25 824.241 1460.56 Q824.241 1457.8 822.297 1456.07 Q820.376 1454.33 817.274 1454.33 Q815.075 1454.33 812.621 1455.09 Q810.19 1455.86 807.413 1457.41 L807.413 1452.69 Q810.237 1451.55 812.69 1450.97 Q815.144 1450.39 817.181 1450.39 Q822.552 1450.39 825.746 1453.08 Q828.94 1455.77 828.94 1460.26 Q828.94 1462.39 828.13 1464.31 Q827.343 1466.2 825.237 1468.8 Q824.658 1469.47 821.556 1472.69 Q818.454 1475.88 812.806 1481.64 Z" fill="#000000" fill-rule="evenodd" fill-opacity="1" /><path clip-path="url(#clip220)" d="M838.987 1451.02 L857.343 1451.02 L857.343 1454.96 L843.269 1454.96 L843.269 1463.43 Q844.288 1463.08 845.306 1462.92 Q846.325 1462.73 847.343 1462.73 Q853.13 1462.73 856.51 1465.9 Q859.889 1469.08 859.889 1474.49 Q859.889 1480.07 856.417 1483.17 Q852.945 1486.25 846.625 1486.25 Q844.45 1486.25 842.181 1485.88 Q839.936 1485.51 837.528 1484.77 L837.528 1480.07 Q839.612 1481.2 841.834 1481.76 Q844.056 1482.32 846.533 1482.32 Q850.537 1482.32 852.875 1480.21 Q855.213 1478.1 855.213 1474.49 Q855.213 1470.88 852.875 1468.77 Q850.537 1466.67 846.533 1466.67 Q844.658 1466.67 842.783 1467.08 Q840.931 1467.5 838.987 1468.38 L838.987 1451.02 Z" fill="#000000" fill-rule="evenodd" fill-opacity="1" /><path clip-path="url(#clip220)" d="M1267.28 1454.1 Q1263.67 1454.1 1261.84 1457.66 Q1260.04 1461.2 1260.04 1468.33 Q1260.04 1475.44 1261.84 1479.01 Q1263.67 1482.55 1267.28 1482.55 Q1270.92 1482.55 1272.72 1479.01 Q1274.55 1475.44 1274.55 1468.33 Q1274.55 1461.2 1272.72 1457.66 Q1270.92 1454.1 1267.28 1454.1 M1267.28 1450.39 Q1273.09 1450.39 1276.15 1455 Q1279.23 1459.58 1279.23 1468.33 Q1279.23 1477.06 1276.15 1481.67 Q1273.09 1486.25 1267.28 1486.25 Q1261.47 1486.25 1258.39 1481.67 Q1255.34 1477.06 1255.34 1468.33 Q1255.34 1459.58 1258.39 1455 Q1261.47 1450.39 1267.28 1450.39 Z" fill="#000000" fill-rule="evenodd" fill-opacity="1" /><path clip-path="url(#clip220)" d="M1287.45 1479.7 L1292.33 1479.7 L1292.33 1485.58 L1287.45 1485.58 L1287.45 1479.7 Z" fill="#000000" fill-rule="evenodd" fill-opacity="1" /><path clip-path="url(#clip220)" d="M1302.56 1451.02 L1320.92 1451.02 L1320.92 1454.96 L1306.84 1454.96 L1306.84 1463.43 Q1307.86 1463.08 1308.88 1462.92 Q1309.9 1462.73 1310.92 1462.73 Q1316.7 1462.73 1320.08 1465.9 Q1323.46 1469.08 1323.46 1474.49 Q1323.46 1480.07 1319.99 1483.17 Q1316.52 1486.25 1310.2 1486.25 Q1308.02 1486.25 1305.76 1485.88 Q1303.51 1485.51 1301.1 1484.77 L1301.1 1480.07 Q1303.19 1481.2 1305.41 1481.76 Q1307.63 1482.32 1310.11 1482.32 Q1314.11 1482.32 1316.45 1480.21 Q1318.79 1478.1 1318.79 1474.49 Q1318.79 1470.88 1316.45 1468.77 Q1314.11 1466.67 1310.11 1466.67 Q1308.23 1466.67 1306.36 1467.08 Q1304.51 1467.5 1302.56 1468.38 L1302.56 1451.02 Z" fill="#000000" fill-rule="evenodd" fill-opacity="1" /><path clip-path="url(#clip220)" d="M1342.68 1454.1 Q1339.07 1454.1 1337.24 1457.66 Q1335.43 1461.2 1335.43 1468.33 Q1335.43 1475.44 1337.24 1479.01 Q1339.07 1482.55 1342.68 1482.55 Q1346.31 1482.55 1348.12 1479.01 Q1349.95 1475.44 1349.95 1468.33 Q1349.95 1461.2 1348.12 1457.66 Q1346.31 1454.1 1342.68 1454.1 M1342.68 1450.39 Q1348.49 1450.39 1351.54 1455 Q1354.62 1459.58 1354.62 1468.33 Q1354.62 1477.06 1351.54 1481.67 Q1348.49 1486.25 1342.68 1486.25 Q1336.87 1486.25 1333.79 1481.67 Q1330.73 1477.06 1330.73 1468.33 Q1330.73 1459.58 1333.79 1455 Q1336.87 1450.39 1342.68 1450.39 Z" fill="#000000" fill-rule="evenodd" fill-opacity="1" /><path clip-path="url(#clip220)" d="M1762.02 1454.1 Q1758.4 1454.1 1756.58 1457.66 Q1754.77 1461.2 1754.77 1468.33 Q1754.77 1475.44 1756.58 1479.01 Q1758.4 1482.55 1762.02 1482.55 Q1765.65 1482.55 1767.45 1479.01 Q1769.28 1475.44 1769.28 1468.33 Q1769.28 1461.2 1767.45 1457.66 Q1765.65 1454.1 1762.02 1454.1 M1762.02 1450.39 Q1767.83 1450.39 1770.88 1455 Q1773.96 1459.58 1773.96 1468.33 Q1773.96 1477.06 1770.88 1481.67 Q1767.83 1486.25 1762.02 1486.25 Q1756.2 1486.25 1753.13 1481.67 Q1750.07 1477.06 1750.07 1468.33 Q1750.07 1459.58 1753.13 1455 Q1756.2 1450.39 1762.02 1450.39 Z" fill="#000000" fill-rule="evenodd" fill-opacity="1" /><path clip-path="url(#clip220)" d="M1782.18 1479.7 L1787.06 1479.7 L1787.06 1485.58 L1782.18 1485.58 L1782.18 1479.7 Z" fill="#000000" fill-rule="evenodd" fill-opacity="1" /><path clip-path="url(#clip220)" d="M1796.07 1451.02 L1818.29 1451.02 L1818.29 1453.01 L1805.74 1485.58 L1800.86 1485.58 L1812.66 1454.96 L1796.07 1454.96 L1796.07 1451.02 Z" fill="#000000" fill-rule="evenodd" fill-opacity="1" /><path clip-path="url(#clip220)" d="M1827.45 1451.02 L1845.81 1451.02 L1845.81 1454.96 L1831.74 1454.96 L1831.74 1463.43 Q1832.76 1463.08 1833.77 1462.92 Q1834.79 1462.73 1835.81 1462.73 Q1841.6 1462.73 1844.98 1465.9 Q1848.36 1469.08 1848.36 1474.49 Q1848.36 1480.07 1844.88 1483.17 Q1841.41 1486.25 1835.09 1486.25 Q1832.92 1486.25 1830.65 1485.88 Q1828.4 1485.51 1826 1484.77 L1826 1480.07 Q1828.08 1481.2 1830.3 1481.76 Q1832.52 1482.32 1835 1482.32 Q1839.01 1482.32 1841.34 1480.21 Q1843.68 1478.1 1843.68 1474.49 Q1843.68 1470.88 1841.34 1468.77 Q1839.01 1466.67 1835 1466.67 Q1833.13 1466.67 1831.25 1467.08 Q1829.4 1467.5 1827.45 1468.38 L1827.45 1451.02 Z" fill="#000000" fill-rule="evenodd" fill-opacity="1" /><path clip-path="url(#clip220)" d="M2245.52 1481.64 L2253.16 1481.64 L2253.16 1455.28 L2244.85 1456.95 L2244.85 1452.69 L2253.11 1451.02 L2257.79 1451.02 L2257.79 1481.64 L2265.43 1481.64 L2265.43 1485.58 L2245.52 1485.58 L2245.52 1481.64 Z" fill="#000000" fill-rule="evenodd" fill-opacity="1" /><path clip-path="url(#clip220)" d="M2274.87 1479.7 L2279.76 1479.7 L2279.76 1485.58 L2274.87 1485.58 L2274.87 1479.7 Z" fill="#000000" fill-rule="evenodd" fill-opacity="1" /><path clip-path="url(#clip220)" d="M2299.94 1454.1 Q2296.33 1454.1 2294.5 1457.66 Q2292.7 1461.2 2292.7 1468.33 Q2292.7 1475.44 2294.5 1479.01 Q2296.33 1482.55 2299.94 1482.55 Q2303.58 1482.55 2305.38 1479.01 Q2307.21 1475.44 2307.21 1468.33 Q2307.21 1461.2 2305.38 1457.66 Q2303.58 1454.1 2299.94 1454.1 M2299.94 1450.39 Q2305.75 1450.39 2308.81 1455 Q2311.89 1459.58 2311.89 1468.33 Q2311.89 1477.06 2308.81 1481.67 Q2305.75 1486.25 2299.94 1486.25 Q2294.13 1486.25 2291.05 1481.67 Q2288 1477.06 2288 1468.33 Q2288 1459.58 2291.05 1455 Q2294.13 1450.39 2299.94 1450.39 Z" fill="#000000" fill-rule="evenodd" fill-opacity="1" /><path clip-path="url(#clip220)" d="M2330.1 1454.1 Q2326.49 1454.1 2324.66 1457.66 Q2322.86 1461.2 2322.86 1468.33 Q2322.86 1475.44 2324.66 1479.01 Q2326.49 1482.55 2330.1 1482.55 Q2333.74 1482.55 2335.54 1479.01 Q2337.37 1475.44 2337.37 1468.33 Q2337.37 1461.2 2335.54 1457.66 Q2333.74 1454.1 2330.1 1454.1 M2330.1 1450.39 Q2335.91 1450.39 2338.97 1455 Q2342.05 1459.58 2342.05 1468.33 Q2342.05 1477.06 2338.97 1481.67 Q2335.91 1486.25 2330.1 1486.25 Q2324.29 1486.25 2321.21 1481.67 Q2318.16 1477.06 2318.16 1468.33 Q2318.16 1459.58 2321.21 1455 Q2324.29 1450.39 2330.1 1450.39 Z" fill="#000000" fill-rule="evenodd" fill-opacity="1" /><path clip-path="url(#clip220)" d="M1208.92 1522.27 L1208.92 1532.4 L1220.98 1532.4 L1220.98 1536.95 L1208.92 1536.95 L1208.92 1556.3 Q1208.92 1560.66 1210.1 1561.9 Q1211.31 1563.14 1214.97 1563.14 L1220.98 1563.14 L1220.98 1568.04 L1214.97 1568.04 Q1208.19 1568.04 1205.61 1565.53 Q1203.03 1562.98 1203.03 1556.3 L1203.03 1536.95 L1198.74 1536.95 L1198.74 1532.4 L1203.03 1532.4 L1203.03 1522.27 L1208.92 1522.27 Z" fill="#000000" fill-rule="evenodd" fill-opacity="1" /><path clip-path="url(#clip220)" d="M1263.48 1518.58 Q1259.21 1525.9 1257.14 1533.06 Q1255.07 1540.23 1255.07 1547.58 Q1255.07 1554.93 1257.14 1562.16 Q1259.24 1569.35 1263.48 1576.64 L1258.38 1576.64 Q1253.61 1569.16 1251.22 1561.93 Q1248.87 1554.71 1248.87 1547.58 Q1248.87 1540.48 1251.22 1533.29 Q1253.58 1526.09 1258.38 1518.58 L1263.48 1518.58 Z" fill="#000000" fill-rule="evenodd" fill-opacity="1" /><path clip-path="url(#clip220)" d="M1291.04 1550.12 Q1283.94 1550.12 1281.2 1551.75 Q1278.47 1553.37 1278.47 1557.29 Q1278.47 1560.4 1280.5 1562.25 Q1282.57 1564.07 1286.11 1564.07 Q1290.98 1564.07 1293.9 1560.63 Q1296.86 1557.16 1296.86 1551.43 L1296.86 1550.12 L1291.04 1550.12 M1302.72 1547.71 L1302.72 1568.04 L1296.86 1568.04 L1296.86 1562.63 Q1294.86 1565.88 1291.87 1567.44 Q1288.87 1568.97 1284.55 1568.97 Q1279.07 1568.97 1275.83 1565.91 Q1272.61 1562.82 1272.61 1557.67 Q1272.61 1551.65 1276.62 1548.6 Q1280.66 1545.54 1288.65 1545.54 L1296.86 1545.54 L1296.86 1544.97 Q1296.86 1540.93 1294.19 1538.73 Q1291.55 1536.5 1286.74 1536.5 Q1283.69 1536.5 1280.79 1537.23 Q1277.89 1537.97 1275.22 1539.43 L1275.22 1534.02 Q1278.43 1532.78 1281.46 1532.17 Q1284.48 1531.54 1287.35 1531.54 Q1295.08 1531.54 1298.9 1535.55 Q1302.72 1539.56 1302.72 1547.71 Z" fill="#000000" fill-rule="evenodd" fill-opacity="1" /><path clip-path="url(#clip220)" d="M1315.61 1559.96 L1322.33 1559.96 L1322.33 1568.04 L1315.61 1568.04 L1315.61 1559.96 Z" fill="#000000" fill-rule="evenodd" fill-opacity="1" /><path clip-path="url(#clip220)" d="M1334.9 1553.98 L1334.9 1532.4 L1340.76 1532.4 L1340.76 1553.75 Q1340.76 1558.81 1342.73 1561.36 Q1344.7 1563.87 1348.65 1563.87 Q1353.39 1563.87 1356.13 1560.85 Q1358.9 1557.83 1358.9 1552.61 L1358.9 1532.4 L1364.75 1532.4 L1364.75 1568.04 L1358.9 1568.04 L1358.9 1562.57 Q1356.76 1565.82 1353.93 1567.41 Q1351.13 1568.97 1347.41 1568.97 Q1341.26 1568.97 1338.08 1565.15 Q1334.9 1561.33 1334.9 1553.98 M1349.64 1531.54 L1349.64 1531.54 Z" fill="#000000" fill-rule="evenodd" fill-opacity="1" /><path clip-path="url(#clip220)" d="M1377.64 1559.96 L1384.36 1559.96 L1384.36 1568.04 L1377.64 1568.04 L1377.64 1559.96 Z" fill="#000000" fill-rule="evenodd" fill-opacity="1" /><path clip-path="url(#clip220)" d="M1396.61 1518.58 L1401.71 1518.58 Q1406.48 1526.09 1408.84 1533.29 Q1411.22 1540.48 1411.22 1547.58 Q1411.22 1554.71 1408.84 1561.93 Q1406.48 1569.16 1401.71 1576.64 L1396.61 1576.64 Q1400.85 1569.35 1402.92 1562.16 Q1405.02 1554.93 1405.02 1547.58 Q1405.02 1540.23 1402.92 1533.06 Q1400.85 1525.9 1396.61 1518.58 Z" fill="#000000" fill-rule="evenodd" fill-opacity="1" /><polyline clip-path="url(#clip220)" style="stroke:#000000; stroke-linecap:butt; stroke-linejoin:round; stroke-width:4; stroke-opacity:1; fill:none" points="
  257.204,1423.18 257.204,47.2441 
  "/>
<polyline clip-path="url(#clip220)" style="stroke:#000000; stroke-linecap:butt; stroke-linejoin:round; stroke-width:4; stroke-opacity:1; fill:none" points="
  257.204,1384.99 276.102,1384.99 
  "/>
<polyline clip-path="url(#clip220)" style="stroke:#000000; stroke-linecap:butt; stroke-linejoin:round; stroke-width:4; stroke-opacity:1; fill:none" points="
  257.204,1126.31 276.102,1126.31 
  "/>
<polyline clip-path="url(#clip220)" style="stroke:#000000; stroke-linecap:butt; stroke-linejoin:round; stroke-width:4; stroke-opacity:1; fill:none" points="
  257.204,867.632 276.102,867.632 
  "/>
<polyline clip-path="url(#clip220)" style="stroke:#000000; stroke-linecap:butt; stroke-linejoin:round; stroke-width:4; stroke-opacity:1; fill:none" points="
  257.204,608.953 276.102,608.953 
  "/>
<polyline clip-path="url(#clip220)" style="stroke:#000000; stroke-linecap:butt; stroke-linejoin:round; stroke-width:4; stroke-opacity:1; fill:none" points="
  257.204,350.274 276.102,350.274 
  "/>
<polyline clip-path="url(#clip220)" style="stroke:#000000; stroke-linecap:butt; stroke-linejoin:round; stroke-width:4; stroke-opacity:1; fill:none" points="
  257.204,91.5945 276.102,91.5945 
  "/>
<path clip-path="url(#clip220)" d="M115.256 1385.44 L144.931 1385.44 L144.931 1389.38 L115.256 1389.38 L115.256 1385.44 Z" fill="#000000" fill-rule="evenodd" fill-opacity="1" /><path clip-path="url(#clip220)" d="M159.052 1398.33 L175.371 1398.33 L175.371 1402.27 L153.427 1402.27 L153.427 1398.33 Q156.089 1395.58 160.672 1390.95 Q165.278 1386.3 166.459 1384.96 Q168.704 1382.43 169.584 1380.7 Q170.487 1378.94 170.487 1377.25 Q170.487 1374.49 168.542 1372.76 Q166.621 1371.02 163.519 1371.02 Q161.32 1371.02 158.866 1371.78 Q156.436 1372.55 153.658 1374.1 L153.658 1369.38 Q156.482 1368.24 158.936 1367.66 Q161.39 1367.08 163.427 1367.08 Q168.797 1367.08 171.991 1369.77 Q175.186 1372.46 175.186 1376.95 Q175.186 1379.08 174.376 1381 Q173.589 1382.9 171.482 1385.49 Q170.903 1386.16 167.802 1389.38 Q164.7 1392.57 159.052 1398.33 Z" fill="#000000" fill-rule="evenodd" fill-opacity="1" /><path clip-path="url(#clip220)" d="M185.186 1396.39 L190.07 1396.39 L190.07 1402.27 L185.186 1402.27 L185.186 1396.39 Z" fill="#000000" fill-rule="evenodd" fill-opacity="1" /><path clip-path="url(#clip220)" d="M200.301 1367.71 L218.658 1367.71 L218.658 1371.65 L204.584 1371.65 L204.584 1380.12 Q205.602 1379.77 206.621 1379.61 Q207.639 1379.42 208.658 1379.42 Q214.445 1379.42 217.824 1382.59 Q221.204 1385.77 221.204 1391.18 Q221.204 1396.76 217.732 1399.86 Q214.26 1402.94 207.94 1402.94 Q205.764 1402.94 203.496 1402.57 Q201.25 1402.2 198.843 1401.46 L198.843 1396.76 Q200.926 1397.89 203.149 1398.45 Q205.371 1399.01 207.848 1399.01 Q211.852 1399.01 214.19 1396.9 Q216.528 1394.79 216.528 1391.18 Q216.528 1387.57 214.19 1385.46 Q211.852 1383.36 207.848 1383.36 Q205.973 1383.36 204.098 1383.77 Q202.246 1384.19 200.301 1385.07 L200.301 1367.71 Z" fill="#000000" fill-rule="evenodd" fill-opacity="1" /><path clip-path="url(#clip220)" d="M114.26 1126.76 L143.936 1126.76 L143.936 1130.7 L114.26 1130.7 L114.26 1126.76 Z" fill="#000000" fill-rule="evenodd" fill-opacity="1" /><path clip-path="url(#clip220)" d="M158.056 1139.66 L174.376 1139.66 L174.376 1143.59 L152.431 1143.59 L152.431 1139.66 Q155.093 1136.9 159.677 1132.27 Q164.283 1127.62 165.464 1126.28 Q167.709 1123.75 168.589 1122.02 Q169.491 1120.26 169.491 1118.57 Q169.491 1115.81 167.547 1114.08 Q165.626 1112.34 162.524 1112.34 Q160.325 1112.34 157.871 1113.1 Q155.44 1113.87 152.663 1115.42 L152.663 1110.7 Q155.487 1109.56 157.94 1108.98 Q160.394 1108.41 162.431 1108.41 Q167.802 1108.41 170.996 1111.09 Q174.19 1113.78 174.19 1118.27 Q174.19 1120.4 173.38 1122.32 Q172.593 1124.22 170.487 1126.81 Q169.908 1127.48 166.806 1130.7 Q163.704 1133.89 158.056 1139.66 Z" fill="#000000" fill-rule="evenodd" fill-opacity="1" /><path clip-path="url(#clip220)" d="M184.19 1137.71 L189.075 1137.71 L189.075 1143.59 L184.19 1143.59 L184.19 1137.71 Z" fill="#000000" fill-rule="evenodd" fill-opacity="1" /><path clip-path="url(#clip220)" d="M209.26 1112.11 Q205.649 1112.11 203.82 1115.67 Q202.014 1119.22 202.014 1126.35 Q202.014 1133.45 203.82 1137.02 Q205.649 1140.56 209.26 1140.56 Q212.894 1140.56 214.699 1137.02 Q216.528 1133.45 216.528 1126.35 Q216.528 1119.22 214.699 1115.67 Q212.894 1112.11 209.26 1112.11 M209.26 1108.41 Q215.07 1108.41 218.125 1113.01 Q221.204 1117.6 221.204 1126.35 Q221.204 1135.07 218.125 1139.68 Q215.07 1144.26 209.26 1144.26 Q203.449 1144.26 200.371 1139.68 Q197.315 1135.07 197.315 1126.35 Q197.315 1117.6 200.371 1113.01 Q203.449 1108.41 209.26 1108.41 Z" fill="#000000" fill-rule="evenodd" fill-opacity="1" /><path clip-path="url(#clip220)" d="M115.256 868.083 L144.931 868.083 L144.931 872.018 L115.256 872.018 L115.256 868.083 Z" fill="#000000" fill-rule="evenodd" fill-opacity="1" /><path clip-path="url(#clip220)" d="M155.834 880.977 L163.473 880.977 L163.473 854.611 L155.163 856.278 L155.163 852.018 L163.427 850.352 L168.102 850.352 L168.102 880.977 L175.741 880.977 L175.741 884.912 L155.834 884.912 L155.834 880.977 Z" fill="#000000" fill-rule="evenodd" fill-opacity="1" /><path clip-path="url(#clip220)" d="M185.186 879.032 L190.07 879.032 L190.07 884.912 L185.186 884.912 L185.186 879.032 Z" fill="#000000" fill-rule="evenodd" fill-opacity="1" /><path clip-path="url(#clip220)" d="M200.301 850.352 L218.658 850.352 L218.658 854.287 L204.584 854.287 L204.584 862.759 Q205.602 862.412 206.621 862.25 Q207.639 862.065 208.658 862.065 Q214.445 862.065 217.824 865.236 Q221.204 868.407 221.204 873.824 Q221.204 879.403 217.732 882.504 Q214.26 885.583 207.94 885.583 Q205.764 885.583 203.496 885.213 Q201.25 884.842 198.843 884.102 L198.843 879.403 Q200.926 880.537 203.149 881.092 Q205.371 881.648 207.848 881.648 Q211.852 881.648 214.19 879.541 Q216.528 877.435 216.528 873.824 Q216.528 870.213 214.19 868.106 Q211.852 866 207.848 866 Q205.973 866 204.098 866.416 Q202.246 866.833 200.301 867.713 L200.301 850.352 Z" fill="#000000" fill-rule="evenodd" fill-opacity="1" /><path clip-path="url(#clip220)" d="M114.26 609.404 L143.936 609.404 L143.936 613.339 L114.26 613.339 L114.26 609.404 Z" fill="#000000" fill-rule="evenodd" fill-opacity="1" /><path clip-path="url(#clip220)" d="M154.839 622.297 L162.477 622.297 L162.477 595.932 L154.167 597.599 L154.167 593.339 L162.431 591.673 L167.107 591.673 L167.107 622.297 L174.746 622.297 L174.746 626.233 L154.839 626.233 L154.839 622.297 Z" fill="#000000" fill-rule="evenodd" fill-opacity="1" /><path clip-path="url(#clip220)" d="M184.19 620.353 L189.075 620.353 L189.075 626.233 L184.19 626.233 L184.19 620.353 Z" fill="#000000" fill-rule="evenodd" fill-opacity="1" /><path clip-path="url(#clip220)" d="M209.26 594.751 Q205.649 594.751 203.82 598.316 Q202.014 601.858 202.014 608.987 Q202.014 616.094 203.82 619.659 Q205.649 623.2 209.26 623.2 Q212.894 623.2 214.699 619.659 Q216.528 616.094 216.528 608.987 Q216.528 601.858 214.699 598.316 Q212.894 594.751 209.26 594.751 M209.26 591.048 Q215.07 591.048 218.125 595.654 Q221.204 600.237 221.204 608.987 Q221.204 617.714 218.125 622.321 Q215.07 626.904 209.26 626.904 Q203.449 626.904 200.371 622.321 Q197.315 617.714 197.315 608.987 Q197.315 600.237 200.371 595.654 Q203.449 591.048 209.26 591.048 Z" fill="#000000" fill-rule="evenodd" fill-opacity="1" /><path clip-path="url(#clip220)" d="M115.256 350.725 L144.931 350.725 L144.931 354.66 L115.256 354.66 L115.256 350.725 Z" fill="#000000" fill-rule="evenodd" fill-opacity="1" /><path clip-path="url(#clip220)" d="M165.024 336.072 Q161.413 336.072 159.584 339.637 Q157.778 343.179 157.778 350.308 Q157.778 357.415 159.584 360.98 Q161.413 364.521 165.024 364.521 Q168.658 364.521 170.464 360.98 Q172.292 357.415 172.292 350.308 Q172.292 343.179 170.464 339.637 Q168.658 336.072 165.024 336.072 M165.024 332.369 Q170.834 332.369 173.889 336.975 Q176.968 341.558 176.968 350.308 Q176.968 359.035 173.889 363.642 Q170.834 368.225 165.024 368.225 Q159.214 368.225 156.135 363.642 Q153.079 359.035 153.079 350.308 Q153.079 341.558 156.135 336.975 Q159.214 332.369 165.024 332.369 Z" fill="#000000" fill-rule="evenodd" fill-opacity="1" /><path clip-path="url(#clip220)" d="M185.186 361.674 L190.07 361.674 L190.07 367.554 L185.186 367.554 L185.186 361.674 Z" fill="#000000" fill-rule="evenodd" fill-opacity="1" /><path clip-path="url(#clip220)" d="M200.301 332.994 L218.658 332.994 L218.658 336.929 L204.584 336.929 L204.584 345.401 Q205.602 345.054 206.621 344.892 Q207.639 344.706 208.658 344.706 Q214.445 344.706 217.824 347.878 Q221.204 351.049 221.204 356.466 Q221.204 362.044 217.732 365.146 Q214.26 368.225 207.94 368.225 Q205.764 368.225 203.496 367.854 Q201.25 367.484 198.843 366.743 L198.843 362.044 Q200.926 363.179 203.149 363.734 Q205.371 364.29 207.848 364.29 Q211.852 364.29 214.19 362.183 Q216.528 360.077 216.528 356.466 Q216.528 352.855 214.19 350.748 Q211.852 348.642 207.848 348.642 Q205.973 348.642 204.098 349.058 Q202.246 349.475 200.301 350.355 L200.301 332.994 Z" fill="#000000" fill-rule="evenodd" fill-opacity="1" /><path clip-path="url(#clip220)" d="M164.028 77.3932 Q160.417 77.3932 158.589 80.958 Q156.783 84.4996 156.783 91.6292 Q156.783 98.7357 158.589 102.3 Q160.417 105.842 164.028 105.842 Q167.663 105.842 169.468 102.3 Q171.297 98.7357 171.297 91.6292 Q171.297 84.4996 169.468 80.958 Q167.663 77.3932 164.028 77.3932 M164.028 73.6895 Q169.839 73.6895 172.894 78.2959 Q175.973 82.8793 175.973 91.6292 Q175.973 100.356 172.894 104.962 Q169.839 109.546 164.028 109.546 Q158.218 109.546 155.14 104.962 Q152.084 100.356 152.084 91.6292 Q152.084 82.8793 155.14 78.2959 Q158.218 73.6895 164.028 73.6895 Z" fill="#000000" fill-rule="evenodd" fill-opacity="1" /><path clip-path="url(#clip220)" d="M184.19 102.995 L189.075 102.995 L189.075 108.874 L184.19 108.874 L184.19 102.995 Z" fill="#000000" fill-rule="evenodd" fill-opacity="1" /><path clip-path="url(#clip220)" d="M209.26 77.3932 Q205.649 77.3932 203.82 80.958 Q202.014 84.4996 202.014 91.6292 Q202.014 98.7357 203.82 102.3 Q205.649 105.842 209.26 105.842 Q212.894 105.842 214.699 102.3 Q216.528 98.7357 216.528 91.6292 Q216.528 84.4996 214.699 80.958 Q212.894 77.3932 209.26 77.3932 M209.26 73.6895 Q215.07 73.6895 218.125 78.2959 Q221.204 82.8793 221.204 91.6292 Q221.204 100.356 218.125 104.962 Q215.07 109.546 209.26 109.546 Q203.449 109.546 200.371 104.962 Q197.315 100.356 197.315 91.6292 Q197.315 82.8793 200.371 78.2959 Q203.449 73.6895 209.26 73.6895 Z" fill="#000000" fill-rule="evenodd" fill-opacity="1" /><path clip-path="url(#clip220)" d="M58.3387 784.96 L64.0042 784.96 L64.0042 804.057 L58.3387 804.057 Q55.2513 798.423 49.9678 795.272 Q44.6842 792.121 38.2549 792.121 Q30.616 792.121 26.0009 796.323 Q21.3858 800.524 21.3858 807.399 Q21.3858 814.274 26.0327 818.507 Q30.6479 822.709 38.2549 822.709 Q44.6842 822.709 49.9678 819.558 Q55.2513 816.375 58.3387 810.709 L64.0042 810.709 L64.0042 829.806 L58.3387 829.806 L58.3387 819.653 Q53.9145 824.682 49.1721 827.005 Q44.4296 829.297 38.5732 829.297 Q28.4517 829.297 22.1815 823.186 Q15.9112 817.107 15.9112 807.399 Q15.9112 797.755 22.1815 791.612 Q28.4199 785.501 38.2549 785.501 Q44.4296 785.501 49.1402 787.761 Q53.8509 790.021 58.3387 795.145 L58.3387 784.96 Z" fill="#000000" fill-rule="evenodd" fill-opacity="1" /><path clip-path="url(#clip220)" d="M16.4842 745.206 L16.4842 739.795 L70.0516 756.346 L70.0516 761.757 L16.4842 745.206 Z" fill="#000000" fill-rule="evenodd" fill-opacity="1" /><path clip-path="url(#clip220)" d="M64.9272 701.569 Q64.9272 714.778 46.021 714.778 Q38.5413 714.778 28.3562 709.845 L28.3562 703.543 Q38.5413 708.094 46.1802 708.094 Q59.9619 708.094 59.9619 701.028 Q59.9619 694.567 42.8382 694.567 L42.8382 689.156 Q59.9619 689.156 59.9619 682.695 Q59.9619 675.629 46.1802 675.629 Q38.5413 675.629 28.3562 680.18 L28.3562 673.878 Q38.5413 668.945 46.021 668.945 Q64.9272 668.945 64.9272 682.154 Q64.9272 690.811 55.4105 691.862 Q64.9272 693.166 64.9272 701.569 Z" fill="#000000" fill-rule="evenodd" fill-opacity="1" /><path clip-path="url(#clip220)" d="M42.4562 646.347 Q39.719 647.938 39.719 651.153 Q39.719 654.367 42.4562 655.959 Q45.1935 657.582 50.668 657.582 Q56.1743 657.582 58.9116 655.959 Q61.6488 654.367 61.6488 651.153 Q61.6488 647.938 58.9116 646.347 Q56.1743 644.723 50.668 644.723 Q45.1935 644.723 42.4562 646.347 M36.8862 651.153 Q36.8862 646.028 40.4192 643.323 Q43.9522 640.618 50.668 640.618 Q57.4157 640.618 60.9486 643.323 Q64.4816 646.028 64.4816 651.153 Q64.4816 656.309 60.9486 659.014 Q57.4157 661.72 50.668 661.72 Q43.9522 661.72 40.4192 659.014 Q36.8862 656.309 36.8862 651.153 Z" fill="#000000" fill-rule="evenodd" fill-opacity="1" /><polyline clip-path="url(#clip222)" style="stroke:#009af9; stroke-linecap:butt; stroke-linejoin:round; stroke-width:4; stroke-opacity:1; fill:none" points="
  316.512,86.1857 336.281,98.2358 356.051,111.987 375.82,127.64 395.59,145.403 415.359,165.49 435.128,188.113 454.898,213.472 474.667,241.748 494.436,273.082 
  514.206,307.56 533.975,345.197 553.744,385.907 573.514,429.489 593.283,475.611 613.052,523.806 632.822,573.48 652.591,623.946 672.361,674.467 692.13,724.313 
  711.899,772.817 731.669,819.424 751.438,863.723 771.207,905.456 790.977,944.509 810.746,980.893 830.515,1014.72 850.285,1046.14 870.054,1075.39 889.823,1102.66 
  909.593,1128.17 929.362,1152.12 949.132,1174.66 968.901,1195.95 988.67,1216.07 1008.44,1235.1 1028.21,1253.09 1047.98,1270.06 1067.75,1286.01 1087.52,1300.92 
  1107.29,1314.75 1127.06,1327.47 1146.83,1339.03 1166.59,1349.37 1186.36,1358.46 1206.13,1366.24 1225.9,1372.67 1245.67,1377.71 1265.44,1381.33 1285.21,1383.51 
  1304.98,1384.24 1324.75,1383.51 1344.52,1381.33 1364.29,1377.71 1384.06,1372.67 1403.83,1366.24 1423.6,1358.46 1443.37,1349.37 1463.13,1339.03 1482.9,1327.47 
  1502.67,1314.75 1522.44,1300.92 1542.21,1286.01 1561.98,1270.06 1581.75,1253.09 1601.52,1235.1 1621.29,1216.07 1641.06,1195.95 1660.83,1174.66 1680.6,1152.12 
  1700.37,1128.17 1720.14,1102.66 1739.91,1075.39 1759.68,1046.14 1779.44,1014.72 1799.21,980.893 1818.98,944.509 1838.75,905.456 1858.52,863.723 1878.29,819.424 
  1898.06,772.817 1917.83,724.313 1937.6,674.467 1957.37,623.946 1977.14,573.48 1996.91,523.806 2016.68,475.611 2036.45,429.489 2056.22,385.907 2075.98,345.197 
  2095.75,307.56 2115.52,273.082 2135.29,241.748 2155.06,213.472 2174.83,188.113 2194.6,165.49 2214.37,145.403 2234.14,127.64 2253.91,111.987 2273.68,98.2358 
  2293.45,86.1857 
  "/>
</svg>
