<?xml version="1.0" encoding="utf-8"?>
<svg xmlns="http://www.w3.org/2000/svg" xmlns:xlink="http://www.w3.org/1999/xlink" width="600" height="400" viewBox="0 0 2400 1600">
<defs>
  <clipPath id="clip620">
    <rect x="0" y="0" width="2400" height="1600"/>
  </clipPath>
</defs>
<path clip-path="url(#clip620)" d="
M0 1600 L2400 1600 L2400 0 L0 0  Z
  " fill="#ffffff" fill-rule="evenodd" fill-opacity="1"/>
<defs>
  <clipPath id="clip621">
    <rect x="480" y="0" width="1681" height="1600"/>
  </clipPath>
</defs>
<path clip-path="url(#clip620)" d="
M249.542 1423.18 L2352.76 1423.18 L2352.76 47.2441 L249.542 47.2441  Z
  " fill="#ffffff" fill-rule="evenodd" fill-opacity="1"/>
<defs>
  <clipPath id="clip622">
    <rect x="249" y="47" width="2104" height="1377"/>
  </clipPath>
</defs>
<polyline clip-path="url(#clip620)" style="stroke:#000000; stroke-linecap:butt; stroke-linejoin:round; stroke-width:4; stroke-opacity:1; fill:none" points="
  249.542,1423.18 2352.76,1423.18 
  "/>
<polyline clip-path="url(#clip620)" style="stroke:#000000; stroke-linecap:butt; stroke-linejoin:round; stroke-width:4; stroke-opacity:1; fill:none" points="
  309.067,1423.18 309.067,1404.28 
  "/>
<polyline clip-path="url(#clip620)" style="stroke:#000000; stroke-linecap:butt; stroke-linejoin:round; stroke-width:4; stroke-opacity:1; fill:none" points="
  805.108,1423.18 805.108,1404.28 
  "/>
<polyline clip-path="url(#clip620)" style="stroke:#000000; stroke-linecap:butt; stroke-linejoin:round; stroke-width:4; stroke-opacity:1; fill:none" points="
  1301.15,1423.18 1301.15,1404.28 
  "/>
<polyline clip-path="url(#clip620)" style="stroke:#000000; stroke-linecap:butt; stroke-linejoin:round; stroke-width:4; stroke-opacity:1; fill:none" points="
  1797.19,1423.18 1797.19,1404.28 
  "/>
<polyline clip-path="url(#clip620)" style="stroke:#000000; stroke-linecap:butt; stroke-linejoin:round; stroke-width:4; stroke-opacity:1; fill:none" points="
  2293.23,1423.18 2293.23,1404.28 
  "/>
<path clip-path="url(#clip620)" d="M271.37 1454.1 Q267.759 1454.1 265.931 1457.66 Q264.125 1461.2 264.125 1468.33 Q264.125 1475.44 265.931 1479.01 Q267.759 1482.55 271.37 1482.55 Q275.005 1482.55 276.81 1479.01 Q278.639 1475.44 278.639 1468.33 Q278.639 1461.2 276.81 1457.66 Q275.005 1454.1 271.37 1454.1 M271.37 1450.39 Q277.181 1450.39 280.236 1455 Q283.315 1459.58 283.315 1468.33 Q283.315 1477.06 280.236 1481.67 Q277.181 1486.25 271.37 1486.25 Q265.56 1486.25 262.482 1481.67 Q259.426 1477.06 259.426 1468.33 Q259.426 1459.58 262.482 1455 Q265.56 1450.39 271.37 1450.39 Z" fill="#000000" fill-rule="evenodd" fill-opacity="1" /><path clip-path="url(#clip620)" d="M291.532 1479.7 L296.417 1479.7 L296.417 1485.58 L291.532 1485.58 L291.532 1479.7 Z" fill="#000000" fill-rule="evenodd" fill-opacity="1" /><path clip-path="url(#clip620)" d="M316.602 1454.1 Q312.991 1454.1 311.162 1457.66 Q309.356 1461.2 309.356 1468.33 Q309.356 1475.44 311.162 1479.01 Q312.991 1482.55 316.602 1482.55 Q320.236 1482.55 322.041 1479.01 Q323.87 1475.44 323.87 1468.33 Q323.87 1461.2 322.041 1457.66 Q320.236 1454.1 316.602 1454.1 M316.602 1450.39 Q322.412 1450.39 325.467 1455 Q328.546 1459.58 328.546 1468.33 Q328.546 1477.06 325.467 1481.67 Q322.412 1486.25 316.602 1486.25 Q310.791 1486.25 307.713 1481.67 Q304.657 1477.06 304.657 1468.33 Q304.657 1459.58 307.713 1455 Q310.791 1450.39 316.602 1450.39 Z" fill="#000000" fill-rule="evenodd" fill-opacity="1" /><path clip-path="url(#clip620)" d="M346.764 1454.1 Q343.152 1454.1 341.324 1457.66 Q339.518 1461.2 339.518 1468.33 Q339.518 1475.44 341.324 1479.01 Q343.152 1482.55 346.764 1482.55 Q350.398 1482.55 352.203 1479.01 Q354.032 1475.44 354.032 1468.33 Q354.032 1461.2 352.203 1457.66 Q350.398 1454.1 346.764 1454.1 M346.764 1450.39 Q352.574 1450.39 355.629 1455 Q358.708 1459.58 358.708 1468.33 Q358.708 1477.06 355.629 1481.67 Q352.574 1486.25 346.764 1486.25 Q340.953 1486.25 337.875 1481.67 Q334.819 1477.06 334.819 1468.33 Q334.819 1459.58 337.875 1455 Q340.953 1450.39 346.764 1450.39 Z" fill="#000000" fill-rule="evenodd" fill-opacity="1" /><path clip-path="url(#clip620)" d="M767.909 1454.1 Q764.298 1454.1 762.469 1457.66 Q760.664 1461.2 760.664 1468.33 Q760.664 1475.44 762.469 1479.01 Q764.298 1482.55 767.909 1482.55 Q771.543 1482.55 773.349 1479.01 Q775.178 1475.44 775.178 1468.33 Q775.178 1461.2 773.349 1457.66 Q771.543 1454.1 767.909 1454.1 M767.909 1450.39 Q773.719 1450.39 776.775 1455 Q779.853 1459.58 779.853 1468.33 Q779.853 1477.06 776.775 1481.67 Q773.719 1486.25 767.909 1486.25 Q762.099 1486.25 759.02 1481.67 Q755.965 1477.06 755.965 1468.33 Q755.965 1459.58 759.02 1455 Q762.099 1450.39 767.909 1450.39 Z" fill="#000000" fill-rule="evenodd" fill-opacity="1" /><path clip-path="url(#clip620)" d="M788.071 1479.7 L792.955 1479.7 L792.955 1485.58 L788.071 1485.58 L788.071 1479.7 Z" fill="#000000" fill-rule="evenodd" fill-opacity="1" /><path clip-path="url(#clip620)" d="M807.168 1481.64 L823.487 1481.64 L823.487 1485.58 L801.543 1485.58 L801.543 1481.64 Q804.205 1478.89 808.788 1474.26 Q813.395 1469.61 814.576 1468.27 Q816.821 1465.74 817.7 1464.01 Q818.603 1462.25 818.603 1460.56 Q818.603 1457.8 816.659 1456.07 Q814.738 1454.33 811.636 1454.33 Q809.437 1454.33 806.983 1455.09 Q804.552 1455.86 801.775 1457.41 L801.775 1452.69 Q804.599 1451.55 807.052 1450.97 Q809.506 1450.39 811.543 1450.39 Q816.913 1450.39 820.108 1453.08 Q823.302 1455.77 823.302 1460.26 Q823.302 1462.39 822.492 1464.31 Q821.705 1466.2 819.599 1468.8 Q819.02 1469.47 815.918 1472.69 Q812.816 1475.88 807.168 1481.64 Z" fill="#000000" fill-rule="evenodd" fill-opacity="1" /><path clip-path="url(#clip620)" d="M833.349 1451.02 L851.705 1451.02 L851.705 1454.96 L837.631 1454.96 L837.631 1463.43 Q838.649 1463.08 839.668 1462.92 Q840.686 1462.73 841.705 1462.73 Q847.492 1462.73 850.872 1465.9 Q854.251 1469.08 854.251 1474.49 Q854.251 1480.07 850.779 1483.17 Q847.307 1486.25 840.987 1486.25 Q838.811 1486.25 836.543 1485.88 Q834.298 1485.51 831.89 1484.77 L831.89 1480.07 Q833.974 1481.2 836.196 1481.76 Q838.418 1482.32 840.895 1482.32 Q844.899 1482.32 847.237 1480.21 Q849.575 1478.1 849.575 1474.49 Q849.575 1470.88 847.237 1468.77 Q844.899 1466.67 840.895 1466.67 Q839.02 1466.67 837.145 1467.08 Q835.293 1467.5 833.349 1468.38 L833.349 1451.02 Z" fill="#000000" fill-rule="evenodd" fill-opacity="1" /><path clip-path="url(#clip620)" d="M1263.45 1454.1 Q1259.84 1454.1 1258.01 1457.66 Q1256.21 1461.2 1256.21 1468.33 Q1256.21 1475.44 1258.01 1479.01 Q1259.84 1482.55 1263.45 1482.55 Q1267.09 1482.55 1268.89 1479.01 Q1270.72 1475.44 1270.72 1468.33 Q1270.72 1461.2 1268.89 1457.66 Q1267.09 1454.1 1263.45 1454.1 M1263.45 1450.39 Q1269.26 1450.39 1272.32 1455 Q1275.4 1459.58 1275.4 1468.33 Q1275.4 1477.06 1272.32 1481.67 Q1269.26 1486.25 1263.45 1486.25 Q1257.64 1486.25 1254.56 1481.67 Q1251.51 1477.06 1251.51 1468.33 Q1251.51 1459.58 1254.56 1455 Q1257.64 1450.39 1263.45 1450.39 Z" fill="#000000" fill-rule="evenodd" fill-opacity="1" /><path clip-path="url(#clip620)" d="M1283.61 1479.7 L1288.5 1479.7 L1288.5 1485.58 L1283.61 1485.58 L1283.61 1479.7 Z" fill="#000000" fill-rule="evenodd" fill-opacity="1" /><path clip-path="url(#clip620)" d="M1298.73 1451.02 L1317.09 1451.02 L1317.09 1454.96 L1303.01 1454.96 L1303.01 1463.43 Q1304.03 1463.08 1305.05 1462.92 Q1306.07 1462.73 1307.09 1462.73 Q1312.87 1462.73 1316.25 1465.9 Q1319.63 1469.08 1319.63 1474.49 Q1319.63 1480.07 1316.16 1483.17 Q1312.69 1486.25 1306.37 1486.25 Q1304.19 1486.25 1301.92 1485.88 Q1299.68 1485.51 1297.27 1484.77 L1297.27 1480.07 Q1299.35 1481.2 1301.58 1481.76 Q1303.8 1482.32 1306.28 1482.32 Q1310.28 1482.32 1312.62 1480.21 Q1314.96 1478.1 1314.96 1474.49 Q1314.96 1470.88 1312.62 1468.77 Q1310.28 1466.67 1306.28 1466.67 Q1304.4 1466.67 1302.53 1467.08 Q1300.67 1467.5 1298.73 1468.38 L1298.73 1451.02 Z" fill="#000000" fill-rule="evenodd" fill-opacity="1" /><path clip-path="url(#clip620)" d="M1338.85 1454.1 Q1335.23 1454.1 1333.41 1457.66 Q1331.6 1461.2 1331.6 1468.33 Q1331.6 1475.44 1333.41 1479.01 Q1335.23 1482.55 1338.85 1482.55 Q1342.48 1482.55 1344.29 1479.01 Q1346.11 1475.44 1346.11 1468.33 Q1346.11 1461.2 1344.29 1457.66 Q1342.48 1454.1 1338.85 1454.1 M1338.85 1450.39 Q1344.66 1450.39 1347.71 1455 Q1350.79 1459.58 1350.79 1468.33 Q1350.79 1477.06 1347.71 1481.67 Q1344.66 1486.25 1338.85 1486.25 Q1333.04 1486.25 1329.96 1481.67 Q1326.9 1477.06 1326.9 1468.33 Q1326.9 1459.58 1329.96 1455 Q1333.04 1450.39 1338.85 1450.39 Z" fill="#000000" fill-rule="evenodd" fill-opacity="1" /><path clip-path="url(#clip620)" d="M1759.99 1454.1 Q1756.38 1454.1 1754.55 1457.66 Q1752.75 1461.2 1752.75 1468.33 Q1752.75 1475.44 1754.55 1479.01 Q1756.38 1482.55 1759.99 1482.55 Q1763.63 1482.55 1765.43 1479.01 Q1767.26 1475.44 1767.26 1468.33 Q1767.26 1461.2 1765.43 1457.66 Q1763.63 1454.1 1759.99 1454.1 M1759.99 1450.39 Q1765.8 1450.39 1768.86 1455 Q1771.94 1459.58 1771.94 1468.33 Q1771.94 1477.06 1768.86 1481.67 Q1765.8 1486.25 1759.99 1486.25 Q1754.18 1486.25 1751.1 1481.67 Q1748.05 1477.06 1748.05 1468.33 Q1748.05 1459.58 1751.1 1455 Q1754.18 1450.39 1759.99 1450.39 Z" fill="#000000" fill-rule="evenodd" fill-opacity="1" /><path clip-path="url(#clip620)" d="M1780.15 1479.7 L1785.04 1479.7 L1785.04 1485.58 L1780.15 1485.58 L1780.15 1479.7 Z" fill="#000000" fill-rule="evenodd" fill-opacity="1" /><path clip-path="url(#clip620)" d="M1794.04 1451.02 L1816.26 1451.02 L1816.26 1453.01 L1803.72 1485.58 L1798.83 1485.58 L1810.64 1454.96 L1794.04 1454.96 L1794.04 1451.02 Z" fill="#000000" fill-rule="evenodd" fill-opacity="1" /><path clip-path="url(#clip620)" d="M1825.43 1451.02 L1843.79 1451.02 L1843.79 1454.96 L1829.71 1454.96 L1829.71 1463.43 Q1830.73 1463.08 1831.75 1462.92 Q1832.77 1462.73 1833.79 1462.73 Q1839.57 1462.73 1842.95 1465.9 Q1846.33 1469.08 1846.33 1474.49 Q1846.33 1480.07 1842.86 1483.17 Q1839.39 1486.25 1833.07 1486.25 Q1830.89 1486.25 1828.62 1485.88 Q1826.38 1485.51 1823.97 1484.77 L1823.97 1480.07 Q1826.06 1481.2 1828.28 1481.76 Q1830.5 1482.32 1832.98 1482.32 Q1836.98 1482.32 1839.32 1480.21 Q1841.66 1478.1 1841.66 1474.49 Q1841.66 1470.88 1839.32 1468.77 Q1836.98 1466.67 1832.98 1466.67 Q1831.1 1466.67 1829.23 1467.08 Q1827.38 1467.5 1825.43 1468.38 L1825.43 1451.02 Z" fill="#000000" fill-rule="evenodd" fill-opacity="1" /><path clip-path="url(#clip620)" d="M2245.3 1481.64 L2252.94 1481.64 L2252.94 1455.28 L2244.63 1456.95 L2244.63 1452.69 L2252.9 1451.02 L2257.57 1451.02 L2257.57 1481.64 L2265.21 1481.64 L2265.21 1485.58 L2245.3 1485.58 L2245.3 1481.64 Z" fill="#000000" fill-rule="evenodd" fill-opacity="1" /><path clip-path="url(#clip620)" d="M2274.65 1479.7 L2279.54 1479.7 L2279.54 1485.58 L2274.65 1485.58 L2274.65 1479.7 Z" fill="#000000" fill-rule="evenodd" fill-opacity="1" /><path clip-path="url(#clip620)" d="M2299.72 1454.1 Q2296.11 1454.1 2294.28 1457.66 Q2292.48 1461.2 2292.48 1468.33 Q2292.48 1475.44 2294.28 1479.01 Q2296.11 1482.55 2299.72 1482.55 Q2303.36 1482.55 2305.16 1479.01 Q2306.99 1475.44 2306.99 1468.33 Q2306.99 1461.2 2305.16 1457.66 Q2303.36 1454.1 2299.72 1454.1 M2299.72 1450.39 Q2305.53 1450.39 2308.59 1455 Q2311.67 1459.58 2311.67 1468.33 Q2311.67 1477.06 2308.59 1481.67 Q2305.53 1486.25 2299.72 1486.25 Q2293.91 1486.25 2290.84 1481.67 Q2287.78 1477.06 2287.78 1468.33 Q2287.78 1459.58 2290.84 1455 Q2293.91 1450.39 2299.72 1450.39 Z" fill="#000000" fill-rule="evenodd" fill-opacity="1" /><path clip-path="url(#clip620)" d="M2329.89 1454.1 Q2326.27 1454.1 2324.45 1457.66 Q2322.64 1461.2 2322.64 1468.33 Q2322.64 1475.44 2324.45 1479.01 Q2326.27 1482.55 2329.89 1482.55 Q2333.52 1482.55 2335.33 1479.01 Q2337.15 1475.44 2337.15 1468.33 Q2337.15 1461.2 2335.33 1457.66 Q2333.52 1454.1 2329.89 1454.1 M2329.89 1450.39 Q2335.7 1450.39 2338.75 1455 Q2341.83 1459.58 2341.83 1468.33 Q2341.83 1477.06 2338.75 1481.67 Q2335.7 1486.25 2329.89 1486.25 Q2324.08 1486.25 2321 1481.67 Q2317.94 1477.06 2317.94 1468.33 Q2317.94 1459.58 2321 1455 Q2324.08 1450.39 2329.89 1450.39 Z" fill="#000000" fill-rule="evenodd" fill-opacity="1" /><path clip-path="url(#clip620)" d="M1205.09 1522.27 L1205.09 1532.4 L1217.15 1532.4 L1217.15 1536.95 L1205.09 1536.95 L1205.09 1556.3 Q1205.09 1560.66 1206.27 1561.9 Q1207.48 1563.14 1211.14 1563.14 L1217.15 1563.14 L1217.15 1568.04 L1211.14 1568.04 Q1204.36 1568.04 1201.78 1565.53 Q1199.2 1562.98 1199.2 1556.3 L1199.2 1536.95 L1194.91 1536.95 L1194.91 1532.4 L1199.2 1532.4 L1199.2 1522.27 L1205.09 1522.27 Z" fill="#000000" fill-rule="evenodd" fill-opacity="1" /><path clip-path="url(#clip620)" d="M1259.64 1518.58 Q1255.38 1525.9 1253.31 1533.06 Q1251.24 1540.23 1251.24 1547.58 Q1251.24 1554.93 1253.31 1562.16 Q1255.41 1569.35 1259.64 1576.64 L1254.55 1576.64 Q1249.78 1569.16 1247.39 1561.93 Q1245.04 1554.71 1245.04 1547.58 Q1245.04 1540.48 1247.39 1533.29 Q1249.75 1526.09 1254.55 1518.58 L1259.64 1518.58 Z" fill="#000000" fill-rule="evenodd" fill-opacity="1" /><path clip-path="url(#clip620)" d="M1287.21 1550.12 Q1280.11 1550.12 1277.37 1551.75 Q1274.64 1553.37 1274.64 1557.29 Q1274.64 1560.4 1276.67 1562.25 Q1278.74 1564.07 1282.27 1564.07 Q1287.14 1564.07 1290.07 1560.63 Q1293.03 1557.16 1293.03 1551.43 L1293.03 1550.12 L1287.21 1550.12 M1298.89 1547.71 L1298.89 1568.04 L1293.03 1568.04 L1293.03 1562.63 Q1291.03 1565.88 1288.04 1567.44 Q1285.04 1568.97 1280.72 1568.97 Q1275.24 1568.97 1271.99 1565.91 Q1268.78 1562.82 1268.78 1557.67 Q1268.78 1551.65 1272.79 1548.6 Q1276.83 1545.54 1284.82 1545.54 L1293.03 1545.54 L1293.03 1544.97 Q1293.03 1540.93 1290.36 1538.73 Q1287.72 1536.5 1282.91 1536.5 Q1279.86 1536.5 1276.96 1537.23 Q1274.06 1537.97 1271.39 1539.43 L1271.39 1534.02 Q1274.6 1532.78 1277.63 1532.17 Q1280.65 1531.54 1283.52 1531.54 Q1291.25 1531.54 1295.07 1535.55 Q1298.89 1539.56 1298.89 1547.71 Z" fill="#000000" fill-rule="evenodd" fill-opacity="1" /><path clip-path="url(#clip620)" d="M1311.78 1559.96 L1318.5 1559.96 L1318.5 1568.04 L1311.78 1568.04 L1311.78 1559.96 Z" fill="#000000" fill-rule="evenodd" fill-opacity="1" /><path clip-path="url(#clip620)" d="M1331.07 1553.98 L1331.07 1532.4 L1336.92 1532.4 L1336.92 1553.75 Q1336.92 1558.81 1338.9 1561.36 Q1340.87 1563.87 1344.82 1563.87 Q1349.56 1563.87 1352.3 1560.85 Q1355.07 1557.83 1355.07 1552.61 L1355.07 1532.4 L1360.92 1532.4 L1360.92 1568.04 L1355.07 1568.04 L1355.07 1562.57 Q1352.93 1565.82 1350.1 1567.41 Q1347.3 1568.97 1343.58 1568.97 Q1337.43 1568.97 1334.25 1565.15 Q1331.07 1561.33 1331.07 1553.98 M1345.8 1531.54 L1345.8 1531.54 Z" fill="#000000" fill-rule="evenodd" fill-opacity="1" /><path clip-path="url(#clip620)" d="M1373.81 1559.96 L1380.53 1559.96 L1380.53 1568.04 L1373.81 1568.04 L1373.81 1559.96 Z" fill="#000000" fill-rule="evenodd" fill-opacity="1" /><path clip-path="url(#clip620)" d="M1392.78 1518.58 L1397.88 1518.58 Q1402.65 1526.09 1405.01 1533.29 Q1407.39 1540.48 1407.39 1547.58 Q1407.39 1554.71 1405.01 1561.93 Q1402.65 1569.16 1397.88 1576.64 L1392.78 1576.64 Q1397.02 1569.35 1399.09 1562.16 Q1401.19 1554.93 1401.19 1547.58 Q1401.19 1540.23 1399.09 1533.06 Q1397.02 1525.9 1392.78 1518.58 Z" fill="#000000" fill-rule="evenodd" fill-opacity="1" /><polyline clip-path="url(#clip620)" style="stroke:#000000; stroke-linecap:butt; stroke-linejoin:round; stroke-width:4; stroke-opacity:1; fill:none" points="
  249.542,1423.18 249.542,47.2441 
  "/>
<polyline clip-path="url(#clip620)" style="stroke:#000000; stroke-linecap:butt; stroke-linejoin:round; stroke-width:4; stroke-opacity:1; fill:none" points="
  249.542,1384.24 268.44,1384.24 
  "/>
<polyline clip-path="url(#clip620)" style="stroke:#000000; stroke-linecap:butt; stroke-linejoin:round; stroke-width:4; stroke-opacity:1; fill:none" points="
  249.542,1059.73 268.44,1059.73 
  "/>
<polyline clip-path="url(#clip620)" style="stroke:#000000; stroke-linecap:butt; stroke-linejoin:round; stroke-width:4; stroke-opacity:1; fill:none" points="
  249.542,735.212 268.44,735.212 
  "/>
<polyline clip-path="url(#clip620)" style="stroke:#000000; stroke-linecap:butt; stroke-linejoin:round; stroke-width:4; stroke-opacity:1; fill:none" points="
  249.542,410.699 268.44,410.699 
  "/>
<polyline clip-path="url(#clip620)" style="stroke:#000000; stroke-linecap:butt; stroke-linejoin:round; stroke-width:4; stroke-opacity:1; fill:none" points="
  249.542,86.1857 268.44,86.1857 
  "/>
<path clip-path="url(#clip620)" d="M126.205 1370.04 Q122.593 1370.04 120.765 1373.6 Q118.959 1377.14 118.959 1384.27 Q118.959 1391.38 120.765 1394.94 Q122.593 1398.49 126.205 1398.49 Q129.839 1398.49 131.644 1394.94 Q133.473 1391.38 133.473 1384.27 Q133.473 1377.14 131.644 1373.6 Q129.839 1370.04 126.205 1370.04 M126.205 1366.33 Q132.015 1366.33 135.07 1370.94 Q138.149 1375.52 138.149 1384.27 Q138.149 1393 135.07 1397.61 Q132.015 1402.19 126.205 1402.19 Q120.394 1402.19 117.316 1397.61 Q114.26 1393 114.26 1384.27 Q114.26 1375.52 117.316 1370.94 Q120.394 1366.33 126.205 1366.33 Z" fill="#000000" fill-rule="evenodd" fill-opacity="1" /><path clip-path="url(#clip620)" d="M146.366 1395.64 L151.251 1395.64 L151.251 1401.52 L146.366 1401.52 L146.366 1395.64 Z" fill="#000000" fill-rule="evenodd" fill-opacity="1" /><path clip-path="url(#clip620)" d="M171.436 1370.04 Q167.825 1370.04 165.996 1373.6 Q164.19 1377.14 164.19 1384.27 Q164.19 1391.38 165.996 1394.94 Q167.825 1398.49 171.436 1398.49 Q175.07 1398.49 176.876 1394.94 Q178.704 1391.38 178.704 1384.27 Q178.704 1377.14 176.876 1373.6 Q175.07 1370.04 171.436 1370.04 M171.436 1366.33 Q177.246 1366.33 180.301 1370.94 Q183.38 1375.52 183.38 1384.27 Q183.38 1393 180.301 1397.61 Q177.246 1402.19 171.436 1402.19 Q165.626 1402.19 162.547 1397.61 Q159.491 1393 159.491 1384.27 Q159.491 1375.52 162.547 1370.94 Q165.626 1366.33 171.436 1366.33 Z" fill="#000000" fill-rule="evenodd" fill-opacity="1" /><path clip-path="url(#clip620)" d="M201.598 1370.04 Q197.987 1370.04 196.158 1373.6 Q194.352 1377.14 194.352 1384.27 Q194.352 1391.38 196.158 1394.94 Q197.987 1398.49 201.598 1398.49 Q205.232 1398.49 207.037 1394.94 Q208.866 1391.38 208.866 1384.27 Q208.866 1377.14 207.037 1373.6 Q205.232 1370.04 201.598 1370.04 M201.598 1366.33 Q207.408 1366.33 210.463 1370.94 Q213.542 1375.52 213.542 1384.27 Q213.542 1393 210.463 1397.61 Q207.408 1402.19 201.598 1402.19 Q195.787 1402.19 192.709 1397.61 Q189.653 1393 189.653 1384.27 Q189.653 1375.52 192.709 1370.94 Q195.787 1366.33 201.598 1366.33 Z" fill="#000000" fill-rule="evenodd" fill-opacity="1" /><path clip-path="url(#clip620)" d="M127.2 1045.52 Q123.589 1045.52 121.76 1049.09 Q119.955 1052.63 119.955 1059.76 Q119.955 1066.87 121.76 1070.43 Q123.589 1073.97 127.2 1073.97 Q130.834 1073.97 132.64 1070.43 Q134.468 1066.87 134.468 1059.76 Q134.468 1052.63 132.64 1049.09 Q130.834 1045.52 127.2 1045.52 M127.2 1041.82 Q133.01 1041.82 136.066 1046.43 Q139.144 1051.01 139.144 1059.76 Q139.144 1068.49 136.066 1073.09 Q133.01 1077.68 127.2 1077.68 Q121.39 1077.68 118.311 1073.09 Q115.256 1068.49 115.256 1059.76 Q115.256 1051.01 118.311 1046.43 Q121.39 1041.82 127.2 1041.82 Z" fill="#000000" fill-rule="evenodd" fill-opacity="1" /><path clip-path="url(#clip620)" d="M147.362 1071.13 L152.246 1071.13 L152.246 1077.01 L147.362 1077.01 L147.362 1071.13 Z" fill="#000000" fill-rule="evenodd" fill-opacity="1" /><path clip-path="url(#clip620)" d="M166.459 1073.07 L182.778 1073.07 L182.778 1077.01 L160.834 1077.01 L160.834 1073.07 Q163.496 1070.32 168.079 1065.69 Q172.686 1061.03 173.866 1059.69 Q176.112 1057.17 176.991 1055.43 Q177.894 1053.67 177.894 1051.98 Q177.894 1049.23 175.95 1047.49 Q174.028 1045.76 170.927 1045.76 Q168.727 1045.76 166.274 1046.52 Q163.843 1047.28 161.065 1048.83 L161.065 1044.11 Q163.89 1042.98 166.343 1042.4 Q168.797 1041.82 170.834 1041.82 Q176.204 1041.82 179.399 1044.51 Q182.593 1047.19 182.593 1051.68 Q182.593 1053.81 181.783 1055.73 Q180.996 1057.63 178.889 1060.22 Q178.311 1060.89 175.209 1064.11 Q172.107 1067.31 166.459 1073.07 Z" fill="#000000" fill-rule="evenodd" fill-opacity="1" /><path clip-path="url(#clip620)" d="M192.639 1042.45 L210.996 1042.45 L210.996 1046.38 L196.922 1046.38 L196.922 1054.85 Q197.94 1054.51 198.959 1054.34 Q199.977 1054.16 200.996 1054.16 Q206.783 1054.16 210.162 1057.33 Q213.542 1060.5 213.542 1065.92 Q213.542 1071.5 210.07 1074.6 Q206.598 1077.68 200.278 1077.68 Q198.102 1077.68 195.834 1077.31 Q193.588 1076.94 191.181 1076.19 L191.181 1071.5 Q193.264 1072.63 195.487 1073.19 Q197.709 1073.74 200.186 1073.74 Q204.19 1073.74 206.528 1071.63 Q208.866 1069.53 208.866 1065.92 Q208.866 1062.31 206.528 1060.2 Q204.19 1058.09 200.186 1058.09 Q198.311 1058.09 196.436 1058.51 Q194.584 1058.93 192.639 1059.81 L192.639 1042.45 Z" fill="#000000" fill-rule="evenodd" fill-opacity="1" /><path clip-path="url(#clip620)" d="M126.205 721.011 Q122.593 721.011 120.765 724.575 Q118.959 728.117 118.959 735.247 Q118.959 742.353 120.765 745.918 Q122.593 749.46 126.205 749.46 Q129.839 749.46 131.644 745.918 Q133.473 742.353 133.473 735.247 Q133.473 728.117 131.644 724.575 Q129.839 721.011 126.205 721.011 M126.205 717.307 Q132.015 717.307 135.07 721.913 Q138.149 726.497 138.149 735.247 Q138.149 743.973 135.07 748.58 Q132.015 753.163 126.205 753.163 Q120.394 753.163 117.316 748.58 Q114.26 743.973 114.26 735.247 Q114.26 726.497 117.316 721.913 Q120.394 717.307 126.205 717.307 Z" fill="#000000" fill-rule="evenodd" fill-opacity="1" /><path clip-path="url(#clip620)" d="M146.366 746.612 L151.251 746.612 L151.251 752.492 L146.366 752.492 L146.366 746.612 Z" fill="#000000" fill-rule="evenodd" fill-opacity="1" /><path clip-path="url(#clip620)" d="M161.482 717.932 L179.839 717.932 L179.839 721.867 L165.765 721.867 L165.765 730.339 Q166.783 729.992 167.802 729.83 Q168.82 729.645 169.839 729.645 Q175.626 729.645 179.005 732.816 Q182.385 735.987 182.385 741.404 Q182.385 746.983 178.913 750.085 Q175.44 753.163 169.121 753.163 Q166.945 753.163 164.677 752.793 Q162.431 752.423 160.024 751.682 L160.024 746.983 Q162.107 748.117 164.329 748.673 Q166.552 749.228 169.028 749.228 Q173.033 749.228 175.371 747.122 Q177.709 745.015 177.709 741.404 Q177.709 737.793 175.371 735.687 Q173.033 733.58 169.028 733.58 Q167.153 733.58 165.278 733.997 Q163.427 734.413 161.482 735.293 L161.482 717.932 Z" fill="#000000" fill-rule="evenodd" fill-opacity="1" /><path clip-path="url(#clip620)" d="M201.598 721.011 Q197.987 721.011 196.158 724.575 Q194.352 728.117 194.352 735.247 Q194.352 742.353 196.158 745.918 Q197.987 749.46 201.598 749.46 Q205.232 749.46 207.037 745.918 Q208.866 742.353 208.866 735.247 Q208.866 728.117 207.037 724.575 Q205.232 721.011 201.598 721.011 M201.598 717.307 Q207.408 717.307 210.463 721.913 Q213.542 726.497 213.542 735.247 Q213.542 743.973 210.463 748.58 Q207.408 753.163 201.598 753.163 Q195.787 753.163 192.709 748.58 Q189.653 743.973 189.653 735.247 Q189.653 726.497 192.709 721.913 Q195.787 717.307 201.598 717.307 Z" fill="#000000" fill-rule="evenodd" fill-opacity="1" /><path clip-path="url(#clip620)" d="M127.2 396.498 Q123.589 396.498 121.76 400.062 Q119.955 403.604 119.955 410.734 Q119.955 417.84 121.76 421.405 Q123.589 424.946 127.2 424.946 Q130.834 424.946 132.64 421.405 Q134.468 417.84 134.468 410.734 Q134.468 403.604 132.64 400.062 Q130.834 396.498 127.2 396.498 M127.2 392.794 Q133.01 392.794 136.066 397.4 Q139.144 401.984 139.144 410.734 Q139.144 419.46 136.066 424.067 Q133.01 428.65 127.2 428.65 Q121.39 428.65 118.311 424.067 Q115.256 419.46 115.256 410.734 Q115.256 401.984 118.311 397.4 Q121.39 392.794 127.2 392.794 Z" fill="#000000" fill-rule="evenodd" fill-opacity="1" /><path clip-path="url(#clip620)" d="M147.362 422.099 L152.246 422.099 L152.246 427.979 L147.362 427.979 L147.362 422.099 Z" fill="#000000" fill-rule="evenodd" fill-opacity="1" /><path clip-path="url(#clip620)" d="M161.251 393.419 L183.473 393.419 L183.473 395.41 L170.927 427.979 L166.042 427.979 L177.848 397.354 L161.251 397.354 L161.251 393.419 Z" fill="#000000" fill-rule="evenodd" fill-opacity="1" /><path clip-path="url(#clip620)" d="M192.639 393.419 L210.996 393.419 L210.996 397.354 L196.922 397.354 L196.922 405.826 Q197.94 405.479 198.959 405.317 Q199.977 405.132 200.996 405.132 Q206.783 405.132 210.162 408.303 Q213.542 411.474 213.542 416.891 Q213.542 422.47 210.07 425.571 Q206.598 428.65 200.278 428.65 Q198.102 428.65 195.834 428.28 Q193.588 427.909 191.181 427.169 L191.181 422.47 Q193.264 423.604 195.487 424.159 Q197.709 424.715 200.186 424.715 Q204.19 424.715 206.528 422.608 Q208.866 420.502 208.866 416.891 Q208.866 413.28 206.528 411.173 Q204.19 409.067 200.186 409.067 Q198.311 409.067 196.436 409.484 Q194.584 409.9 192.639 410.78 L192.639 393.419 Z" fill="#000000" fill-rule="evenodd" fill-opacity="1" /><path clip-path="url(#clip620)" d="M117.015 99.5305 L124.654 99.5305 L124.654 73.1649 L116.343 74.8316 L116.343 70.5723 L124.607 68.9057 L129.283 68.9057 L129.283 99.5305 L136.922 99.5305 L136.922 103.466 L117.015 103.466 L117.015 99.5305 Z" fill="#000000" fill-rule="evenodd" fill-opacity="1" /><path clip-path="url(#clip620)" d="M146.366 97.5861 L151.251 97.5861 L151.251 103.466 L146.366 103.466 L146.366 97.5861 Z" fill="#000000" fill-rule="evenodd" fill-opacity="1" /><path clip-path="url(#clip620)" d="M171.436 71.9844 Q167.825 71.9844 165.996 75.5492 Q164.19 79.0908 164.19 86.2204 Q164.19 93.3268 165.996 96.8916 Q167.825 100.433 171.436 100.433 Q175.07 100.433 176.876 96.8916 Q178.704 93.3268 178.704 86.2204 Q178.704 79.0908 176.876 75.5492 Q175.07 71.9844 171.436 71.9844 M171.436 68.2807 Q177.246 68.2807 180.301 72.8871 Q183.38 77.4704 183.38 86.2204 Q183.38 94.9472 180.301 99.5537 Q177.246 104.137 171.436 104.137 Q165.626 104.137 162.547 99.5537 Q159.491 94.9472 159.491 86.2204 Q159.491 77.4704 162.547 72.8871 Q165.626 68.2807 171.436 68.2807 Z" fill="#000000" fill-rule="evenodd" fill-opacity="1" /><path clip-path="url(#clip620)" d="M201.598 71.9844 Q197.987 71.9844 196.158 75.5492 Q194.352 79.0908 194.352 86.2204 Q194.352 93.3268 196.158 96.8916 Q197.987 100.433 201.598 100.433 Q205.232 100.433 207.037 96.8916 Q208.866 93.3268 208.866 86.2204 Q208.866 79.0908 207.037 75.5492 Q205.232 71.9844 201.598 71.9844 M201.598 68.2807 Q207.408 68.2807 210.463 72.8871 Q213.542 77.4704 213.542 86.2204 Q213.542 94.9472 210.463 99.5537 Q207.408 104.137 201.598 104.137 Q195.787 104.137 192.709 99.5537 Q189.653 94.9472 189.653 86.2204 Q189.653 77.4704 192.709 72.8871 Q195.787 68.2807 201.598 68.2807 Z" fill="#000000" fill-rule="evenodd" fill-opacity="1" /><path clip-path="url(#clip620)" d="M16.4842 1112.14 L16.4842 1105.71 L58.5933 1105.71 L58.5933 1082.57 L64.0042 1082.57 L64.0042 1112.14 L16.4842 1112.14 Z" fill="#000000" fill-rule="evenodd" fill-opacity="1" /><path clip-path="url(#clip620)" d="M44.7161 1046.73 L47.5806 1046.73 L47.5806 1073.66 Q53.6281 1073.28 56.8109 1070.03 Q59.9619 1066.75 59.9619 1060.93 Q59.9619 1057.56 59.1344 1054.4 Q58.3069 1051.22 56.6518 1048.1 L62.1899 1048.1 Q63.5267 1051.25 64.227 1054.56 Q64.9272 1057.87 64.9272 1061.28 Q64.9272 1069.81 59.9619 1074.81 Q54.9967 1079.77 46.5303 1079.77 Q37.7774 1079.77 32.6531 1075.06 Q27.4968 1070.32 27.4968 1062.3 Q27.4968 1055.1 32.1438 1050.94 Q36.7589 1046.73 44.7161 1046.73 M42.9973 1052.59 Q38.1912 1052.65 35.3266 1055.3 Q32.4621 1057.91 32.4621 1062.23 Q32.4621 1067.14 35.2312 1070.1 Q38.0002 1073.02 43.0292 1073.47 L42.9973 1052.59 Z" fill="#000000" fill-rule="evenodd" fill-opacity="1" /><path clip-path="url(#clip620)" d="M28.3562 1041.32 L28.3562 1035.12 L58.275 1023.98 L28.3562 1012.84 L28.3562 1006.63 L64.0042 1020 L64.0042 1027.95 L28.3562 1041.32 Z" fill="#000000" fill-rule="evenodd" fill-opacity="1" /><path clip-path="url(#clip620)" d="M44.7161 968.054 L47.5806 968.054 L47.5806 994.981 Q53.6281 994.599 56.8109 991.352 Q59.9619 988.074 59.9619 982.249 Q59.9619 978.875 59.1344 975.724 Q58.3069 972.541 56.6518 969.422 L62.1899 969.422 Q63.5267 972.573 64.227 975.883 Q64.9272 979.194 64.9272 982.599 Q64.9272 991.129 59.9619 996.126 Q54.9967 1001.09 46.5303 1001.09 Q37.7774 1001.09 32.6531 996.381 Q27.4968 991.639 27.4968 983.618 Q27.4968 976.425 32.1438 972.255 Q36.7589 968.054 44.7161 968.054 M42.9973 973.91 Q38.1912 973.974 35.3266 976.615 Q32.4621 979.225 32.4621 983.554 Q32.4621 988.456 35.2312 991.416 Q38.0002 994.344 43.0292 994.79 L42.9973 973.91 Z" fill="#000000" fill-rule="evenodd" fill-opacity="1" /><path clip-path="url(#clip620)" d="M14.479 958.441 L14.479 952.585 L64.0042 952.585 L64.0042 958.441 L14.479 958.441 Z" fill="#000000" fill-rule="evenodd" fill-opacity="1" /><path clip-path="url(#clip620)" d="M58.657 913.945 L77.5631 913.945 L77.5631 919.833 L28.3562 919.833 L28.3562 913.945 L33.7671 913.945 Q30.5842 912.099 29.0564 909.298 Q27.4968 906.465 27.4968 902.55 Q27.4968 896.057 32.6531 892.015 Q37.8093 887.941 46.212 887.941 Q54.6147 887.941 59.771 892.015 Q64.9272 896.057 64.9272 902.55 Q64.9272 906.465 63.3994 909.298 Q61.8398 912.099 58.657 913.945 M46.212 894.02 Q39.7508 894.02 36.0905 896.694 Q32.3984 899.336 32.3984 903.983 Q32.3984 908.63 36.0905 911.303 Q39.7508 913.945 46.212 913.945 Q52.6732 913.945 56.3653 911.303 Q60.0256 908.63 60.0256 903.983 Q60.0256 899.336 56.3653 896.694 Q52.6732 894.02 46.212 894.02 Z" fill="#000000" fill-rule="evenodd" fill-opacity="1" /><path clip-path="url(#clip620)" d="M32.4621 864.42 Q32.4621 869.131 36.1542 871.868 Q39.8145 874.605 46.212 874.605 Q52.6095 874.605 56.3017 871.9 Q59.9619 869.162 59.9619 864.42 Q59.9619 859.741 56.2698 857.004 Q52.5777 854.267 46.212 854.267 Q39.8781 854.267 36.186 857.004 Q32.4621 859.741 32.4621 864.42 M27.4968 864.42 Q27.4968 856.781 32.4621 852.421 Q37.4273 848.06 46.212 848.06 Q54.9649 848.06 59.9619 852.421 Q64.9272 856.781 64.9272 864.42 Q64.9272 872.091 59.9619 876.451 Q54.9649 880.78 46.212 880.78 Q37.4273 880.78 32.4621 876.451 Q27.4968 872.091 27.4968 864.42 Z" fill="#000000" fill-rule="evenodd" fill-opacity="1" /><path clip-path="url(#clip620)" d="M58.657 832.687 L77.5631 832.687 L77.5631 838.575 L28.3562 838.575 L28.3562 832.687 L33.7671 832.687 Q30.5842 830.841 29.0564 828.04 Q27.4968 825.207 27.4968 821.292 Q27.4968 814.799 32.6531 810.757 Q37.8093 806.683 46.212 806.683 Q54.6147 806.683 59.771 810.757 Q64.9272 814.799 64.9272 821.292 Q64.9272 825.207 63.3994 828.04 Q61.8398 830.841 58.657 832.687 M46.212 812.762 Q39.7508 812.762 36.0905 815.436 Q32.3984 818.078 32.3984 822.725 Q32.3984 827.371 36.0905 830.045 Q39.7508 832.687 46.212 832.687 Q52.6732 832.687 56.3653 830.045 Q60.0256 827.371 60.0256 822.725 Q60.0256 818.078 56.3653 815.436 Q52.6732 812.762 46.212 812.762 Z" fill="#000000" fill-rule="evenodd" fill-opacity="1" /><path clip-path="url(#clip620)" d="M49.9359 797.58 L28.3562 797.58 L28.3562 791.724 L49.7131 791.724 Q54.7739 791.724 57.3202 789.75 Q59.8346 787.777 59.8346 783.83 Q59.8346 779.088 56.8109 776.35 Q53.7872 773.581 48.5673 773.581 L28.3562 773.581 L28.3562 767.725 L64.0042 767.725 L64.0042 773.581 L58.5296 773.581 Q61.7762 775.714 63.3676 778.547 Q64.9272 781.347 64.9272 785.071 Q64.9272 791.214 61.1078 794.397 Q57.2883 797.58 49.9359 797.58 M27.4968 782.843 L27.4968 782.843 Z" fill="#000000" fill-rule="evenodd" fill-opacity="1" /><path clip-path="url(#clip620)" d="M14.479 755.662 L14.479 749.805 L64.0042 749.805 L64.0042 755.662 L14.479 755.662 Z" fill="#000000" fill-rule="evenodd" fill-opacity="1" /><path clip-path="url(#clip620)" d="M46.0847 721.351 Q46.0847 728.448 47.7079 731.186 Q49.3312 733.923 53.2461 733.923 Q56.3653 733.923 58.2114 731.886 Q60.0256 729.817 60.0256 726.284 Q60.0256 721.414 56.5881 718.486 Q53.1188 715.526 47.3897 715.526 L46.0847 715.526 L46.0847 721.351 M43.6657 709.67 L64.0042 709.67 L64.0042 715.526 L58.5933 715.526 Q61.8398 717.531 63.3994 720.523 Q64.9272 723.515 64.9272 727.844 Q64.9272 733.318 61.8716 736.565 Q58.7843 739.779 53.6281 739.779 Q47.6125 739.779 44.5569 735.769 Q41.5014 731.727 41.5014 723.738 L41.5014 715.526 L40.9285 715.526 Q36.8862 715.526 34.6901 718.2 Q32.4621 720.841 32.4621 725.647 Q32.4621 728.703 33.1941 731.599 Q33.9262 734.496 35.3903 737.169 L29.9795 737.169 Q28.7381 733.955 28.1334 730.931 Q27.4968 727.907 27.4968 725.043 Q27.4968 717.308 31.5072 713.489 Q35.5176 709.67 43.6657 709.67 Z" fill="#000000" fill-rule="evenodd" fill-opacity="1" /><path clip-path="url(#clip620)" d="M18.2347 691.814 L28.3562 691.814 L28.3562 679.751 L32.9077 679.751 L32.9077 691.814 L52.2594 691.814 Q56.6199 691.814 57.8613 690.636 Q59.1026 689.427 59.1026 685.766 L59.1026 679.751 L64.0042 679.751 L64.0042 685.766 Q64.0042 692.546 61.4897 695.124 Q58.9434 697.702 52.2594 697.702 L32.9077 697.702 L32.9077 701.999 L28.3562 701.999 L28.3562 697.702 L18.2347 697.702 L18.2347 691.814 Z" fill="#000000" fill-rule="evenodd" fill-opacity="1" /><path clip-path="url(#clip620)" d="M28.3562 672.048 L28.3562 666.192 L64.0042 666.192 L64.0042 672.048 L28.3562 672.048 M14.479 672.048 L14.479 666.192 L21.895 666.192 L21.895 672.048 L14.479 672.048 Z" fill="#000000" fill-rule="evenodd" fill-opacity="1" /><path clip-path="url(#clip620)" d="M32.4621 640.124 Q32.4621 644.835 36.1542 647.572 Q39.8145 650.309 46.212 650.309 Q52.6095 650.309 56.3017 647.604 Q59.9619 644.867 59.9619 640.124 Q59.9619 635.445 56.2698 632.708 Q52.5777 629.971 46.212 629.971 Q39.8781 629.971 36.186 632.708 Q32.4621 635.445 32.4621 640.124 M27.4968 640.124 Q27.4968 632.485 32.4621 628.125 Q37.4273 623.764 46.212 623.764 Q54.9649 623.764 59.9619 628.125 Q64.9272 632.485 64.9272 640.124 Q64.9272 647.795 59.9619 652.155 Q54.9649 656.484 46.212 656.484 Q37.4273 656.484 32.4621 652.155 Q27.4968 647.795 27.4968 640.124 Z" fill="#000000" fill-rule="evenodd" fill-opacity="1" /><path clip-path="url(#clip620)" d="M42.4881 584.424 L64.0042 584.424 L64.0042 590.281 L42.679 590.281 Q37.6183 590.281 35.1038 592.254 Q32.5894 594.227 32.5894 598.174 Q32.5894 602.917 35.6131 605.654 Q38.6368 608.391 43.8567 608.391 L64.0042 608.391 L64.0042 614.279 L28.3562 614.279 L28.3562 608.391 L33.8944 608.391 Q30.6797 606.29 29.0883 603.458 Q27.4968 600.593 27.4968 596.869 Q27.4968 590.726 31.3163 587.575 Q35.1038 584.424 42.4881 584.424 Z" fill="#000000" fill-rule="evenodd" fill-opacity="1" /><path clip-path="url(#clip620)" d="M14.1925 544.479 L79.3773 544.479 L79.3773 549.89 L14.1925 549.89 L14.1925 544.479 Z" fill="#000000" fill-rule="evenodd" fill-opacity="1" /><path clip-path="url(#clip620)" d="M43.5702 530.379 L14.5426 521.404 L14.5426 515.993 L43.5702 524.969 L72.5979 515.993 L72.5979 521.404 L43.5702 530.379 Z" fill="#000000" fill-rule="evenodd" fill-opacity="1" /><path clip-path="url(#clip620)" d="M28.3562 504.63 L28.3562 498.774 L64.0042 498.774 L64.0042 504.63 L28.3562 504.63 M14.479 504.63 L14.479 498.774 L21.895 498.774 L21.895 504.63 L14.479 504.63 Z" fill="#000000" fill-rule="evenodd" fill-opacity="1" /><path clip-path="url(#clip620)" d="M14.1925 478.976 L79.3773 478.976 L79.3773 484.387 L14.1925 484.387 L14.1925 478.976 Z" fill="#000000" fill-rule="evenodd" fill-opacity="1" /><path clip-path="url(#clip620)" d="M64.7999 452.209 Q63.6222 459.561 60.5348 462.967 Q56.7473 467.136 49.0129 467.136 L28.3562 467.136 L28.3562 461.216 L48.7901 461.216 Q54.6147 461.216 57.0337 458.511 Q59.1344 456.155 59.58 452.209 L28.3562 452.209 L28.3562 446.384 L59.5482 446.384 Q59.1026 442.214 57.0019 440.082 Q54.3283 437.376 48.7583 437.376 L28.3562 437.376 L28.3562 431.456 L48.9811 431.456 Q57.0019 431.456 60.503 435.626 Q63.654 439.382 64.768 446.384 L77.5631 446.384 L77.5631 452.209 L64.7999 452.209 Z" fill="#000000" fill-rule="evenodd" fill-opacity="1" /><path clip-path="url(#clip620)" d="M43.5702 408.094 L72.5979 417.07 L72.5979 422.481 L43.5702 413.505 L14.5426 422.481 L14.5426 417.07 L43.5702 408.094 Z" fill="#000000" fill-rule="evenodd" fill-opacity="1" /><path clip-path="url(#clip620)" d="M14.1925 388.583 L79.3773 388.583 L79.3773 393.994 L14.1925 393.994 L14.1925 388.583 Z" fill="#000000" fill-rule="evenodd" fill-opacity="1" /><path clip-path="url(#clip620)" d="M39.1142 371.778 L39.1142 358.283 L42.7427 358.283 L42.7427 377.316 L39.2416 377.316 Q38.2549 376.234 36.4725 374.229 Q26.7648 363.28 23.7729 363.28 Q21.6722 363.28 20.3991 364.935 Q19.0941 366.59 19.0941 369.295 Q19.0941 370.95 19.667 372.892 Q20.2081 374.833 21.3221 377.125 L17.4072 377.125 Q16.516 374.674 16.0704 372.574 Q15.6248 370.441 15.6248 368.627 Q15.6248 364.012 17.7255 361.243 Q19.8262 358.474 23.2636 358.474 Q27.6878 358.474 36.7271 369.009 Q38.2549 370.791 39.1142 371.778 Z" fill="#000000" fill-rule="evenodd" fill-opacity="1" /><polyline clip-path="url(#clip622)" style="stroke:#009af9; stroke-linecap:butt; stroke-linejoin:round; stroke-width:4; stroke-opacity:1; fill:none" points="
  309.067,86.1857 328.909,86.1857 348.75,86.1859 368.592,86.1865 388.434,86.1884 408.275,86.1922 428.117,86.1994 447.958,86.2115 467.8,86.2307 487.642,86.2595 
  507.483,86.301 527.325,86.3586 547.167,86.4365 567.008,86.5391 586.85,86.6712 606.692,86.8382 626.533,87.0451 646.375,87.2972 666.216,87.5994 686.058,87.9565 
  705.9,88.3722 725.741,88.8488 745.583,89.3874 765.425,89.9876 785.266,90.6465 805.108,91.3587 824.95,92.1147 844.791,92.9014 864.633,93.6991 884.475,94.4782 
  904.316,95.1941 924.158,95.7753 943.999,96.1015 963.841,95.9691 983.683,95.0424 1003.52,92.8723 1023.37,89.4138 1043.21,86.5995 1063.05,88.1831 1082.89,97.1188 
  1102.73,114.884 1122.57,142.013 1142.42,178.5 1162.26,224.01 1182.1,277.962 1201.94,339.578 1221.78,407.901 1241.62,481.822 1261.47,560.1 1281.31,641.389 
  1301.15,724.273 1320.99,807.295 1340.83,888.996 1360.67,967.95 1380.52,1042.8 1400.36,1112.28 1420.2,1175.26 1440.04,1230.76 1459.88,1277.95 1479.72,1316.23 
  1499.57,1345.21 1519.41,1364.83 1539.25,1375.54 1559.09,1378.68 1578.93,1377.05 1598.77,1374.3 1618.62,1372.47 1638.46,1371.67 1658.3,1371.55 1678.14,1371.84 
  1697.98,1372.35 1717.82,1372.99 1737.67,1373.68 1757.51,1374.39 1777.35,1375.09 1797.19,1375.77 1817.03,1376.41 1836.87,1377 1856.71,1377.54 1876.56,1378.02 
  1896.4,1378.45 1916.24,1378.83 1936.08,1379.15 1955.92,1379.43 1975.76,1379.66 1995.61,1379.86 2015.45,1380.02 2035.29,1380.15 2055.13,1380.25 2074.97,1380.33 
  2094.81,1380.4 2114.66,1380.45 2134.5,1380.49 2154.34,1380.52 2174.18,1380.54 2194.02,1380.56 2213.86,1380.57 2233.71,1380.58 2253.55,1380.59 2273.39,1380.59 
  2293.23,1380.6 
  "/>
<polyline clip-path="url(#clip622)" style="stroke:#e26f46; stroke-linecap:butt; stroke-linejoin:round; stroke-width:4; stroke-opacity:1; fill:none" points="
  309.067,1384.24 328.909,1384.24 348.75,1384.24 368.592,1384.24 388.434,1384.24 408.275,1384.23 428.117,1384.22 447.958,1384.21 467.8,1384.19 487.642,1384.16 
  507.483,1384.12 527.325,1384.07 547.167,1383.99 567.008,1383.88 586.85,1383.75 606.692,1383.59 626.533,1383.38 646.375,1383.13 666.216,1382.82 686.058,1382.47 
  705.9,1382.05 725.741,1381.58 745.583,1381.04 765.425,1380.44 785.266,1379.78 805.108,1379.07 824.95,1378.31 844.791,1377.52 864.633,1376.72 884.475,1375.95 
  904.316,1375.23 924.158,1374.65 943.999,1374.32 963.841,1374.45 983.683,1375.38 1003.52,1377.55 1023.37,1381.01 1043.21,1383.82 1063.05,1382.24 1082.89,1373.3 
  1102.73,1355.54 1122.57,1328.41 1142.42,1291.92 1162.26,1246.41 1182.1,1192.46 1201.94,1130.85 1221.78,1062.52 1241.62,988.602 1261.47,910.324 1281.31,829.034 
  1301.15,746.151 1320.99,663.129 1340.83,581.428 1360.67,502.474 1380.52,427.626 1400.36,358.144 1420.2,295.164 1440.04,239.668 1459.88,192.47 1479.72,154.189 
  1499.57,125.209 1519.41,105.592 1539.25,94.8885 1559.09,91.7434 1578.93,93.371 1598.77,96.1202 1618.62,97.9558 1638.46,98.7575 1658.3,98.8733 1678.14,98.5855 
  1697.98,98.0712 1717.82,97.4356 1737.67,96.7426 1757.51,96.0321 1777.35,95.3302 1797.19,94.6547 1817.03,94.0177 1836.87,93.4273 1856.71,92.8884 1876.56,92.4036 
  1896.4,91.9735 1916.24,91.5969 1936.08,91.2713 1955.92,90.9935 1975.76,90.7596 1995.61,90.5651 2015.45,90.4054 2035.29,90.2758 2055.13,90.1718 2074.97,90.0893 
  2094.81,90.0246 2114.66,89.9743 2134.5,89.9353 2154.34,89.9054 2174.18,89.8825 2194.02,89.865 2213.86,89.8517 2233.71,89.8418 2253.55,89.8348 2273.39,89.8304 
  2293.23,89.8284 
  "/>
<path clip-path="url(#clip620)" d="
M1985.02 248.629 L2282.65 248.629 L2282.65 93.1086 L1985.02 93.1086  Z
  " fill="#ffffff" fill-rule="evenodd" fill-opacity="1"/>
<polyline clip-path="url(#clip620)" style="stroke:#000000; stroke-linecap:butt; stroke-linejoin:round; stroke-width:4; stroke-opacity:1; fill:none" points="
  1985.02,248.629 2282.65,248.629 2282.65,93.1086 1985.02,93.1086 1985.02,248.629 
  "/>
<polyline clip-path="url(#clip620)" style="stroke:#009af9; stroke-linecap:butt; stroke-linejoin:round; stroke-width:4; stroke-opacity:1; fill:none" points="
  2008.39,144.949 2148.61,144.949 
  "/>
<path clip-path="url(#clip620)" d="M2175.91 126.002 L2175.91 173.409 L2171.98 173.409 L2171.98 126.002 L2175.91 126.002 Z" fill="#000000" fill-rule="evenodd" fill-opacity="1" /><path clip-path="url(#clip620)" d="M2202.83 162.391 L2200.75 162.391 L2191.63 153.27 L2194.41 150.493 L2199.82 155.909 L2199.82 127.669 L2203.76 127.669 L2203.76 155.909 L2209.13 150.493 L2211.91 153.27 L2202.83 162.391 Z" fill="#000000" fill-rule="evenodd" fill-opacity="1" /><path clip-path="url(#clip620)" d="M2235.91 147.368 L2229.38 168.479 L2225.45 168.479 L2231.98 147.368 L2225.45 126.257 L2229.38 126.257 L2235.91 147.368 Z" fill="#000000" fill-rule="evenodd" fill-opacity="1" /><polyline clip-path="url(#clip620)" style="stroke:#e26f46; stroke-linecap:butt; stroke-linejoin:round; stroke-width:4; stroke-opacity:1; fill:none" points="
  2008.39,196.789 2148.61,196.789 
  "/>
<path clip-path="url(#clip620)" d="M2175.91 177.842 L2175.91 225.249 L2171.98 225.249 L2171.98 177.842 L2175.91 177.842 Z" fill="#000000" fill-rule="evenodd" fill-opacity="1" /><path clip-path="url(#clip620)" d="M2200.75 179.347 L2202.83 179.347 L2211.91 188.467 L2209.13 191.245 L2203.76 185.828 L2203.76 214.069 L2199.82 214.069 L2199.82 185.828 L2194.41 191.245 L2191.63 188.467 L2200.75 179.347 Z" fill="#000000" fill-rule="evenodd" fill-opacity="1" /><path clip-path="url(#clip620)" d="M2235.91 199.208 L2229.38 220.319 L2225.45 220.319 L2231.98 199.208 L2225.45 178.097 L2229.38 178.097 L2235.91 199.208 Z" fill="#000000" fill-rule="evenodd" fill-opacity="1" /></svg>
