<?xml version="1.0" encoding="utf-8"?>
<svg xmlns="http://www.w3.org/2000/svg" xmlns:xlink="http://www.w3.org/1999/xlink" width="600" height="400" viewBox="0 0 2400 1600">
<defs>
  <clipPath id="clip580">
    <rect x="0" y="0" width="2400" height="1600"/>
  </clipPath>
</defs>
<path clip-path="url(#clip580)" d="
M0 1600 L2400 1600 L2400 0 L0 0  Z
  " fill="#ffffff" fill-rule="evenodd" fill-opacity="1"/>
<defs>
  <clipPath id="clip581">
    <rect x="480" y="0" width="1681" height="1600"/>
  </clipPath>
</defs>
<path clip-path="url(#clip580)" d="
M175.445 1423.18 L2352.76 1423.18 L2352.76 47.2441 L175.445 47.2441  Z
  " fill="#ffffff" fill-rule="evenodd" fill-opacity="1"/>
<defs>
  <clipPath id="clip582">
    <rect x="175" y="47" width="2178" height="1377"/>
  </clipPath>
</defs>
<polyline clip-path="url(#clip580)" style="stroke:#000000; stroke-linecap:butt; stroke-linejoin:round; stroke-width:4; stroke-opacity:1; fill:none" points="
  175.445,1423.18 2352.76,1423.18 
  "/>
<polyline clip-path="url(#clip580)" style="stroke:#000000; stroke-linecap:butt; stroke-linejoin:round; stroke-width:4; stroke-opacity:1; fill:none" points="
  237.067,1423.18 237.067,1404.28 
  "/>
<polyline clip-path="url(#clip580)" style="stroke:#000000; stroke-linecap:butt; stroke-linejoin:round; stroke-width:4; stroke-opacity:1; fill:none" points="
  750.584,1423.18 750.584,1404.28 
  "/>
<polyline clip-path="url(#clip580)" style="stroke:#000000; stroke-linecap:butt; stroke-linejoin:round; stroke-width:4; stroke-opacity:1; fill:none" points="
  1264.1,1423.18 1264.1,1404.28 
  "/>
<polyline clip-path="url(#clip580)" style="stroke:#000000; stroke-linecap:butt; stroke-linejoin:round; stroke-width:4; stroke-opacity:1; fill:none" points="
  1777.62,1423.18 1777.62,1404.28 
  "/>
<polyline clip-path="url(#clip580)" style="stroke:#000000; stroke-linecap:butt; stroke-linejoin:round; stroke-width:4; stroke-opacity:1; fill:none" points="
  2291.13,1423.18 2291.13,1404.28 
  "/>
<path clip-path="url(#clip580)" d="M199.371 1454.1 Q195.76 1454.1 193.931 1457.66 Q192.125 1461.2 192.125 1468.33 Q192.125 1475.44 193.931 1479.01 Q195.76 1482.55 199.371 1482.55 Q203.005 1482.55 204.81 1479.01 Q206.639 1475.44 206.639 1468.33 Q206.639 1461.2 204.81 1457.66 Q203.005 1454.1 199.371 1454.1 M199.371 1450.39 Q205.181 1450.39 208.236 1455 Q211.315 1459.58 211.315 1468.33 Q211.315 1477.06 208.236 1481.67 Q205.181 1486.25 199.371 1486.25 Q193.56 1486.25 190.482 1481.67 Q187.426 1477.06 187.426 1468.33 Q187.426 1459.58 190.482 1455 Q193.56 1450.39 199.371 1450.39 Z" fill="#000000" fill-rule="evenodd" fill-opacity="1" /><path clip-path="url(#clip580)" d="M219.533 1479.7 L224.417 1479.7 L224.417 1485.58 L219.533 1485.58 L219.533 1479.7 Z" fill="#000000" fill-rule="evenodd" fill-opacity="1" /><path clip-path="url(#clip580)" d="M244.602 1454.1 Q240.991 1454.1 239.162 1457.66 Q237.357 1461.2 237.357 1468.33 Q237.357 1475.44 239.162 1479.01 Q240.991 1482.55 244.602 1482.55 Q248.236 1482.55 250.042 1479.01 Q251.87 1475.44 251.87 1468.33 Q251.87 1461.2 250.042 1457.66 Q248.236 1454.1 244.602 1454.1 M244.602 1450.39 Q250.412 1450.39 253.468 1455 Q256.546 1459.58 256.546 1468.33 Q256.546 1477.06 253.468 1481.67 Q250.412 1486.25 244.602 1486.25 Q238.792 1486.25 235.713 1481.67 Q232.658 1477.06 232.658 1468.33 Q232.658 1459.58 235.713 1455 Q238.792 1450.39 244.602 1450.39 Z" fill="#000000" fill-rule="evenodd" fill-opacity="1" /><path clip-path="url(#clip580)" d="M274.764 1454.1 Q271.153 1454.1 269.324 1457.66 Q267.518 1461.2 267.518 1468.33 Q267.518 1475.44 269.324 1479.01 Q271.153 1482.55 274.764 1482.55 Q278.398 1482.55 280.204 1479.01 Q282.032 1475.44 282.032 1468.33 Q282.032 1461.2 280.204 1457.66 Q278.398 1454.1 274.764 1454.1 M274.764 1450.39 Q280.574 1450.39 283.629 1455 Q286.708 1459.58 286.708 1468.33 Q286.708 1477.06 283.629 1481.67 Q280.574 1486.25 274.764 1486.25 Q268.954 1486.25 265.875 1481.67 Q262.819 1477.06 262.819 1468.33 Q262.819 1459.58 265.875 1455 Q268.954 1450.39 274.764 1450.39 Z" fill="#000000" fill-rule="evenodd" fill-opacity="1" /><path clip-path="url(#clip580)" d="M713.385 1454.1 Q709.774 1454.1 707.945 1457.66 Q706.14 1461.2 706.14 1468.33 Q706.14 1475.44 707.945 1479.01 Q709.774 1482.55 713.385 1482.55 Q717.019 1482.55 718.825 1479.01 Q720.653 1475.44 720.653 1468.33 Q720.653 1461.2 718.825 1457.66 Q717.019 1454.1 713.385 1454.1 M713.385 1450.39 Q719.195 1450.39 722.251 1455 Q725.329 1459.58 725.329 1468.33 Q725.329 1477.06 722.251 1481.67 Q719.195 1486.25 713.385 1486.25 Q707.575 1486.25 704.496 1481.67 Q701.441 1477.06 701.441 1468.33 Q701.441 1459.58 704.496 1455 Q707.575 1450.39 713.385 1450.39 Z" fill="#000000" fill-rule="evenodd" fill-opacity="1" /><path clip-path="url(#clip580)" d="M733.547 1479.7 L738.431 1479.7 L738.431 1485.58 L733.547 1485.58 L733.547 1479.7 Z" fill="#000000" fill-rule="evenodd" fill-opacity="1" /><path clip-path="url(#clip580)" d="M752.644 1481.64 L768.963 1481.64 L768.963 1485.58 L747.019 1485.58 L747.019 1481.64 Q749.681 1478.89 754.264 1474.26 Q758.871 1469.61 760.051 1468.27 Q762.297 1465.74 763.176 1464.01 Q764.079 1462.25 764.079 1460.56 Q764.079 1457.8 762.135 1456.07 Q760.213 1454.33 757.112 1454.33 Q754.913 1454.33 752.459 1455.09 Q750.028 1455.86 747.251 1457.41 L747.251 1452.69 Q750.075 1451.55 752.528 1450.97 Q754.982 1450.39 757.019 1450.39 Q762.389 1450.39 765.584 1453.08 Q768.778 1455.77 768.778 1460.26 Q768.778 1462.39 767.968 1464.31 Q767.181 1466.2 765.075 1468.8 Q764.496 1469.47 761.394 1472.69 Q758.292 1475.88 752.644 1481.64 Z" fill="#000000" fill-rule="evenodd" fill-opacity="1" /><path clip-path="url(#clip580)" d="M778.824 1451.02 L797.181 1451.02 L797.181 1454.96 L783.107 1454.96 L783.107 1463.43 Q784.125 1463.08 785.144 1462.92 Q786.162 1462.73 787.181 1462.73 Q792.968 1462.73 796.348 1465.9 Q799.727 1469.08 799.727 1474.49 Q799.727 1480.07 796.255 1483.17 Q792.783 1486.25 786.463 1486.25 Q784.287 1486.25 782.019 1485.88 Q779.774 1485.51 777.366 1484.77 L777.366 1480.07 Q779.449 1481.2 781.672 1481.76 Q783.894 1482.32 786.371 1482.32 Q790.375 1482.32 792.713 1480.21 Q795.051 1478.1 795.051 1474.49 Q795.051 1470.88 792.713 1468.77 Q790.375 1466.67 786.371 1466.67 Q784.496 1466.67 782.621 1467.08 Q780.769 1467.5 778.824 1468.38 L778.824 1451.02 Z" fill="#000000" fill-rule="evenodd" fill-opacity="1" /><path clip-path="url(#clip580)" d="M1226.4 1454.1 Q1222.79 1454.1 1220.96 1457.66 Q1219.16 1461.2 1219.16 1468.33 Q1219.16 1475.44 1220.96 1479.01 Q1222.79 1482.55 1226.4 1482.55 Q1230.04 1482.55 1231.84 1479.01 Q1233.67 1475.44 1233.67 1468.33 Q1233.67 1461.2 1231.84 1457.66 Q1230.04 1454.1 1226.4 1454.1 M1226.4 1450.39 Q1232.21 1450.39 1235.27 1455 Q1238.35 1459.58 1238.35 1468.33 Q1238.35 1477.06 1235.27 1481.67 Q1232.21 1486.25 1226.4 1486.25 Q1220.59 1486.25 1217.52 1481.67 Q1214.46 1477.06 1214.46 1468.33 Q1214.46 1459.58 1217.52 1455 Q1220.59 1450.39 1226.4 1450.39 Z" fill="#000000" fill-rule="evenodd" fill-opacity="1" /><path clip-path="url(#clip580)" d="M1246.57 1479.7 L1251.45 1479.7 L1251.45 1485.58 L1246.57 1485.58 L1246.57 1479.7 Z" fill="#000000" fill-rule="evenodd" fill-opacity="1" /><path clip-path="url(#clip580)" d="M1261.68 1451.02 L1280.04 1451.02 L1280.04 1454.96 L1265.96 1454.96 L1265.96 1463.43 Q1266.98 1463.08 1268 1462.92 Q1269.02 1462.73 1270.04 1462.73 Q1275.83 1462.73 1279.2 1465.9 Q1282.58 1469.08 1282.58 1474.49 Q1282.58 1480.07 1279.11 1483.17 Q1275.64 1486.25 1269.32 1486.25 Q1267.14 1486.25 1264.88 1485.88 Q1262.63 1485.51 1260.22 1484.77 L1260.22 1480.07 Q1262.31 1481.2 1264.53 1481.76 Q1266.75 1482.32 1269.23 1482.32 Q1273.23 1482.32 1275.57 1480.21 Q1277.91 1478.1 1277.91 1474.49 Q1277.91 1470.88 1275.57 1468.77 Q1273.23 1466.67 1269.23 1466.67 Q1267.35 1466.67 1265.48 1467.08 Q1263.63 1467.5 1261.68 1468.38 L1261.68 1451.02 Z" fill="#000000" fill-rule="evenodd" fill-opacity="1" /><path clip-path="url(#clip580)" d="M1301.8 1454.1 Q1298.19 1454.1 1296.36 1457.66 Q1294.55 1461.2 1294.55 1468.33 Q1294.55 1475.44 1296.36 1479.01 Q1298.19 1482.55 1301.8 1482.55 Q1305.43 1482.55 1307.24 1479.01 Q1309.07 1475.44 1309.07 1468.33 Q1309.07 1461.2 1307.24 1457.66 Q1305.43 1454.1 1301.8 1454.1 M1301.8 1450.39 Q1307.61 1450.39 1310.66 1455 Q1313.74 1459.58 1313.74 1468.33 Q1313.74 1477.06 1310.66 1481.67 Q1307.61 1486.25 1301.8 1486.25 Q1295.99 1486.25 1292.91 1481.67 Q1289.85 1477.06 1289.85 1468.33 Q1289.85 1459.58 1292.91 1455 Q1295.99 1450.39 1301.8 1450.39 Z" fill="#000000" fill-rule="evenodd" fill-opacity="1" /><path clip-path="url(#clip580)" d="M1740.42 1454.1 Q1736.81 1454.1 1734.98 1457.66 Q1733.17 1461.2 1733.17 1468.33 Q1733.17 1475.44 1734.98 1479.01 Q1736.81 1482.55 1740.42 1482.55 Q1744.05 1482.55 1745.86 1479.01 Q1747.69 1475.44 1747.69 1468.33 Q1747.69 1461.2 1745.86 1457.66 Q1744.05 1454.1 1740.42 1454.1 M1740.42 1450.39 Q1746.23 1450.39 1749.28 1455 Q1752.36 1459.58 1752.36 1468.33 Q1752.36 1477.06 1749.28 1481.67 Q1746.23 1486.25 1740.42 1486.25 Q1734.61 1486.25 1731.53 1481.67 Q1728.47 1477.06 1728.47 1468.33 Q1728.47 1459.58 1731.53 1455 Q1734.61 1450.39 1740.42 1450.39 Z" fill="#000000" fill-rule="evenodd" fill-opacity="1" /><path clip-path="url(#clip580)" d="M1760.58 1479.7 L1765.46 1479.7 L1765.46 1485.58 L1760.58 1485.58 L1760.58 1479.7 Z" fill="#000000" fill-rule="evenodd" fill-opacity="1" /><path clip-path="url(#clip580)" d="M1774.47 1451.02 L1796.69 1451.02 L1796.69 1453.01 L1784.14 1485.58 L1779.26 1485.58 L1791.07 1454.96 L1774.47 1454.96 L1774.47 1451.02 Z" fill="#000000" fill-rule="evenodd" fill-opacity="1" /><path clip-path="url(#clip580)" d="M1805.86 1451.02 L1824.21 1451.02 L1824.21 1454.96 L1810.14 1454.96 L1810.14 1463.43 Q1811.16 1463.08 1812.18 1462.92 Q1813.2 1462.73 1814.21 1462.73 Q1820 1462.73 1823.38 1465.9 Q1826.76 1469.08 1826.76 1474.49 Q1826.76 1480.07 1823.29 1483.17 Q1819.82 1486.25 1813.5 1486.25 Q1811.32 1486.25 1809.05 1485.88 Q1806.81 1485.51 1804.4 1484.77 L1804.4 1480.07 Q1806.48 1481.2 1808.71 1481.76 Q1810.93 1482.32 1813.4 1482.32 Q1817.41 1482.32 1819.75 1480.21 Q1822.08 1478.1 1822.08 1474.49 Q1822.08 1470.88 1819.75 1468.77 Q1817.41 1466.67 1813.4 1466.67 Q1811.53 1466.67 1809.65 1467.08 Q1807.8 1467.5 1805.86 1468.38 L1805.86 1451.02 Z" fill="#000000" fill-rule="evenodd" fill-opacity="1" /><path clip-path="url(#clip580)" d="M2243.21 1481.64 L2250.84 1481.64 L2250.84 1455.28 L2242.53 1456.95 L2242.53 1452.69 L2250.8 1451.02 L2255.47 1451.02 L2255.47 1481.64 L2263.11 1481.64 L2263.11 1485.58 L2243.21 1485.58 L2243.21 1481.64 Z" fill="#000000" fill-rule="evenodd" fill-opacity="1" /><path clip-path="url(#clip580)" d="M2272.56 1479.7 L2277.44 1479.7 L2277.44 1485.58 L2272.56 1485.58 L2272.56 1479.7 Z" fill="#000000" fill-rule="evenodd" fill-opacity="1" /><path clip-path="url(#clip580)" d="M2297.63 1454.1 Q2294.02 1454.1 2292.19 1457.66 Q2290.38 1461.2 2290.38 1468.33 Q2290.38 1475.44 2292.19 1479.01 Q2294.02 1482.55 2297.63 1482.55 Q2301.26 1482.55 2303.07 1479.01 Q2304.9 1475.44 2304.9 1468.33 Q2304.9 1461.2 2303.07 1457.66 Q2301.26 1454.1 2297.63 1454.1 M2297.63 1450.39 Q2303.44 1450.39 2306.49 1455 Q2309.57 1459.58 2309.57 1468.33 Q2309.57 1477.06 2306.49 1481.67 Q2303.44 1486.25 2297.63 1486.25 Q2291.82 1486.25 2288.74 1481.67 Q2285.68 1477.06 2285.68 1468.33 Q2285.68 1459.58 2288.74 1455 Q2291.82 1450.39 2297.63 1450.39 Z" fill="#000000" fill-rule="evenodd" fill-opacity="1" /><path clip-path="url(#clip580)" d="M2327.79 1454.1 Q2324.18 1454.1 2322.35 1457.66 Q2320.54 1461.2 2320.54 1468.33 Q2320.54 1475.44 2322.35 1479.01 Q2324.18 1482.55 2327.79 1482.55 Q2331.42 1482.55 2333.23 1479.01 Q2335.06 1475.44 2335.06 1468.33 Q2335.06 1461.2 2333.23 1457.66 Q2331.42 1454.1 2327.79 1454.1 M2327.79 1450.39 Q2333.6 1450.39 2336.65 1455 Q2339.73 1459.58 2339.73 1468.33 Q2339.73 1477.06 2336.65 1481.67 Q2333.6 1486.25 2327.79 1486.25 Q2321.98 1486.25 2318.9 1481.67 Q2315.84 1477.06 2315.84 1468.33 Q2315.84 1459.58 2318.9 1455 Q2321.98 1450.39 2327.79 1450.39 Z" fill="#000000" fill-rule="evenodd" fill-opacity="1" /><path clip-path="url(#clip580)" d="M1168.04 1522.27 L1168.04 1532.4 L1180.11 1532.4 L1180.11 1536.95 L1168.04 1536.95 L1168.04 1556.3 Q1168.04 1560.66 1169.22 1561.9 Q1170.43 1563.14 1174.09 1563.14 L1180.11 1563.14 L1180.11 1568.04 L1174.09 1568.04 Q1167.31 1568.04 1164.73 1565.53 Q1162.15 1562.98 1162.15 1556.3 L1162.15 1536.95 L1157.86 1536.95 L1157.86 1532.4 L1162.15 1532.4 L1162.15 1522.27 L1168.04 1522.27 Z" fill="#000000" fill-rule="evenodd" fill-opacity="1" /><path clip-path="url(#clip580)" d="M1222.6 1518.58 Q1218.33 1525.9 1216.26 1533.06 Q1214.19 1540.23 1214.19 1547.58 Q1214.19 1554.93 1216.26 1562.16 Q1218.36 1569.35 1222.6 1576.64 L1217.5 1576.64 Q1212.73 1569.16 1210.34 1561.93 Q1207.99 1554.71 1207.99 1547.58 Q1207.99 1540.48 1210.34 1533.29 Q1212.7 1526.09 1217.5 1518.58 L1222.6 1518.58 Z" fill="#000000" fill-rule="evenodd" fill-opacity="1" /><path clip-path="url(#clip580)" d="M1250.16 1550.12 Q1243.06 1550.12 1240.32 1551.75 Q1237.59 1553.37 1237.59 1557.29 Q1237.59 1560.4 1239.62 1562.25 Q1241.69 1564.07 1245.23 1564.07 Q1250.1 1564.07 1253.02 1560.63 Q1255.98 1557.16 1255.98 1551.43 L1255.98 1550.12 L1250.16 1550.12 M1261.84 1547.71 L1261.84 1568.04 L1255.98 1568.04 L1255.98 1562.63 Q1253.98 1565.88 1250.99 1567.44 Q1248 1568.97 1243.67 1568.97 Q1238.19 1568.97 1234.95 1565.91 Q1231.73 1562.82 1231.73 1557.67 Q1231.73 1551.65 1235.74 1548.6 Q1239.78 1545.54 1247.77 1545.54 L1255.98 1545.54 L1255.98 1544.97 Q1255.98 1540.93 1253.31 1538.73 Q1250.67 1536.5 1245.86 1536.5 Q1242.81 1536.5 1239.91 1537.23 Q1237.01 1537.97 1234.34 1539.43 L1234.34 1534.02 Q1237.56 1532.78 1240.58 1532.17 Q1243.6 1531.54 1246.47 1531.54 Q1254.2 1531.54 1258.02 1535.55 Q1261.84 1539.56 1261.84 1547.71 Z" fill="#000000" fill-rule="evenodd" fill-opacity="1" /><path clip-path="url(#clip580)" d="M1274.73 1559.96 L1281.45 1559.96 L1281.45 1568.04 L1274.73 1568.04 L1274.73 1559.96 Z" fill="#000000" fill-rule="evenodd" fill-opacity="1" /><path clip-path="url(#clip580)" d="M1294.02 1553.98 L1294.02 1532.4 L1299.88 1532.4 L1299.88 1553.75 Q1299.88 1558.81 1301.85 1561.36 Q1303.82 1563.87 1307.77 1563.87 Q1312.51 1563.87 1315.25 1560.85 Q1318.02 1557.83 1318.02 1552.61 L1318.02 1532.4 L1323.87 1532.4 L1323.87 1568.04 L1318.02 1568.04 L1318.02 1562.57 Q1315.89 1565.82 1313.05 1567.41 Q1310.25 1568.97 1306.53 1568.97 Q1300.39 1568.97 1297.2 1565.15 Q1294.02 1561.33 1294.02 1553.98 M1308.76 1531.54 L1308.76 1531.54 Z" fill="#000000" fill-rule="evenodd" fill-opacity="1" /><path clip-path="url(#clip580)" d="M1336.77 1559.96 L1343.48 1559.96 L1343.48 1568.04 L1336.77 1568.04 L1336.77 1559.96 Z" fill="#000000" fill-rule="evenodd" fill-opacity="1" /><path clip-path="url(#clip580)" d="M1355.73 1518.58 L1360.83 1518.58 Q1365.6 1526.09 1367.96 1533.29 Q1370.34 1540.48 1370.34 1547.58 Q1370.34 1554.71 1367.96 1561.93 Q1365.6 1569.16 1360.83 1576.64 L1355.73 1576.64 Q1359.97 1569.35 1362.04 1562.16 Q1364.14 1554.93 1364.14 1547.58 Q1364.14 1540.23 1362.04 1533.06 Q1359.97 1525.9 1355.73 1518.58 Z" fill="#000000" fill-rule="evenodd" fill-opacity="1" /><polyline clip-path="url(#clip580)" style="stroke:#000000; stroke-linecap:butt; stroke-linejoin:round; stroke-width:4; stroke-opacity:1; fill:none" points="
  175.445,1423.18 175.445,47.2441 
  "/>
<polyline clip-path="url(#clip580)" style="stroke:#000000; stroke-linecap:butt; stroke-linejoin:round; stroke-width:4; stroke-opacity:1; fill:none" points="
  175.445,1298.59 194.343,1298.59 
  "/>
<polyline clip-path="url(#clip580)" style="stroke:#000000; stroke-linecap:butt; stroke-linejoin:round; stroke-width:4; stroke-opacity:1; fill:none" points="
  175.445,1109.7 194.343,1109.7 
  "/>
<polyline clip-path="url(#clip580)" style="stroke:#000000; stroke-linecap:butt; stroke-linejoin:round; stroke-width:4; stroke-opacity:1; fill:none" points="
  175.445,920.8 194.343,920.8 
  "/>
<polyline clip-path="url(#clip580)" style="stroke:#000000; stroke-linecap:butt; stroke-linejoin:round; stroke-width:4; stroke-opacity:1; fill:none" points="
  175.445,731.904 194.343,731.904 
  "/>
<polyline clip-path="url(#clip580)" style="stroke:#000000; stroke-linecap:butt; stroke-linejoin:round; stroke-width:4; stroke-opacity:1; fill:none" points="
  175.445,543.007 194.343,543.007 
  "/>
<polyline clip-path="url(#clip580)" style="stroke:#000000; stroke-linecap:butt; stroke-linejoin:round; stroke-width:4; stroke-opacity:1; fill:none" points="
  175.445,354.11 194.343,354.11 
  "/>
<polyline clip-path="url(#clip580)" style="stroke:#000000; stroke-linecap:butt; stroke-linejoin:round; stroke-width:4; stroke-opacity:1; fill:none" points="
  175.445,165.214 194.343,165.214 
  "/>
<path clip-path="url(#clip580)" d="M127.501 1284.39 Q123.89 1284.39 122.061 1287.96 Q120.255 1291.5 120.255 1298.63 Q120.255 1305.73 122.061 1309.3 Q123.89 1312.84 127.501 1312.84 Q131.135 1312.84 132.941 1309.3 Q134.769 1305.73 134.769 1298.63 Q134.769 1291.5 132.941 1287.96 Q131.135 1284.39 127.501 1284.39 M127.501 1280.69 Q133.311 1280.69 136.367 1285.3 Q139.445 1289.88 139.445 1298.63 Q139.445 1307.36 136.367 1311.96 Q133.311 1316.55 127.501 1316.55 Q121.691 1316.55 118.612 1311.96 Q115.556 1307.36 115.556 1298.63 Q115.556 1289.88 118.612 1285.3 Q121.691 1280.69 127.501 1280.69 Z" fill="#000000" fill-rule="evenodd" fill-opacity="1" /><path clip-path="url(#clip580)" d="M119.538 1123.04 L127.177 1123.04 L127.177 1096.68 L118.867 1098.34 L118.867 1094.08 L127.13 1092.42 L131.806 1092.42 L131.806 1123.04 L139.445 1123.04 L139.445 1126.98 L119.538 1126.98 L119.538 1123.04 Z" fill="#000000" fill-rule="evenodd" fill-opacity="1" /><path clip-path="url(#clip580)" d="M123.126 934.145 L139.445 934.145 L139.445 938.08 L117.501 938.08 L117.501 934.145 Q120.163 931.391 124.746 926.761 Q129.353 922.108 130.533 920.766 Q132.779 918.242 133.658 916.506 Q134.561 914.747 134.561 913.057 Q134.561 910.303 132.617 908.567 Q130.695 906.831 127.593 906.831 Q125.394 906.831 122.941 907.594 Q120.51 908.358 117.732 909.909 L117.732 905.187 Q120.556 904.053 123.01 903.474 Q125.464 902.895 127.501 902.895 Q132.871 902.895 136.066 905.581 Q139.26 908.266 139.26 912.756 Q139.26 914.886 138.45 916.807 Q137.663 918.705 135.556 921.298 Q134.978 921.969 131.876 925.187 Q128.774 928.381 123.126 934.145 Z" fill="#000000" fill-rule="evenodd" fill-opacity="1" /><path clip-path="url(#clip580)" d="M132.316 730.549 Q135.672 731.267 137.547 733.536 Q139.445 735.804 139.445 739.137 Q139.445 744.253 135.927 747.054 Q132.408 749.855 125.927 749.855 Q123.751 749.855 121.436 749.415 Q119.144 748.998 116.691 748.142 L116.691 743.628 Q118.635 744.762 120.95 745.341 Q123.265 745.92 125.788 745.92 Q130.186 745.92 132.478 744.184 Q134.792 742.448 134.792 739.137 Q134.792 736.082 132.64 734.369 Q130.51 732.633 126.691 732.633 L122.663 732.633 L122.663 728.79 L126.876 728.79 Q130.325 728.79 132.154 727.425 Q133.982 726.036 133.982 723.443 Q133.982 720.781 132.084 719.369 Q130.209 717.934 126.691 717.934 Q124.769 717.934 122.57 718.35 Q120.371 718.767 117.732 719.647 L117.732 715.48 Q120.394 714.739 122.709 714.369 Q125.047 713.999 127.107 713.999 Q132.431 713.999 135.533 716.429 Q138.635 718.837 138.635 722.957 Q138.635 725.827 136.992 727.818 Q135.348 729.786 132.316 730.549 Z" fill="#000000" fill-rule="evenodd" fill-opacity="1" /><path clip-path="url(#clip580)" d="M129.862 529.801 L118.056 548.25 L129.862 548.25 L129.862 529.801 M128.635 525.727 L134.515 525.727 L134.515 548.25 L139.445 548.25 L139.445 552.139 L134.515 552.139 L134.515 560.287 L129.862 560.287 L129.862 552.139 L114.26 552.139 L114.26 547.625 L128.635 525.727 Z" fill="#000000" fill-rule="evenodd" fill-opacity="1" /><path clip-path="url(#clip580)" d="M118.543 336.83 L136.899 336.83 L136.899 340.765 L122.825 340.765 L122.825 349.238 Q123.843 348.89 124.862 348.728 Q125.88 348.543 126.899 348.543 Q132.686 348.543 136.066 351.714 Q139.445 354.886 139.445 360.302 Q139.445 365.881 135.973 368.983 Q132.501 372.062 126.181 372.062 Q124.005 372.062 121.737 371.691 Q119.492 371.321 117.084 370.58 L117.084 365.881 Q119.168 367.015 121.39 367.571 Q123.612 368.126 126.089 368.126 Q130.093 368.126 132.431 366.02 Q134.769 363.913 134.769 360.302 Q134.769 356.691 132.431 354.585 Q130.093 352.478 126.089 352.478 Q124.214 352.478 122.339 352.895 Q120.487 353.312 118.543 354.191 L118.543 336.83 Z" fill="#000000" fill-rule="evenodd" fill-opacity="1" /><path clip-path="url(#clip580)" d="M127.917 163.35 Q124.769 163.35 122.918 165.503 Q121.089 167.656 121.089 171.406 Q121.089 175.132 122.918 177.308 Q124.769 179.461 127.917 179.461 Q131.066 179.461 132.894 177.308 Q134.746 175.132 134.746 171.406 Q134.746 167.656 132.894 165.503 Q131.066 163.35 127.917 163.35 M137.2 148.697 L137.2 152.957 Q135.441 152.123 133.635 151.684 Q131.853 151.244 130.093 151.244 Q125.464 151.244 123.01 154.369 Q120.58 157.494 120.232 163.813 Q121.598 161.799 123.658 160.734 Q125.718 159.646 128.195 159.646 Q133.404 159.646 136.413 162.818 Q139.445 165.966 139.445 171.406 Q139.445 176.73 136.297 179.947 Q133.149 183.165 127.917 183.165 Q121.922 183.165 118.751 178.582 Q115.58 173.975 115.58 165.248 Q115.58 157.054 119.468 152.193 Q123.357 147.309 129.908 147.309 Q131.667 147.309 133.45 147.656 Q135.255 148.003 137.2 148.697 Z" fill="#000000" fill-rule="evenodd" fill-opacity="1" /><path clip-path="url(#clip580)" d="M58.3387 784.96 L64.0042 784.96 L64.0042 804.057 L58.3387 804.057 Q55.2513 798.423 49.9678 795.272 Q44.6842 792.121 38.2549 792.121 Q30.616 792.121 26.0009 796.323 Q21.3858 800.524 21.3858 807.399 Q21.3858 814.274 26.0327 818.507 Q30.6479 822.709 38.2549 822.709 Q44.6842 822.709 49.9678 819.558 Q55.2513 816.375 58.3387 810.709 L64.0042 810.709 L64.0042 829.806 L58.3387 829.806 L58.3387 819.653 Q53.9145 824.682 49.1721 827.005 Q44.4296 829.297 38.5732 829.297 Q28.4517 829.297 22.1815 823.186 Q15.9112 817.107 15.9112 807.399 Q15.9112 797.755 22.1815 791.612 Q28.4199 785.501 38.2549 785.501 Q44.4296 785.501 49.1402 787.761 Q53.8509 790.021 58.3387 795.145 L58.3387 784.96 Z" fill="#000000" fill-rule="evenodd" fill-opacity="1" /><path clip-path="url(#clip580)" d="M16.4842 745.206 L16.4842 739.795 L70.0516 756.346 L70.0516 761.757 L16.4842 745.206 Z" fill="#000000" fill-rule="evenodd" fill-opacity="1" /><path clip-path="url(#clip580)" d="M64.9272 701.569 Q64.9272 714.778 46.021 714.778 Q38.5413 714.778 28.3562 709.845 L28.3562 703.543 Q38.5413 708.094 46.1802 708.094 Q59.9619 708.094 59.9619 701.028 Q59.9619 694.567 42.8382 694.567 L42.8382 689.156 Q59.9619 689.156 59.9619 682.695 Q59.9619 675.629 46.1802 675.629 Q38.5413 675.629 28.3562 680.18 L28.3562 673.878 Q38.5413 668.945 46.021 668.945 Q64.9272 668.945 64.9272 682.154 Q64.9272 690.811 55.4105 691.862 Q64.9272 693.166 64.9272 701.569 Z" fill="#000000" fill-rule="evenodd" fill-opacity="1" /><path clip-path="url(#clip580)" d="M42.4562 646.347 Q39.719 647.938 39.719 651.153 Q39.719 654.367 42.4562 655.959 Q45.1935 657.582 50.668 657.582 Q56.1743 657.582 58.9116 655.959 Q61.6488 654.367 61.6488 651.153 Q61.6488 647.938 58.9116 646.347 Q56.1743 644.723 50.668 644.723 Q45.1935 644.723 42.4562 646.347 M36.8862 651.153 Q36.8862 646.028 40.4192 643.323 Q43.9522 640.618 50.668 640.618 Q57.4157 640.618 60.9486 643.323 Q64.4816 646.028 64.4816 651.153 Q64.4816 656.309 60.9486 659.014 Q57.4157 661.72 50.668 661.72 Q43.9522 661.72 40.4192 659.014 Q36.8862 656.309 36.8862 651.153 Z" fill="#000000" fill-rule="evenodd" fill-opacity="1" /><polyline clip-path="url(#clip582)" style="stroke:#009af9; stroke-linecap:butt; stroke-linejoin:round; stroke-width:4; stroke-opacity:1; fill:none" points="
  237.067,1299.25 257.608,1302.17 278.149,1305.27 298.689,1308.56 319.23,1312.02 339.771,1315.67 360.311,1319.5 380.852,1323.5 401.393,1327.66 421.933,1331.96 
  442.474,1336.38 463.015,1340.89 483.555,1345.46 504.096,1350.04 524.637,1354.59 545.177,1359.05 565.718,1363.36 586.259,1367.47 606.799,1371.3 627.34,1374.78 
  647.881,1377.84 668.421,1380.4 688.962,1382.38 709.503,1383.7 730.043,1384.24 750.584,1383.88 771.125,1382.45 791.665,1379.67 812.206,1375.13 832.747,1368.07 
  853.287,1357.09 873.828,1339.57 894.369,1310.4 914.909,1259.5 935.45,1166.97 955.991,997.918 976.531,737.501 997.072,484.957 1017.61,325.21 1038.15,236.402 
  1058.69,185.814 1079.23,155.159 1099.78,135.161 1120.32,121.137 1140.86,110.726 1161.4,102.741 1181.94,96.5878 1202.48,91.9698 1223.02,88.7386 1243.56,86.8215 
  1264.1,86.1857 1284.64,86.8215 1305.18,88.7386 1325.72,91.9698 1346.26,96.5878 1366.8,102.741 1387.34,110.726 1407.89,121.137 1428.43,135.161 1448.97,155.159 
  1469.51,185.814 1490.05,236.402 1510.59,325.21 1531.13,484.957 1551.67,737.501 1572.21,997.918 1592.75,1166.97 1613.29,1259.5 1633.83,1310.4 1654.37,1339.57 
  1674.91,1357.09 1695.45,1368.07 1716,1375.13 1736.54,1379.67 1757.08,1382.45 1777.62,1383.88 1798.16,1384.24 1818.7,1383.7 1839.24,1382.38 1859.78,1380.4 
  1880.32,1377.84 1900.86,1374.78 1921.4,1371.3 1941.94,1367.47 1962.48,1363.36 1983.02,1359.05 2003.56,1354.59 2024.11,1350.04 2044.65,1345.46 2065.19,1340.89 
  2085.73,1336.38 2106.27,1331.96 2126.81,1327.66 2147.35,1323.5 2167.89,1319.5 2188.43,1315.67 2208.97,1312.02 2229.51,1308.56 2250.05,1305.27 2270.59,1302.17 
  2291.13,1299.25 
  "/>
</svg>
